{
.appVersion = "1346";
classes = (
{
automatic = 1;
code = "A Aacute Abreve Abreveacute Abrevedotbelow Abrevegrave Abrevetilde Acaron Acircumflex Acircumflexacute Acircumflexdotbelow Acircumflexgrave Acircumflextilde Adblgrave Adieresis Adotbelow Agrave Ainvertedbreve Amacron Aogonek Aring Aringacute Atilde AE AEacute B C Cacute Ccaron Ccedilla Ccircumflex Cdotaccent D Eth Dcaron Dcroat E Eacute Ebreve Ecaron Ecircumflex Ecircumflexacute Ecircumflexdotbelow Ecircumflexgrave Ecircumflextilde Edblgrave Edieresis Edotaccent Edotbelow Egrave Einvertedbreve Emacron Eogonek Etilde F G Gbreve Gcaron Gcircumflex Gcommaaccent Gdotaccent H Hbar Hcircumflex I Iacute Ibreve Icaron Icircumflex Idblgrave Idieresis Idotaccent Idotbelow Igrave Iinvertedbreve Imacron Iogonek Itilde J Jcircumflex K Kcommaaccent L Lacute Lcaron Lcommaaccent Ldot Lslash M N Nacute Ncaron Ncommaaccent Eng Ntilde O Oacute Obreve Ocaron Ocircumflex Ocircumflexacute Ocircumflexdotbelow Ocircumflexgrave Ocircumflextilde Odblgrave Odieresis Odieresismacron Odotaccentmacron Odotbelow Ograve Ohungarumlaut Oinvertedbreve Omacron Oogonek Oslash Oslashacute Otilde Otildemacron OE P Thorn Q R Racute Rcaron Rcommaaccent Rdblgrave Rinvertedbreve S Sacute Scaron Scedilla Scircumflex Scommaaccent Germandbls T Tbar Tcaron Tcedilla Tcommaaccent U Uacute Ubreve Ucaron Ucircumflex Udblgrave Udieresis Udieresisacute Udieresiscaron Udieresisgrave Udieresismacron Udotbelow Ugrave Uhungarumlaut Uinvertedbreve Umacron Uogonek Uring Utilde V W Wacute Wcircumflex Wdieresis Wgrave X Y Yacute Ycircumflex Ydieresis Ydotbelow Ygrave Ymacron Ytilde Z Zacute Zcaron Zdotaccent";
name = Uppercase;
},
{
automatic = 1;

glyphs = (
{
glyphname = A;
lastChange = "2020-09-28 20:42:33 +0000";
layers = (
{
anchors = (
{
name = bottom;
position = "{772, 0}";
},
{
name = ogonek;
position = "{1362, 86}";
},
{
name = top;
position = "{772, 1480}";
}
);
layerId = "9B85AB65-32D7-4FED-B27C-3C7447013A9D";
paths = (
{
closed = 1;
nodes = (
"386 0 LINE SMOOTH",
"440 0 OFFCURVE",
"472 24 OFFCURVE",
"490 74 CURVE SMOOTH",
"560 274 LINE",
"986 274 LINE",
"1054 74 LINE SMOOTH",
"1071 24 OFFCURVE",
"1122 0 OFFCURVE",
"1176 0 CURVE SMOOTH",
"1398 0 LINE SMOOTH",
"1466 0 OFFCURVE",
"1494 40 OFFCURVE",
"1472 104 CURVE SMOOTH",
"1026 1408 LINE SMOOTH",
"1010 1456 OFFCURVE",
"976 1480 OFFCURVE",
"922 1480 CURVE SMOOTH",
"618 1480 LINE SMOOTH",
"566 1480 OFFCURVE",
"532 1456 OFFCURVE",
"516 1408 CURVE SMOOTH",
"68 104 LINE SMOOTH",
"46 40 OFFCURVE",
"74 0 OFFCURVE",
"142 0 CURVE SMOOTH"
);
},
{
closed = 1;
nodes = (
"770 1030 LINE",
"916 584 LINE",
"638 584 LINE"
);
}
);
width = 1542;
}
);
unicode = 0041;
},
{
glyphname = AE;
lastChange = "2020-09-28 20:58:30 +0000";
layers = (
{
anchors = (
{
name = bottom;
position = "{1074, 0}";
},
{
name = top;
position = "{1074, 1480}";
}
);
layerId = "9B85AB65-32D7-4FED-B27C-3C7447013A9D";
paths = (
{
closed = 1;
nodes = (
"338 0 LINE SMOOTH",
"388 0 OFFCURVE",
"433 23 OFFCURVE",
"468 74 CURVE SMOOTH",
"592 256 LINE",
"992 256 LINE",
"992 74 LINE SMOOTH",
"992 24 OFFCURVE",
"1016 0 OFFCURVE",
"1068 0 CURVE SMOOTH",
"1938 0 LINE SMOOTH",
"1998 0 OFFCURVE",
"2028 30 OFFCURVE",
"2028 90 CURVE SMOOTH",
"2028 288 LINE SMOOTH",
"2028 348 OFFCURVE",
"1998 378 OFFCURVE",
"1938 378 CURVE SMOOTH",
"1378 378 LINE",
"1378 566 LINE",
"1788 566 LINE SMOOTH",
"1848 566 OFFCURVE",
"1878 596 OFFCURVE",
"1878 656 CURVE SMOOTH",
"1878 826 LINE SMOOTH",
"1878 886 OFFCURVE",
"1848 916 OFFCURVE",
"1788 916 CURVE SMOOTH",
"1378 916 LINE",
"1378 1102 LINE",
"1938 1102 LINE SMOOTH",
"1998 1102 OFFCURVE",
"2028 1132 OFFCURVE",
"2028 1192 CURVE SMOOTH",
"2028 1390 LINE SMOOTH",
"2028 1450 OFFCURVE",
"1998 1480 OFFCURVE",
"1938 1480 CURVE SMOOTH",
"1030 1480 LINE SMOOTH",
"978 1480 OFFCURVE",
"934 1456 OFFCURVE",
"902 1408 CURVE SMOOTH",
"46 104 LINE SMOOTH",
"3 39 OFFCURVE",
"14 0 OFFCURVE",
"84 0 CURVE SMOOTH"
);
},
{
closed = 1;
nodes = (
"1022 986 LINE",
"1022 584 LINE",
"768 584 LINE"
);
}
);
width = 2148;
}
);
unicode = 00C6;
},
{
glyphname = AEacute;
lastChange = "2020-09-28 20:42:28 +0000";
layers = (
{
layerId = "9B85AB65-32D7-4FED-B27C-3C7447013A9D";
paths = (
{
closed = 1;
nodes = (
"416 0 LINE SMOOTH",
"466 0 OFFCURVE",
"510 24 OFFCURVE",
"546 74 CURVE SMOOTH",
"670 256 LINE",
"1110 256 LINE",
"1110 74 LINE SMOOTH",
"1108 24 OFFCURVE",
"1134 0 OFFCURVE",
"1186 0 CURVE SMOOTH",
"2056 0 LINE SMOOTH",
"2116 0 OFFCURVE",
"2146 30 OFFCURVE",
"2146 90 CURVE SMOOTH",
"2146 288 LINE SMOOTH",
"2146 348 OFFCURVE",
"2116 378 OFFCURVE",
"2056 378 CURVE SMOOTH",
"1486 378 LINE",
"1486 566 LINE",
"1906 566 LINE SMOOTH",
"1966 566 OFFCURVE",
"1996 596 OFFCURVE",
"1996 656 CURVE SMOOTH",
"1996 826 LINE SMOOTH",
"1996 886 OFFCURVE",
"1966 916 OFFCURVE",
"1906 916 CURVE SMOOTH",
"1486 916 LINE",
"1486 1102 LINE",
"2056 1102 LINE SMOOTH",
"2116 1102 OFFCURVE",
"2146 1132 OFFCURVE",
"2146 1192 CURVE SMOOTH",
"2146 1390 LINE SMOOTH",
"2146 1450 OFFCURVE",
"2116 1480 OFFCURVE",
"2056 1480 CURVE SMOOTH",
"1198 1480 LINE SMOOTH",
"1146 1480 OFFCURVE",
"1104 1456 OFFCURVE",
"1070 1408 CURVE SMOOTH",
"164 104 LINE SMOOTH",
"118 40 OFFCURVE",
"132 0 OFFCURVE",
"202 0 CURVE SMOOTH"
);
},
{
closed = 1;
nodes = (
"1140 996 LINE",
"1140 584 LINE",
"876 584 LINE"
);
},
{
closed = 1;
nodes = (
"1248 1596 OFFCURVE",
"1274 1600 OFFCURVE",
"1304 1610 CURVE SMOOTH",
"1362 1628 OFFCURVE",
"1434 1664 OFFCURVE",
"1496 1704 CURVE SMOOTH",
"1642 1800 OFFCURVE",
"1538 1966 OFFCURVE",
"1388 1870 CURVE SMOOTH",
"1356 1848 OFFCURVE",
"1326 1826 OFFCURVE",
"1298 1802 CURVE SMOOTH",
"1240 1752 OFFCURVE",
"1198 1702 OFFCURVE",
"1182 1662 CURVE SMOOTH",
"1164 1622 OFFCURVE",
"1180 1596 OFFCURVE",
"1226 1596 CURVE SMOOTH"
);
}
);
width = 2300;
}
);
unicode = 01FC;
},
{
glyphname = B;
lastChange = "2020-09-28 21:32:51 +0000";
layers = (
{
anchors = (
{
name = bottom;
position = "{758, 0}";
},
{
name = top;
position = "{758, 1480}";
}
);
layerId = "9B85AB65-32D7-4FED-B27C-3C7447013A9D";
paths = (
{
closed = 1;
nodes = (
"916 0 LINE SMOOTH",
"1278 0 OFFCURVE",
"1406 210 OFFCURVE",
"1406 438 CURVE SMOOTH",
"1406 660 OFFCURVE",
"1216 760 OFFCURVE",
"1124 768 CURVE",
"1222 788 OFFCURVE",
"1322 904 OFFCURVE",
"1322 1064 CURVE SMOOTH",
"1322 1066 LINE SMOOTH",
"1322 1328 OFFCURVE",
"1124 1480 OFFCURVE",
"842 1480 CURVE SMOOTH",
"260 1480 LINE SMOOTH",
"202 1480 OFFCURVE",
"170 1448 OFFCURVE",
"170 1390 CURVE SMOOTH",
"170 90 LINE SMOOTH",
"170 32 OFFCURVE",
"202 0 OFFCURVE",
"260 0 CURVE SMOOTH"
);
},
{
closed = 1;
nodes = (
"550 590 LINE",
"874 590 LINE SMOOTH",
"962 590 OFFCURVE",
"1008 550 OFFCURVE",
"1008 466 CURVE SMOOTH",
"1008 382 OFFCURVE",
"958 336 OFFCURVE",
"886 336 CURVE SMOOTH",
"550 336 LINE"
);
},
{
closed = 1;
nodes = (
"550 1144 LINE",
"836 1144 LINE SMOOTH",
"916 1144 OFFCURVE",
"950 1080 OFFCURVE",
"950 1014 CURVE SMOOTH",
"950 934 OFFCURVE",
"896 896 OFFCURVE",
"836 896 CURVE SMOOTH",
"550 896 LINE"
);
}
);
width = 1506;
}
);
leftKerningGroup = H;
leftMetricsKey = H;
unicode = 0042;
},
{
glyphname = C;
lastChange = "2020-09-28 21:33:35 +0000";
layers = (
{
anchors = (
{
name = bottom;
position = "{858, 0}";
},
{
name = top;
position = "{768, 1480}";
}
);
layerId = "9B85AB65-32D7-4FED-B27C-3C7447013A9D";
paths = (
{
closed = 1;
nodes = (
"1076 -36 OFFCURVE",
"1266 40 OFFCURVE",
"1410 174 CURVE SMOOTH",
"1454 216 OFFCURVE",
"1448 264 OFFCURVE",
"1404 302 CURVE SMOOTH",
"1250 432 LINE SMOOTH",
"1207 469 OFFCURVE",
"1168 462 OFFCURVE",
"1122 428 CURVE SMOOTH",
"1054 374 OFFCURVE",
"968 344 OFFCURVE",
"878 344 CURVE SMOOTH",
"658 344 OFFCURVE",
"518 520 OFFCURVE",
"518 740 CURVE SMOOTH",
"518 960 OFFCURVE",
"658 1140 OFFCURVE",
"878 1140 CURVE SMOOTH",
"972 1140 OFFCURVE",
"1060 1108 OFFCURVE",
"1130 1050 CURVE SMOOTH",
"1174 1014 OFFCURVE",
"1211 1009 OFFCURVE",
"1256 1044 CURVE SMOOTH",
"1414 1168 LINE SMOOTH",
"1462 1206 OFFCURVE",
"1468 1252 OFFCURVE",
"1426 1294 CURVE SMOOTH",
"1280 1438 OFFCURVE",
"1084 1518 OFFCURVE",
"878 1518 CURVE SMOOTH",
"430 1518 OFFCURVE",
"100 1170 OFFCURVE",
"100 740 CURVE SMOOTH",
"100 312 OFFCURVE",
"430 -36 OFFCURVE",
"878 -36 CURVE SMOOTH"
);
}
);
width = 1574;
}
);
leftKerningGroup = O;
leftMetricsKey = O;
unicode = 0043;
},
{
glyphname = D;
lastChange = "2020-09-28 21:33:26 +0000";
layers = (
{
anchors = (
{
name = bottom;
position = "{788, 0}";
},
{
name = center;
position = "{788, 740}";
},
{
name = top;
position = "{788, 1480}";
}
);
layerId = "9B85AB65-32D7-4FED-B27C-3C7447013A9D";
paths = (
{
closed = 1;
nodes = (
"740 0 LINE SMOOTH",
"1146 0 OFFCURVE",
"1474 338 OFFCURVE",
"1474 740 CURVE SMOOTH",
"1474 1132 OFFCURVE",
"1162 1480 OFFCURVE",
"742 1480 CURVE SMOOTH",
"250 1480 LINE SMOOTH",
"192 1480 OFFCURVE",
"160 1448 OFFCURVE",
"160 1390 CURVE SMOOTH",
"160 90 LINE SMOOTH",
"160 32 OFFCURVE",
"192 0 OFFCURVE",
"250 0 CURVE SMOOTH"
);
},
{
closed = 1;
nodes = (
"558 1102 LINE",
"742 1102 LINE SMOOTH",
"920 1102 OFFCURVE",
"1054 932 OFFCURVE",
"1054 740 CURVE SMOOTH",
"1054 548 OFFCURVE",
"918 378 OFFCURVE",
"740 378 CURVE SMOOTH",
"558 378 LINE"
);
}
);
width = 1574;
}
);
rightKerningGroup = O;
rightMetricsKey = O;
unicode = 0044;
},
{
glyphname = E;
lastChange = "2020-09-28 21:32:45 +0000";
layers = (
{
anchors = (
{
name = bottom;
position = "{710, 0}";
},
{
name = ogonek;
position = "{1144, 96}";
},
{
name = top;
position = "{710, 1480}";
},
{
name = topleft;
position = "{90, 1480}";
}
);
background = {
paths = (
{
closed = 1;
nodes = (
"1128 378 LINE",
"468 378 LINE",
"468 566 LINE",
"978 566 LINE",
"978 916 LINE",
"468 916 LINE",
"468 1102 LINE",
"1128 1102 LINE",
"1128 1480 LINE",
"90 1480 LINE",
"90 0 LINE",
"1128 0 LINE"
);
}
);
};
layerId = "9B85AB65-32D7-4FED-B27C-3C7447013A9D";
paths = (
{
closed = 1;
nodes = (
"1138 0 LINE SMOOTH",
"1196 0 OFFCURVE",
"1228 32 OFFCURVE",
"1228 90 CURVE SMOOTH",
"1228 288 LINE SMOOTH",
"1228 346 OFFCURVE",
"1196 378 OFFCURVE",
"1138 378 CURVE SMOOTH",
"588 378 LINE",
"588 566 LINE",
"988 566 LINE SMOOTH",
"1046 566 OFFCURVE",
"1078 598 OFFCURVE",
"1078 656 CURVE SMOOTH",
"1078 826 LINE SMOOTH",
"1078 884 OFFCURVE",
"1046 916 OFFCURVE",
"988 916 CURVE SMOOTH",
"588 916 LINE",
"588 1102 LINE",
"1138 1102 LINE SMOOTH",
"1196 1102 OFFCURVE",
"1228 1134 OFFCURVE",
"1228 1192 CURVE SMOOTH",
"1228 1390 LINE SMOOTH",
"1228 1448 OFFCURVE",
"1196 1480 OFFCURVE",
"1138 1480 CURVE SMOOTH",
"260 1480 LINE SMOOTH",
"202 1480 OFFCURVE",
"170 1448 OFFCURVE",
"170 1390 CURVE SMOOTH",
"170 90 LINE SMOOTH",
"170 32 OFFCURVE",
"202 0 OFFCURVE",
"260 0 CURVE SMOOTH"
);
}
);
width = 1358;
}
);
leftKerningGroup = H;
leftMetricsKey = H;
unicode = 0045;
},
{
glyphname = F;
lastChange = "2020-09-28 20:42:28 +0000";
layers = (
{
anchors = (
{
name = bottom;
position = "{656, 0}";
},
{
name = top;
position = "{656, 1480}";
}
);
layerId = "9B85AB65-32D7-4FED-B27C-3C7447013A9D";
paths = (
{
closed = 1;
nodes = (
"488 0 LINE SMOOTH",
"546 0 OFFCURVE",
"578 32 OFFCURVE",
"578 90 CURVE SMOOTH",
"578 566 LINE",
"950 566 LINE SMOOTH",
"1008 566 OFFCURVE",
"1040 598 OFFCURVE",
"1040 656 CURVE SMOOTH",
"1040 826 LINE SMOOTH",
"1040 884 OFFCURVE",
"1008 916 OFFCURVE",
"950 916 CURVE SMOOTH",
"578 916 LINE",
"578 1102 LINE",
"1100 1102 LINE SMOOTH",
"1158 1102 OFFCURVE",
"1190 1134 OFFCURVE",
"1190 1192 CURVE SMOOTH",
"1190 1390 LINE SMOOTH",
"1190 1448 OFFCURVE",
"1158 1480 OFFCURVE",
"1100 1480 CURVE SMOOTH",
"270 1480 LINE SMOOTH",
"212 1480 OFFCURVE",
"180 1448 OFFCURVE",
"180 1390 CURVE SMOOTH",
"180 90 LINE SMOOTH",
"180 32 OFFCURVE",
"212 0 OFFCURVE",
"270 0 CURVE SMOOTH"
);
}
);
width = 1310;
}
);
unicode = 0046;
},
{
glyphname = G;
lastChange = "2020-09-28 21:33:31 +0000";
layers = (
{
anchors = (
{
name = bottom;
position = "{872, 0}";
},
{
name = top;
position = "{872, 1480}";
}
);
layerId = "9B85AB65-32D7-4FED-B27C-3C7447013A9D";
paths = (
{
closed = 1;
nodes = (
"1198 -34 OFFCURVE",
"1432 92 OFFCURVE",
"1558 286 CURVE SMOOTH",
"1576 314 OFFCURVE",
"1582 342 OFFCURVE",
"1582 386 CURVE SMOOTH",
"1582 748 LINE SMOOTH",
"1582 806 OFFCURVE",
"1550 838 OFFCURVE",
"1492 838 CURVE SMOOTH",
"938 838 LINE SMOOTH",
"880 838 OFFCURVE",
"848 806 OFFCURVE",
"848 748 CURVE SMOOTH",
"848 624 LINE SMOOTH",
"848 566 OFFCURVE",
"880 534 OFFCURVE",
"938 534 CURVE SMOOTH",
"1184 534 LINE",
"1184 438 LINE",
"1154 402 OFFCURVE",
"1066 328 OFFCURVE",
"896 328 CURVE SMOOTH",
"676 328 OFFCURVE",
"518 522 OFFCURVE",
"518 740 CURVE SMOOTH",
"518 960 OFFCURVE",
"676 1138 OFFCURVE",
"896 1138 CURVE SMOOTH",
"1028 1138 OFFCURVE",
"1076 1086 OFFCURVE",
"1146 1028 CURVE SMOOTH",
"1190 992 OFFCURVE",
"1230 984 OFFCURVE",
"1272 1022 CURVE SMOOTH",
"1434 1166 LINE SMOOTH",
"1478 1206 OFFCURVE",
"1486 1250 OFFCURVE",
"1444 1294 CURVE SMOOTH",
"1300 1436 OFFCURVE",
"1102 1516 OFFCURVE",
"896 1516 CURVE SMOOTH",
"448 1516 OFFCURVE",
"100 1168 OFFCURVE",
"100 740 CURVE SMOOTH",
"100 314 OFFCURVE",
"448 -34 OFFCURVE",
"896 -34 CURVE SMOOTH"
);
}
);
width = 1722;
}
);
leftKerningGroup = O;
leftMetricsKey = O;
unicode = 0047;
},
{
glyphname = H;
lastChange = "2020-09-28 21:29:41 +0000";
layers = (
{
anchors = (
{
name = bottom;
position = "{784, 0}";
},
{
name = center;
position = "{784, 740}";
},
{
name = top;
position = "{784, 1480}";
},
{
name = topleft;
position = "{50, 1480}";
}
);
layerId = "9B85AB65-32D7-4FED-B27C-3C7447013A9D";
paths = (
{
closed = 1;
nodes = (
"478 0 LINE SMOOTH",
"536 0 OFFCURVE",
"568 32 OFFCURVE",
"568 90 CURVE SMOOTH",
"568 550 LINE",
"978 550 LINE",
"978 90 LINE SMOOTH",
"978 32 OFFCURVE",
"1010 0 OFFCURVE",
"1068 0 CURVE SMOOTH",
"1286 0 LINE SMOOTH",
"1344 0 OFFCURVE",
"1376 32 OFFCURVE",
"1376 90 CURVE SMOOTH",
"1376 1390 LINE SMOOTH",
"1376 1448 OFFCURVE",
"1344 1480 OFFCURVE",
"1286 1480 CURVE SMOOTH",
"1068 1480 LINE SMOOTH",
"1010 1480 OFFCURVE",
"978 1448 OFFCURVE",
"978 1390 CURVE SMOOTH",
"978 930 LINE",
"568 930 LINE",
"568 1390 LINE SMOOTH",
"568 1448 OFFCURVE",
"536 1480 OFFCURVE",
"478 1480 CURVE SMOOTH",
"260 1480 LINE SMOOTH",
"202 1480 OFFCURVE",
"170 1448 OFFCURVE",
"170 1390 CURVE SMOOTH",
"170 90 LINE SMOOTH",
"170 32 OFFCURVE",
"202 0 OFFCURVE",
"260 0 CURVE SMOOTH"
);
}
);
width = 1546;
}
);
unicode = 0048;
},
{
glyphname = Hbar;
lastChange = "2020-09-28 21:08:43 +0000";
layers = (
{
components = (
{
name = H;
}
);
layerId = "9B85AB65-32D7-4FED-B27C-3C7447013A9D";
paths = (
{
closed = 1;
nodes = (
"1377 1065 LINE SMOOTH",
"1455 1065 OFFCURVE",
"1494 1104 OFFCURVE",
"1494 1182 CURVE SMOOTH",
"1494 1260 OFFCURVE",
"1455 1299 OFFCURVE",
"1377 1299 CURVE SMOOTH",
"137 1299 LINE SMOOTH",
"60 1299 OFFCURVE",
"21 1260 OFFCURVE",
"21 1182 CURVE SMOOTH",
"21 1104 OFFCURVE",
"60 1065 OFFCURVE",
"137 1065 CURVE SMOOTH"
);
}
);
width = 1546;
}
);
unicode = 0126;
},
{
glyphname = I;
lastChange = "2020-10-01 17:14:49 +0000";
layers = (
{
anchors = (
{
name = bottom;
position = "{360, 0}";
},
{
name = ogonek;
position = "{473, 88}";
},
{
name = top;
position = "{360, 1480}";
},
{
name = topleft;
position = "{40, 1480}";
}
);
layerId = "9B85AB65-32D7-4FED-B27C-3C7447013A9D";
paths = (
{
closed = 1;
nodes = (
"468 0 LINE SMOOTH",
"526 0 OFFCURVE",
"558 32 OFFCURVE",
"558 90 CURVE SMOOTH",
"558 1390 LINE SMOOTH",
"558 1448 OFFCURVE",
"526 1480 OFFCURVE",
"468 1480 CURVE SMOOTH",
"250 1480 LINE SMOOTH",
"192 1480 OFFCURVE",
"160 1448 OFFCURVE",
"160 1390 CURVE SMOOTH",
"160 90 LINE SMOOTH",
"160 32 OFFCURVE",
"192 0 OFFCURVE",
"250 0 CURVE SMOOTH"
);
}
);
width = 718;
}
);
unicode = 0049;
},
{
glyphname = J;
lastChange = "2020-09-28 20:42:33 +0000";
layers = (
{
anchors = (
{
name = bottom;
position = "{722, 0}";
},
{
name = top;
position = "{722, 1480}";
}
);
layerId = "9B85AB65-32D7-4FED-B27C-3C7447013A9D";
paths = (
{
closed = 1;
nodes = (
"1134 -38 OFFCURVE",
"1282 298 OFFCURVE",
"1282 550 CURVE SMOOTH",
"1282 1388 LINE SMOOTH",
"1282 1446 OFFCURVE",
"1250 1478 OFFCURVE",
"1192 1478 CURVE SMOOTH",
"972 1478 LINE SMOOTH",
"914 1478 OFFCURVE",
"882 1446 OFFCURVE",
"882 1388 CURVE SMOOTH",
"882 596 LINE SMOOTH",
"882 372 OFFCURVE",
"786 342 OFFCURVE",
"690 342 CURVE SMOOTH",
"610 342 OFFCURVE",
"554 422 OFFCURVE",
"516 480 CURVE SMOOTH",
"484 528 OFFCURVE",
"451 545 OFFCURVE",
"402 512 CURVE SMOOTH",
"230 394 LINE SMOOTH",
"182 361 OFFCURVE",
"166 322 OFFCURVE",
"194 272 CURVE SMOOTH",
"222 222 OFFCURVE",
"264 160 OFFCURVE",
"314 110 CURVE SMOOTH",
"410 14 OFFCURVE",
"540 -38 OFFCURVE",
"690 -38 CURVE SMOOTH"
);
}
);
width = 1442;
}
);
unicode = 004A;
},
{
glyphname = K;
lastChange = "2020-09-28 21:32:55 +0000";
layers = (
{
anchors = (
{
name = bottom;
position = "{740, 0}";
},
{
name = top;
position = "{740, 1480}";
}
);
layerId = "9B85AB65-32D7-4FED-B27C-3C7447013A9D";
paths = (
{
closed = 1;
nodes = (
"478 0 LINE SMOOTH",
"536 0 OFFCURVE",
"568 32 OFFCURVE",
"568 90 CURVE SMOOTH",
"568 494 LINE",
"908 52 LINE SMOOTH",
"938 14 OFFCURVE",
"972 0 OFFCURVE",
"1018 0 CURVE SMOOTH",
"1274 0 LINE SMOOTH",
"1352 0 OFFCURVE",
"1373 49 OFFCURVE",
"1324 110 CURVE SMOOTH",
"808 754 LINE",
"1316 1368 LINE SMOOTH",
"1364 1428 OFFCURVE",
"1342 1478 OFFCURVE",
"1264 1478 CURVE SMOOTH",
"1026 1478 LINE SMOOTH",
"980 1478 OFFCURVE",
"946 1466 OFFCURVE",
"916 1428 CURVE SMOOTH",
"568 986 LINE",
"568 1390 LINE SMOOTH",
"568 1448 OFFCURVE",
"536 1480 OFFCURVE",
"478 1480 CURVE SMOOTH",
"260 1480 LINE SMOOTH",
"202 1480 OFFCURVE",
"170 1448 OFFCURVE",
"170 1390 CURVE SMOOTH",
"170 90 LINE SMOOTH",
"170 32 OFFCURVE",
"202 0 OFFCURVE",
"260 0 CURVE SMOOTH"
);
}
);
width = 1470;
}
);
leftKerningGroup = H;
leftMetricsKey = H;
unicode = 004B;
},
{
glyphname = L;
lastChange = "2020-09-28 20:42:28 +0000";
layers = (
{
anchors = (
{
name = bottom;
position = "{660, 0}";
},
{
name = center;
position = "{660, 740}";
},
{
name = top;
position = "{660, 1480}";
},
{
name = topright;
position = "{1278, 1480}";
}
);
layerId = "9B85AB65-32D7-4FED-B27C-3C7447013A9D";
paths = (
{
closed = 1;
nodes = (
"1088 0 LINE SMOOTH",
"1146 0 OFFCURVE",
"1178 32 OFFCURVE",
"1178 90 CURVE SMOOTH",
"1178 288 LINE SMOOTH",
"1178 346 OFFCURVE",
"1146 378 OFFCURVE",
"1088 378 CURVE SMOOTH",
"578 378 LINE",
"578 1390 LINE SMOOTH",
"578 1448 OFFCURVE",
"546 1480 OFFCURVE",
"488 1480 CURVE SMOOTH",
"270 1480 LINE SMOOTH",
"212 1480 OFFCURVE",
"180 1448 OFFCURVE",
"180 1390 CURVE SMOOTH",
"180 90 LINE SMOOTH",
"180 32 OFFCURVE",
"212 0 OFFCURVE",
"270 0 CURVE SMOOTH"
);
}
);
width = 1318;
}
);
unicode = 004C;
},
{
glyphname = Ldot;
lastChange = "2020-09-28 21:02:32 +0000";
layers = (
{
components = (
{
name = L;
}
);
layerId = "9B85AB65-32D7-4FED-B27C-3C7447013A9D";
paths = (
{
closed = 1;
nodes = (
"1030 718 OFFCURVE",
"1112 800 OFFCURVE",
"1112 900 CURVE SMOOTH",
"1112 1000 OFFCURVE",
"1030 1082 OFFCURVE",
"930 1082 CURVE SMOOTH",
"832 1082 OFFCURVE",
"750 1000 OFFCURVE",
"750 900 CURVE SMOOTH",
"750 800 OFFCURVE",
"832 718 OFFCURVE",
"930 718 CURVE SMOOTH"
);
}
);
width = 1292;
}
);
unicode = 013F;
},
{
glyphname = Lslash;
lastChange = "2020-09-28 21:02:41 +0000";
layers = (
{
components = (
{
name = L;
}
);
layerId = "9B85AB65-32D7-4FED-B27C-3C7447013A9D";
paths = (
{
closed = 1;
nodes = (
"78 334 OFFCURVE",
"122 332 OFFCURVE",
"164 376 CURVE SMOOTH",
"758 972 LINE SMOOTH",
"800 1016 OFFCURVE",
"802 1056 OFFCURVE",
"758 1098 CURVE SMOOTH",
"744 1112 LINE SMOOTH",
"702 1156 OFFCURVE",
"660 1156 OFFCURVE",
"616 1112 CURVE SMOOTH",
"22 518 LINE SMOOTH",
"-20 476 OFFCURVE",
"-20 432 OFFCURVE",
"22 390 CURVE SMOOTH",
"36 376 LINE SMOOTH"
);
}
);
width = 1342;
}
);
unicode = 0141;
},
{
glyphname = M;
lastChange = "2020-09-28 21:33:01 +0000";
layers = (
{
anchors = (
{
name = bottom;
position = "{940, 0}";
},
{
name = top;
position = "{940, 1480}";
}
);
layerId = "9B85AB65-32D7-4FED-B27C-3C7447013A9D";
paths = (
{
closed = 1;
nodes = (
"474 0 LINE SMOOTH",
"532 0 OFFCURVE",
"564 32 OFFCURVE",
"564 90 CURVE SMOOTH",
"564 704 LINE",
"804 70 LINE SMOOTH",
"822 22 OFFCURVE",
"858 0 OFFCURVE",
"910 0 CURVE SMOOTH",
"968 0 LINE SMOOTH",
"1020 0 OFFCURVE",
"1056 22 OFFCURVE",
"1074 70 CURVE SMOOTH",
"1314 706 LINE",
"1314 90 LINE SMOOTH",
"1314 32 OFFCURVE",
"1346 0 OFFCURVE",
"1404 0 CURVE SMOOTH",
"1618 0 LINE SMOOTH",
"1676 0 OFFCURVE",
"1708 32 OFFCURVE",
"1708 90 CURVE SMOOTH",
"1708 1390 LINE SMOOTH",
"1708 1448 OFFCURVE",
"1676 1480 OFFCURVE",
"1618 1480 CURVE SMOOTH",
"1370 1480 LINE SMOOTH",
"1320 1480 OFFCURVE",
"1284 1460 OFFCURVE",
"1264 1412 CURVE SMOOTH",
"938 622 LINE",
"614 1412 LINE SMOOTH",
"594 1460 OFFCURVE",
"558 1480 OFFCURVE",
"508 1480 CURVE SMOOTH",
"260 1480 LINE SMOOTH",
"202 1480 OFFCURVE",
"170 1448 OFFCURVE",
"170 1390 CURVE SMOOTH",
"170 90 LINE SMOOTH",
"170 32 OFFCURVE",
"202 0 OFFCURVE",
"260 0 CURVE SMOOTH"
);
}
);
width = 1878;
}
);
leftKerningGroup = H;
leftMetricsKey = H;
rightKerningGroup = H;
rightMetricsKey = H;
unicode = 004D;
},
{
glyphname = N;
lastChange = "2020-09-28 21:33:06 +0000";
layers = (
{
anchors = (
{
name = bottom;
position = "{806, 0}";
},
{
name = top;
position = "{806, 1480}";
}
);
layerId = "9B85AB65-32D7-4FED-B27C-3C7447013A9D";
paths = (
{
closed = 1;
nodes = (
"478 0 LINE SMOOTH",
"536 0 OFFCURVE",
"568 32 OFFCURVE",
"568 90 CURVE SMOOTH",
"568 774 LINE",
"1030 58 LINE SMOOTH",
"1057 16 OFFCURVE",
"1090 0 OFFCURVE",
"1140 0 CURVE SMOOTH",
"1332 0 LINE SMOOTH",
"1390 0 OFFCURVE",
"1422 32 OFFCURVE",
"1422 90 CURVE SMOOTH",
"1422 1390 LINE SMOOTH",
"1422 1448 OFFCURVE",
"1390 1480 OFFCURVE",
"1332 1480 CURVE SMOOTH",
"1114 1480 LINE SMOOTH",
"1056 1480 OFFCURVE",
"1024 1448 OFFCURVE",
"1024 1390 CURVE SMOOTH",
"1024 772 LINE",
"602 1422 LINE SMOOTH",
"576 1462 OFFCURVE",
"542 1480 OFFCURVE",
"492 1480 CURVE SMOOTH",
"260 1480 LINE SMOOTH",
"202 1480 OFFCURVE",
"170 1448 OFFCURVE",
"170 1390 CURVE SMOOTH",
"170 90 LINE SMOOTH",
"170 32 OFFCURVE",
"202 0 OFFCURVE",
"260 0 CURVE SMOOTH"
);
}
);
width = 1592;
}
);
leftKerningGroup = H;
leftMetricsKey = H;
rightKerningGroup = H;
rightMetricsKey = H;
unicode = 004E;
},
{
glyphname = Eng;
lastChange = "2020-10-01 17:10:05 +0000";
layers = (
{
components = (
{
name = N;
}
);
layerId = "9B85AB65-32D7-4FED-B27C-3C7447013A9D";
paths = (
{
closed = 1;
nodes = (
"1281 -398 OFFCURVE",
"1422 -186 OFFCURVE",
"1422 90 CURVE",
"1004 96 LINE",
"1027 64 OFFCURVE",
"1058 -6 OFFCURVE",
"1058 -53 CURVE SMOOTH",
"1058 -84 OFFCURVE",
"1042 -106 OFFCURVE",
"1015 -106 CURVE SMOOTH",
"984 -106 OFFCURVE",
"951 -67 OFFCURVE",
"908 0 CURVE SMOOTH",
"891 27 OFFCURVE",
"867 43 OFFCURVE",
"839 43 CURVE SMOOTH",
"822 43 OFFCURVE",
"804 37 OFFCURVE",
"784 24 CURVE SMOOTH",
"698 -33 LINE SMOOTH",
"673 -49 OFFCURVE",
"657 -76 OFFCURVE",
"657 -106 CURVE SMOOTH",
"657 -246 OFFCURVE",
"855 -398 OFFCURVE",
"1016 -398 CURVE SMOOTH"
);
}
);
width = 1592;
}
);
leftKerningGroup = H;
leftMetricsKey = N;
rightKerningGroup = H;
rightMetricsKey = N;
unicode = 014A;
},
{
glyphname = Ntilde;
lastChange = "2020-09-28 20:42:36 +0000";
layers = (
{
layerId = "9B85AB65-32D7-4FED-B27C-3C7447013A9D";
paths = (
{
closed = 1;
nodes = (
"368 0 LINE SMOOTH",
"428 0 OFFCURVE",
"458 30 OFFCURVE",
"458 90 CURVE SMOOTH",
"458 734 LINE",
"920 58 LINE SMOOTH",
"946 20 OFFCURVE",
"984 0 OFFCURVE",
"1030 0 CURVE SMOOTH",
"1202 0 LINE SMOOTH",
"1262 0 OFFCURVE",
"1292 30 OFFCURVE",
"1292 90 CURVE SMOOTH",
"1292 1390 LINE SMOOTH",
"1292 1450 OFFCURVE",
"1262 1480 OFFCURVE",
"1202 1480 CURVE SMOOTH",
"1004 1480 LINE SMOOTH",
"944 1480 OFFCURVE",
"914 1450 OFFCURVE",
"914 1390 CURVE SMOOTH",
"914 752 LINE",
"452 1422 LINE SMOOTH",
"426 1460 OFFCURVE",
"388 1480 OFFCURVE",
"342 1480 CURVE SMOOTH",
"170 1480 LINE SMOOTH",
"110 1480 OFFCURVE",
"80 1450 OFFCURVE",
"80 1390 CURVE SMOOTH",
"80 90 LINE SMOOTH",
"80 30 OFFCURVE",
"110 0 OFFCURVE",
"170 0 CURVE SMOOTH"
);
},
{
closed = 1;
nodes = (
"936 1600 OFFCURVE",
"1004 1648 OFFCURVE",
"1050 1738 CURVE",
"1064 1770 OFFCURVE",
"1076 1814 OFFCURVE",
"1034 1838 CURVE SMOOTH",
"994 1860 OFFCURVE",
"962 1830 OFFCURVE",
"930 1800 CURVE SMOOTH",
"896 1768 OFFCURVE",
"856 1734 OFFCURVE",
"798 1748 CURVE",
"758 1762 OFFCURVE",
"738 1770 OFFCURVE",
"700 1796 CURVE SMOOTH",
"620 1852 OFFCURVE",
"532 1878 OFFCURVE",
"454 1868 CURVE SMOOTH",
"374 1858 OFFCURVE",
"304 1812 OFFCURVE",
"262 1724 CURVE SMOOTH",
"246 1692 OFFCURVE",
"234 1646 OFFCURVE",
"276 1622 CURVE SMOOTH",
"316 1600 OFFCURVE",
"346 1630 OFFCURVE",
"380 1662 CURVE SMOOTH",
"414 1692 OFFCURVE",
"454 1726 OFFCURVE",
"512 1712 CURVE SMOOTH",
"552 1702 OFFCURVE",
"574 1690 OFFCURVE",
"612 1664 CURVE SMOOTH",
"690 1608 OFFCURVE",
"778 1582 OFFCURVE",
"858 1592 CURVE SMOOTH"
);
}
);
width = 1554;
}
);
unicode = 00D1;
},
{
glyphname = O;
lastChange = "2020-10-01 17:07:50 +0000";
layers = (
{
anchors = (
{
name = bottom;
position = "{898, 0}";
},
{
name = center;
position = "{898, 740}";
},
{
name = ogonek;
position = "{1244, 147}";
},
{
name = top;
position = "{898, 1480}";
},
{
name = topleft;
position = "{40, 1480}";
},
{
name = topright;
position = "{1249, 1430}";
}
);
layerId = "9B85AB65-32D7-4FED-B27C-3C7447013A9D";
paths = (
{
closed = 1;
nodes = (
"1346 -36 OFFCURVE",
"1696 312 OFFCURVE",
"1696 740 CURVE SMOOTH",
"1696 1170 OFFCURVE",
"1346 1518 OFFCURVE",
"898 1518 CURVE SMOOTH",
"448 1518 OFFCURVE",
"100 1170 OFFCURVE",
"100 740 CURVE SMOOTH",
"100 312 OFFCURVE",
"448 -36 OFFCURVE",
"898 -36 CURVE SMOOTH"
);
},
{
closed = 1;
nodes = (
"678 342 OFFCURVE",
"518 520 OFFCURVE",
"518 740 CURVE SMOOTH",
"518 960 OFFCURVE",
"678 1140 OFFCURVE",
"898 1140 CURVE SMOOTH",
"1118 1140 OFFCURVE",
"1276 960 OFFCURVE",
"1276 740 CURVE SMOOTH",
"1276 520 OFFCURVE",
"1118 342 OFFCURVE",
"898 342 CURVE SMOOTH"
);
}
);
width = 1796;
}
);
unicode = 004F;
},
{
glyphname = Oslash;
lastChange = "2020-09-28 21:00:44 +0000";
layers = (
{
anchors = (
{
name = bottom;
position = "{898, 0}";
},
{
name = top;
position = "{898, 1480}";
}
);
components = (
{
name = O;
}
);
layerId = "9B85AB65-32D7-4FED-B27C-3C7447013A9D";
paths = (
{
closed = 1;
nodes = (
"688 -145 LINE SMOOTH",
"742 -145 OFFCURVE",
"772 -119 OFFCURVE",
"788 -69 CURVE SMOOTH",
"1322 1517 LINE SMOOTH",
"1342 1579 OFFCURVE",
"1312 1619 OFFCURVE",
"1246 1619 CURVE SMOOTH",
"1098 1619 LINE SMOOTH",
"1044 1619 OFFCURVE",
"1015 1593 OFFCURVE",
"998 1543 CURVE SMOOTH",
"464 -43 LINE SMOOTH",
"443 -105 OFFCURVE",
"474 -145 OFFCURVE",
"540 -145 CURVE SMOOTH"
);
}
);
width = 1796;
}
);
unicode = 00D8;
},
{
glyphname = OE;
lastChange = "2020-09-28 20:58:43 +0000";
layers = (
{
anchors = (
{
name = bottom;
position = "{1210, 0}";
},
{
name = top;
position = "{1210, 1480}";
}
);
layerId = "9B85AB65-32D7-4FED-B27C-3C7447013A9D";
paths = (
{
closed = 1;
nodes = (
"1282 -36 OFFCURVE",
"1636 308 OFFCURVE",
"1636 740 CURVE SMOOTH",
"1636 1170 OFFCURVE",
"1287 1518 OFFCURVE",
"858 1518 CURVE SMOOTH",
"428 1518 OFFCURVE",
"80 1170 OFFCURVE",
"80 740 CURVE SMOOTH",
"80 310 OFFCURVE",
"431 -36 OFFCURVE",
"858 -36 CURVE SMOOTH"
);
},
{
closed = 1;
nodes = (
"637 342 OFFCURVE",
"458 521 OFFCURVE",
"458 740 CURVE SMOOTH",
"458 959 OFFCURVE",
"639 1140 OFFCURVE",
"858 1140 CURVE SMOOTH",
"1074 1140 OFFCURVE",
"1256 964 OFFCURVE",
"1256 740 CURVE SMOOTH",
"1256 519 OFFCURVE",
"1079 342 OFFCURVE",
"858 342 CURVE SMOOTH"
);
},
{
closed = 1;
nodes = (
"2204 0 LINE SMOOTH",
"2264 0 OFFCURVE",
"2294 30 OFFCURVE",
"2294 90 CURVE SMOOTH",
"2294 288 LINE SMOOTH",
"2294 348 OFFCURVE",
"2264 378 OFFCURVE",
"2204 378 CURVE SMOOTH",
"1634 378 LINE",
"1634 566 LINE",
"2054 566 LINE SMOOTH",
"2114 566 OFFCURVE",
"2144 596 OFFCURVE",
"2144 656 CURVE SMOOTH",
"2144 826 LINE SMOOTH",
"2144 886 OFFCURVE",
"2114 916 OFFCURVE",
"2054 916 CURVE SMOOTH",
"1634 916 LINE",
"1634 1102 LINE",
"2204 1102 LINE SMOOTH",
"2264 1102 OFFCURVE",
"2294 1132 OFFCURVE",
"2294 1192 CURVE SMOOTH",
"2294 1390 LINE SMOOTH",
"2294 1450 OFFCURVE",
"2264 1480 OFFCURVE",
"2204 1480 CURVE SMOOTH",
"1346 1480 LINE SMOOTH",
"1286 1480 OFFCURVE",
"1256 1450 OFFCURVE",
"1256 1390 CURVE SMOOTH",
"1256 90 LINE SMOOTH",
"1256 30 OFFCURVE",
"1286 0 OFFCURVE",
"1346 0 CURVE SMOOTH"
);
}
);
width = 2420;
}
);
unicode = 0152;
},
{
glyphname = P;
lastChange = "2020-09-28 21:33:11 +0000";
layers = (
{
anchors = (
{
name = bottom;
position = "{732, 0}";
},
{
name = top;
position = "{732, 1480}";
}
);
layerId = "9B85AB65-32D7-4FED-B27C-3C7447013A9D";
paths = (
{
closed = 1;
nodes = (
"478 0 LINE SMOOTH",
"536 0 OFFCURVE",
"568 32 OFFCURVE",
"568 90 CURVE SMOOTH",
"568 424 LINE",
"834 424 LINE SMOOTH",
"1134 424 OFFCURVE",
"1334 664 OFFCURVE",
"1334 954 CURVE SMOOTH",
"1334 1236 OFFCURVE",
"1162 1480 OFFCURVE",
"868 1480 CURVE SMOOTH",
"260 1480 LINE SMOOTH",
"202 1480 OFFCURVE",
"170 1448 OFFCURVE",
"170 1390 CURVE SMOOTH",
"170 90 LINE SMOOTH",
"170 32 OFFCURVE",
"202 0 OFFCURVE",
"260 0 CURVE SMOOTH"
);
},
{
closed = 1;
nodes = (
"568 1142 LINE",
"808 1142 LINE SMOOTH",
"908 1142 OFFCURVE",
"970 1068 OFFCURVE",
"970 960 CURVE SMOOTH",
"970 842 OFFCURVE",
"908 774 OFFCURVE",
"808 774 CURVE SMOOTH",
"568 774 LINE"
);
}
);
width = 1454;
}
);
leftKerningGroup = H;
leftMetricsKey = H;
unicode = 0050;
},
{
glyphname = Thorn;
lastChange = "2020-09-28 20:42:33 +0000";
layers = (
{
components = (
{
name = I;
}
);
layerId = "9B85AB65-32D7-4FED-B27C-3C7447013A9D";
paths = (
{
closed = 1;
nodes = (
"832 272 LINE SMOOTH",
"1114 272 OFFCURVE",
"1352 473 OFFCURVE",
"1352 760 CURVE SMOOTH",
"1352 1041 OFFCURVE",
"1116 1248 OFFCURVE",
"832 1248 CURVE SMOOTH",
"338 1248 LINE SMOOTH",
"296 1248 OFFCURVE",
"274 1226 OFFCURVE",
"274 1184 CURVE SMOOTH",
"274 982 LINE SMOOTH",
"274 938 OFFCURVE",
"296 918 OFFCURVE",
"338 918 CURVE SMOOTH",
"810 918 LINE SMOOTH",
"964 918 OFFCURVE",
"1000 818 OFFCURVE",
"1000 760 CURVE SMOOTH",
"1000 698 OFFCURVE",
"964 600 OFFCURVE",
"810 600 CURVE SMOOTH",
"338 600 LINE SMOOTH",
"296 600 OFFCURVE",
"274 580 OFFCURVE",
"274 536 CURVE SMOOTH",
"274 336 LINE SMOOTH",
"274 294 OFFCURVE",
"296 272 OFFCURVE",
"338 272 CURVE SMOOTH"
);
}
);
width = 1512;
}
);
unicode = 00DE;
},
{
glyphname = Q;
lastChange = "2020-09-28 21:03:35 +0000";
layers = (
{
anchors = (
{
name = bottom;
position = "{918, 0}";
},
{
name = top;
position = "{918, 1480}";
}
);
components = (
{
name = O;
}
);
layerId = "9B85AB65-32D7-4FED-B27C-3C7447013A9D";
paths = (
{
closed = 1;
nodes = (
"1476 -162 OFFCURVE",
"1526 -162 OFFCURVE",
"1572 -114 CURVE SMOOTH",
"1648 -38 LINE SMOOTH",
"1696 8 OFFCURVE",
"1696 58 OFFCURVE",
"1648 104 CURVE SMOOTH",
"1104 648 LINE SMOOTH",
"1058 694 OFFCURVE",
"1010 694 OFFCURVE",
"964 648 CURVE SMOOTH",
"886 570 LINE SMOOTH",
"840 524 OFFCURVE",
"840 476 OFFCURVE",
"886 430 CURVE SMOOTH",
"1430 -114 LINE SMOOTH"
);
}
);
width = 1796;
}
);
unicode = 0051;
},
{
glyphname = R;
lastChange = "2020-09-28 21:33:16 +0000";
layers = (
{
anchors = (
{
name = bottom;
position = "{742, 0}";
},
{
name = top;
position = "{742, 1480}";
}
);
layerId = "9B85AB65-32D7-4FED-B27C-3C7447013A9D";
paths = (
{
closed = 1;
nodes = (
"478 0 LINE SMOOTH",
"536 0 OFFCURVE",
"568 32 OFFCURVE",
"568 90 CURVE SMOOTH",
"568 548 LINE",
"682 548 LINE",
"946 70 LINE SMOOTH",
"972 24 OFFCURVE",
"998 0 OFFCURVE",
"1050 0 CURVE SMOOTH",
"1284 0 LINE SMOOTH",
"1352 0 OFFCURVE",
"1390 46 OFFCURVE",
"1354 104 CURVE SMOOTH",
"1060 570 LINE",
"1216 622 OFFCURVE",
"1354 818 OFFCURVE",
"1354 1006 CURVE SMOOTH",
"1354 1288 OFFCURVE",
"1162 1480 OFFCURVE",
"868 1480 CURVE SMOOTH",
"260 1480 LINE SMOOTH",
"202 1480 OFFCURVE",
"170 1448 OFFCURVE",
"170 1390 CURVE SMOOTH",
"170 90 LINE SMOOTH",
"170 32 OFFCURVE",
"202 0 OFFCURVE",
"260 0 CURVE SMOOTH"
);
},
{
closed = 1;
nodes = (
"568 1142 LINE",
"828 1142 LINE SMOOTH",
"908 1142 OFFCURVE",
"948 1080 OFFCURVE",
"948 1010 CURVE SMOOTH",
"948 932 OFFCURVE",
"908 874 OFFCURVE",
"828 874 CURVE SMOOTH",
"568 874 LINE"
);
}
);
width = 1474;
}
);
leftKerningGroup = H;
leftMetricsKey = H;
unicode = 0052;
},
{
glyphname = S;
lastChange = "2020-09-28 21:32:21 +0000";
layers = (
{
anchors = (
{
name = bottom;
position = "{739, 0}";
},
{
name = top;
position = "{739, 1480}";
}
);
layerId = "9B85AB65-32D7-4FED-B27C-3C7447013A9D";
paths = (
{
closed = 1;
nodes = (
"1067 -40 OFFCURVE",
"1359 117 OFFCURVE",
"1359 437 CURVE SMOOTH",
"1359 749 OFFCURVE",
"1093 840 OFFCURVE",
"801 916 CURVE SMOOTH",
"691 945 OFFCURVE",
"523 1004 OFFCURVE",
"523 1064 CURVE SMOOTH",
"523 1136 OFFCURVE",
"619 1166 OFFCURVE",
"737 1166 CURVE SMOOTH",
"849 1166 OFFCURVE",
"951 1124 OFFCURVE",
"1023 1082 CURVE SMOOTH",
"1043 1071 OFFCURVE",
"1061 1065 OFFCURVE",
"1078 1065 CURVE SMOOTH",
"1105 1065 OFFCURVE",
"1125 1078 OFFCURVE",
"1147 1108 CURVE SMOOTH",
"1255 1258 LINE SMOOTH",
"1269 1278 OFFCURVE",
"1277 1298 OFFCURVE",
"1277 1316 CURVE SMOOTH",
"1277 1342 OFFCURVE",
"1263 1365 OFFCURVE",
"1235 1382 CURVE SMOOTH",
"1133 1446 OFFCURVE",
"977 1520 OFFCURVE",
"737 1520 CURVE SMOOTH",
"424 1520 OFFCURVE",
"125 1346 OFFCURVE",
"125 1045 CURVE SMOOTH",
"125 766 OFFCURVE",
"381 662 OFFCURVE",
"679 578 CURVE SMOOTH",
"852 529 OFFCURVE",
"957 492 OFFCURVE",
"957 422 CURVE SMOOTH",
"957 342 OFFCURVE",
"887 323 OFFCURVE",
"777 323 CURVE SMOOTH",
"636 323 OFFCURVE",
"516 359 OFFCURVE",
"393 432 CURVE SMOOTH",
"373 444 OFFCURVE",
"354 450 OFFCURVE",
"336 450 CURVE SMOOTH",
"310 450 OFFCURVE",
"288 437 OFFCURVE",
"267 410 CURVE SMOOTH",
"133 242 LINE SMOOTH",
"117 222 OFFCURVE",
"110 202 OFFCURVE",
"110 183 CURVE SMOOTH",
"110 157 OFFCURVE",
"125 134 OFFCURVE",
"157 116 CURVE SMOOTH",
"344 9 OFFCURVE",
"543 -40 OFFCURVE",
"765 -40 CURVE SMOOTH"
);
}
);
width = 1469;
}
);
unicode = 0053;
},
{
glyphname = Germandbls;
lastChange = "2020-09-28 20:57:45 +0000";
layers = (
{
layerId = "9B85AB65-32D7-4FED-B27C-3C7447013A9D";
paths = (
{
closed = 1;
nodes = (
"1076 817 OFFCURVE",
"1107 855 OFFCURVE",
"1155 911 CURVE SMOOTH",
"1213 978 OFFCURVE",
"1340 1136 OFFCURVE",
"1340 1255 CURVE SMOOTH",
"1340 1379 OFFCURVE",
"1274 1480 OFFCURVE",
"1104 1480 CURVE SMOOTH",
"562 1480 LINE SMOOTH",
"342 1480 OFFCURVE",
"90 1378 OFFCURVE",
"90 992 CURVE SMOOTH",
"90 154 LINE SMOOTH",
"90 38 OFFCURVE",
"113 0 OFFCURVE",
"199 0 CURVE SMOOTH",
"393 0 LINE SMOOTH",
"479 0 OFFCURVE",
"496 38 OFFCURVE",
"496 154 CURVE SMOOTH",
"496 968 LINE SMOOTH",
"496 1118 OFFCURVE",
"559 1180 OFFCURVE",
"668 1180 CURVE SMOOTH",
"779 1180 LINE SMOOTH",
"830 1180 OFFCURVE",
"864 1168 OFFCURVE",
"864 1137 CURVE SMOOTH",
"864 1101 OFFCURVE",
"790 1019 OFFCURVE",
"751 982 CURVE SMOOTH",
"698 931 OFFCURVE",
"652 876 OFFCURVE",
"652 765 CURVE SMOOTH",
"652 661 OFFCURVE",
"743 588 OFFCURVE",
"816 557 CURVE SMOOTH",
"883 528 OFFCURVE",
"1000 451 OFFCURVE",
"1000 395 CURVE SMOOTH",
"1000 342 OFFCURVE",
"957 303 OFFCURVE",
"835 303 CURVE SMOOTH",
"766 303 OFFCURVE",
"744 317 OFFCURVE",
"681 317 CURVE SMOOTH",
"649 317 OFFCURVE",
"599 307 OFFCURVE",
"585 233 CURVE SMOOTH",
"561 107 LINE SMOOTH",
"543 13 OFFCURVE",
"682 -21 OFFCURVE",
"835 -21 CURVE SMOOTH",
"1118 -21 OFFCURVE",
"1378 94 OFFCURVE",
"1378 371 CURVE SMOOTH",
"1378 559 OFFCURVE",
"1263 637 OFFCURVE",
"1164 700 CURVE SMOOTH",
"1100 741 OFFCURVE",
"1076 757 OFFCURVE",
"1076 786 CURVE SMOOTH"
);
}
);
width = 1458;
}
);
unicode = 1E9E;
},
{
glyphname = T;
lastChange = "2020-09-28 20:42:28 +0000";
layers = (
{
anchors = (
{
name = bottom;
position = "{698, 0}";
},
{
name = center;
position = "{698, 740}";
},
{
name = top;
position = "{698, 1480}";
}
);
layerId = "9B85AB65-32D7-4FED-B27C-3C7447013A9D";
paths = (
{
closed = 1;
nodes = (
"796 0 LINE SMOOTH",
"854 0 OFFCURVE",
"886 32 OFFCURVE",
"886 90 CURVE SMOOTH",
"886 1102 LINE",
"1184 1102 LINE SMOOTH",
"1242 1102 OFFCURVE",
"1274 1134 OFFCURVE",
"1274 1192 CURVE SMOOTH",
"1274 1390 LINE SMOOTH",
"1274 1448 OFFCURVE",
"1242 1480 OFFCURVE",
"1184 1480 CURVE SMOOTH",
"190 1480 LINE SMOOTH",
"132 1480 OFFCURVE",
"100 1448 OFFCURVE",
"100 1390 CURVE SMOOTH",
"100 1192 LINE SMOOTH",
"100 1134 OFFCURVE",
"132 1102 OFFCURVE",
"190 1102 CURVE SMOOTH",
"488 1102 LINE",
"488 90 LINE SMOOTH",
"488 32 OFFCURVE",
"520 0 OFFCURVE",
"578 0 CURVE SMOOTH"
);
}
);
width = 1394;
}
);
unicode = 0054;
},
{
glyphname = Tbar;
lastChange = "2020-09-28 21:07:54 +0000";
layers = (
{
components = (
{
name = T;
}
);
layerId = "9B85AB65-32D7-4FED-B27C-3C7447013A9D";
paths = (
{
closed = 1;
nodes = (
"998 618 LINE SMOOTH",
"1060 618 OFFCURVE",
"1091 649 OFFCURVE",
"1091 710 CURVE SMOOTH",
"1091 772 OFFCURVE",
"1060 803 OFFCURVE",
"998 803 CURVE SMOOTH",
"398 803 LINE SMOOTH",
"336 803 OFFCURVE",
"305 772 OFFCURVE",
"305 710 CURVE SMOOTH",
"305 649 OFFCURVE",
"336 618 OFFCURVE",
"398 618 CURVE SMOOTH"
);
}
);
width = 1394;
}
);
unicode = 0166;
},
{
glyphname = U;
lastChange = "2020-10-01 17:07:58 +0000";
layers = (
{
anchors = (
{
name = bottom;
position = "{826, 0}";
},
{
name = ogonek;
position = "{1208, 196}";
},
{
name = top;
position = "{826, 1480}";
},
{
name = topright;
position = "{1422, 1480}";
}
);
layerId = "9B85AB65-32D7-4FED-B27C-3C7447013A9D";
paths = (
{
closed = 1;
nodes = (
"1200 -36 OFFCURVE",
"1512 242 OFFCURVE",
"1512 694 CURVE SMOOTH",
"1512 1390 LINE SMOOTH",
"1512 1450 OFFCURVE",
"1482 1480 OFFCURVE",
"1422 1480 CURVE SMOOTH",
"1202 1480 LINE SMOOTH",
"1142 1480 OFFCURVE",
"1112 1450 OFFCURVE",
"1112 1390 CURVE SMOOTH",
"1112 694 LINE SMOOTH",
"1112 460 OFFCURVE",
"1004 332 OFFCURVE",
"826 332 CURVE SMOOTH",
"649 332 OFFCURVE",
"538 456 OFFCURVE",
"538 694 CURVE SMOOTH",
"538 1390 LINE SMOOTH",
"538 1450 OFFCURVE",
"508 1480 OFFCURVE",
"448 1480 CURVE SMOOTH",
"230 1480 LINE SMOOTH",
"170 1480 OFFCURVE",
"140 1450 OFFCURVE",
"140 1390 CURVE SMOOTH",
"140 694 LINE SMOOTH",
"140 244 OFFCURVE",
"446 -36 OFFCURVE",
"826 -36 CURVE SMOOTH"
);
}
);
width = 1652;
}
);
unicode = 0055;
},
{
glyphname = V;
lastChange = "2020-09-28 20:42:33 +0000";
layers = (
{
anchors = (
{
name = bottom;
position = "{744, 0}";
},
{
name = top;
position = "{744, 1480}";
}
);
layerId = "9B85AB65-32D7-4FED-B27C-3C7447013A9D";
paths = (
{
closed = 1;
nodes = (
"866 0 LINE SMOOTH",
"920 0 OFFCURVE",
"953 24 OFFCURVE",
"970 72 CURVE SMOOTH",
"1440 1380 LINE SMOOTH",
"1462 1442 OFFCURVE",
"1434 1482 OFFCURVE",
"1368 1482 CURVE SMOOTH",
"1114 1482 LINE SMOOTH",
"1060 1482 OFFCURVE",
"1024 1458 OFFCURVE",
"1010 1410 CURVE SMOOTH",
"744 495 LINE",
"478 1410 LINE SMOOTH",
"464 1458 OFFCURVE",
"428 1482 OFFCURVE",
"374 1482 CURVE SMOOTH",
"120 1482 LINE SMOOTH",
"54 1482 OFFCURVE",
"26 1442 OFFCURVE",
"48 1380 CURVE SMOOTH",
"520 72 LINE SMOOTH",
"537 24 OFFCURVE",
"570 0 OFFCURVE",
"624 0 CURVE SMOOTH"
);
}
);
width = 1488;
}
);
unicode = 0056;
},
{
glyphname = W;
lastChange = "2020-09-28 20:42:33 +0000";
layers = (
{
anchors = (
{
name = bottom;
position = "{982, 0}";
},
{
name = top;
position = "{982, 1480}";
}
);
layerId = "9B85AB65-32D7-4FED-B27C-3C7447013A9D";
paths = (
{
closed = 1;
nodes = (
"652 0 LINE SMOOTH",
"706 0 OFFCURVE",
"740 24 OFFCURVE",
"754 76 CURVE SMOOTH",
"984 912 LINE",
"1214 76 LINE SMOOTH",
"1228 24 OFFCURVE",
"1260 0 OFFCURVE",
"1314 0 CURVE SMOOTH",
"1506 0 LINE SMOOTH",
"1562 0 OFFCURVE",
"1595 26 OFFCURVE",
"1606 80 CURVE SMOOTH",
"1870 1384 LINE SMOOTH",
"1882 1444 OFFCURVE",
"1854 1482 OFFCURVE",
"1790 1482 CURVE SMOOTH",
"1588 1482 LINE SMOOTH",
"1532 1482 OFFCURVE",
"1499 1456 OFFCURVE",
"1488 1402 CURVE SMOOTH",
"1350 728 LINE",
"1170 1406 LINE SMOOTH",
"1156 1458 OFFCURVE",
"1124 1482 OFFCURVE",
"1070 1482 CURVE SMOOTH",
"892 1482 LINE SMOOTH",
"838 1482 OFFCURVE",
"807 1458 OFFCURVE",
"792 1406 CURVE SMOOTH",
"594 724 LINE",
"478 1402 LINE SMOOTH",
"469 1456 OFFCURVE",
"434 1482 OFFCURVE",
"378 1482 CURVE SMOOTH",
"174 1482 LINE SMOOTH",
"110 1482 OFFCURVE",
"82 1444 OFFCURVE",
"94 1384 CURVE SMOOTH",
"360 80 LINE SMOOTH",
"371 26 OFFCURVE",
"404 0 OFFCURVE",
"460 0 CURVE SMOOTH"
);
}
);
width = 1964;
}
);
unicode = 0057;
},
{
glyphname = X;
lastChange = "2020-09-28 21:32:05 +0000";
layers = (
{
anchors = (
{
name = bottom;
position = "{802, 0}";
},
{
name = top;
position = "{802, 1480}";
}
);
layerId = "9B85AB65-32D7-4FED-B27C-3C7447013A9D";
paths = (
{
closed = 1;
nodes = (
"454 0 LINE SMOOTH",
"504 0 OFFCURVE",
"538 17 OFFCURVE",
"564 58 CURVE SMOOTH",
"802 428 LINE",
"1038 58 LINE SMOOTH",
"1064 17 OFFCURVE",
"1098 0 OFFCURVE",
"1148 0 CURVE SMOOTH",
"1424 0 LINE SMOOTH",
"1498 0 OFFCURVE",
"1524 48 OFFCURVE",
"1482 110 CURVE SMOOTH",
"1050 746 LINE",
"1476 1370 LINE SMOOTH",
"1518 1432 OFFCURVE",
"1492 1480 OFFCURVE",
"1418 1480 CURVE SMOOTH",
"1142 1480 LINE SMOOTH",
"1092 1480 OFFCURVE",
"1059 1464 OFFCURVE",
"1032 1422 CURVE SMOOTH",
"802 1062 LINE",
"570 1422 LINE SMOOTH",
"543 1464 OFFCURVE",
"510 1480 OFFCURVE",
"460 1480 CURVE SMOOTH",
"184 1480 LINE SMOOTH",
"110 1480 OFFCURVE",
"84 1432 OFFCURVE",
"126 1370 CURVE SMOOTH",
"552 746 LINE",
"120 110 LINE SMOOTH",
"78 48 OFFCURVE",
"104 0 OFFCURVE",
"178 0 CURVE SMOOTH"
);
}
);
width = 1602;
}
);
unicode = 0058;
},
{
glyphname = Y;
lastChange = "2020-09-28 20:42:33 +0000";
layers = (
{
anchors = (
{
name = bottom;
position = "{732, 0}";
},
{
name = top;
position = "{732, 1480}";
},
{
name = topleft;
position = "{40, 1480}";
}
);
layerId = "9B85AB65-32D7-4FED-B27C-3C7447013A9D";
paths = (
{
closed = 1;
nodes = (
"832 0 LINE SMOOTH",
"890 0 OFFCURVE",
"922 32 OFFCURVE",
"922 90 CURVE SMOOTH",
"922 528 LINE",
"1346 1372 LINE SMOOTH",
"1379 1437 OFFCURVE",
"1352 1480 OFFCURVE",
"1278 1480 CURVE SMOOTH",
"1048 1480 LINE SMOOTH",
"1000 1480 OFFCURVE",
"959 1464 OFFCURVE",
"940 1420 CURVE SMOOTH",
"732 946 LINE",
"524 1420 LINE SMOOTH",
"505 1464 OFFCURVE",
"464 1480 OFFCURVE",
"416 1480 CURVE SMOOTH",
"186 1480 LINE SMOOTH",
"112 1480 OFFCURVE",
"87 1434 OFFCURVE",
"118 1372 CURVE SMOOTH",
"544 528 LINE",
"544 90 LINE SMOOTH",
"544 32 OFFCURVE",
"576 0 OFFCURVE",
"634 0 CURVE SMOOTH"
);
}
);
width = 1464;
}
);
unicode = 0059;
},
{
glyphname = Z;
lastChange = "2020-09-28 20:42:28 +0000";
layers = (
{
anchors = (
{
name = bottom;
position = "{730, 0}";
},
{
name = center;
position = "{730, 740}";
},
{
name = top;
position = "{730, 1480}";
}
);
layerId = "9B85AB65-32D7-4FED-B27C-3C7447013A9D";
paths = (
{
closed = 1;
nodes = (
"1188 0 LINE SMOOTH",
"1246 0 OFFCURVE",
"1278 32 OFFCURVE",
"1278 90 CURVE SMOOTH",
"1278 288 LINE SMOOTH",
"1278 346 OFFCURVE",
"1246 378 OFFCURVE",
"1188 378 CURVE SMOOTH",
"674 378 LINE",
"1212 1124 LINE SMOOTH",
"1238 1160 OFFCURVE",
"1248 1192 OFFCURVE",
"1248 1236 CURVE SMOOTH",
"1248 1390 LINE SMOOTH",
"1248 1448 OFFCURVE",
"1216 1480 OFFCURVE",
"1158 1480 CURVE SMOOTH",
"300 1480 LINE SMOOTH",
"242 1480 OFFCURVE",
"210 1448 OFFCURVE",
"210 1390 CURVE SMOOTH",
"210 1192 LINE SMOOTH",
"210 1134 OFFCURVE",
"242 1102 OFFCURVE",
"300 1102 CURVE SMOOTH",
"772 1102 LINE",
"218 358 LINE SMOOTH",
"190 322 OFFCURVE",
"180 290 OFFCURVE",
"180 246 CURVE SMOOTH",
"180 90 LINE SMOOTH",
"180 32 OFFCURVE",
"212 0 OFFCURVE",
"270 0 CURVE SMOOTH"
);
}
);
width = 1458;
}
);
unicode = 005A;
},
{
glyphname = a;
lastChange = "2020-10-01 16:52:48 +0000";
layers = (
{
anchors = (
{
name = bottom;
position = "{736, 0}";
},
{
name = ogonek;
position = "{1220, 95}";
},
{
name = top;
position = "{736, 1200}";
}
);
layerId = "9B85AB65-32D7-4FED-B27C-3C7447013A9D";
paths = (
{
closed = 1;
nodes = (
"774 -28 OFFCURVE",
"908 60 OFFCURVE",
"962 156 CURVE",
"962 126 LINE SMOOTH",
"962 46 OFFCURVE",
"992 0 OFFCURVE",
"1058 0 CURVE SMOOTH",
"1250 0 LINE SMOOTH",
"1316 0 OFFCURVE",
"1350 46 OFFCURVE",
"1350 126 CURVE SMOOTH",
"1350 752 LINE SMOOTH",
"1350 1152 OFFCURVE",
"972 1248 OFFCURVE",
"696 1248 CURVE SMOOTH",
"502 1248 OFFCURVE",
"276 1166 OFFCURVE",
"172 1054 CURVE SMOOTH",
"140 1018 OFFCURVE",
"141 979 OFFCURVE",
"182 948 CURVE SMOOTH",
"338 830 LINE SMOOTH",
"378 800 OFFCURVE",
"408 804 OFFCURVE",
"444 834 CURVE SMOOTH",
"484 866 OFFCURVE",
"582 934 OFFCURVE",
"700 934 CURVE SMOOTH",
"852 934 OFFCURVE",
"948 878 OFFCURVE",
"962 754 CURVE",
"664 754 LINE SMOOTH",
"320 754 OFFCURVE",
"120 608 OFFCURVE",
"120 368 CURVE SMOOTH",
"120 136 OFFCURVE",
"282 -28 OFFCURVE",
"584 -28 CURVE SMOOTH"
);
},
{
closed = 1;
nodes = (
"534 272 OFFCURVE",
"482 314 OFFCURVE",
"482 386 CURVE SMOOTH",
"482 470 OFFCURVE",
"548 504 OFFCURVE",
"640 504 CURVE SMOOTH",
"960 504 LINE",
"960 364 OFFCURVE",
"778 272 OFFCURVE",
"618 272 CURVE SMOOTH"
);
}
);
width = 1480;
}
);
unicode = 0061;
},
{
glyphname = a.ss01;
lastChange = "2020-09-28 20:42:34 +0000";
layers = (
{
layerId = "9B85AB65-32D7-4FED-B27C-3C7447013A9D";
paths = (
{
closed = 1;
nodes = (
"1010 -26 OFFCURVE",
"1106 284 OFFCURVE",
"1106 404 CURVE SMOOTH",
"1106 538 LINE",
"1030 586 LINE",
"1030 458 OFFCURVE",
"948 302 OFFCURVE",
"780 302 CURVE SMOOTH",
"626 302 OFFCURVE",
"550 432 OFFCURVE",
"550 602 CURVE SMOOTH",
"550 800 OFFCURVE",
"634 922 OFFCURVE",
"788 922 CURVE SMOOTH",
"948 922 OFFCURVE",
"1030 774 OFFCURVE",
"1030 670 CURVE SMOOTH",
"1030 640 LINE",
"1126 706 LINE",
"1126 900 LINE SMOOTH",
"1126 1016 OFFCURVE",
"968 1248 OFFCURVE",
"676 1248 CURVE SMOOTH",
"332 1248 OFFCURVE",
"110 998 OFFCURVE",
"110 620 CURVE SMOOTH",
"110 228 OFFCURVE",
"368 -26 OFFCURVE",
"676 -26 CURVE SMOOTH"
);
},
{
closed = 1;
nodes = (
"1312 0 LINE SMOOTH",
"1378 0 OFFCURVE",
"1422 46 OFFCURVE",
"1422 126 CURVE SMOOTH",
"1422 1110 LINE SMOOTH",
"1422 1168 OFFCURVE",
"1390 1200 OFFCURVE",
"1332 1200 CURVE SMOOTH",
"1120 1200 LINE SMOOTH",
"1062 1200 OFFCURVE",
"1030 1168 OFFCURVE",
"1030 1110 CURVE SMOOTH",
"1030 126 LINE SMOOTH",
"1030 46 OFFCURVE",
"1064 0 OFFCURVE",
"1130 0 CURVE SMOOTH"
);
}
);
width = 1512;
}
);
leftMetricsKey = o;
},
{
glyphname = ae;
lastChange = "2020-09-28 20:59:26 +0000";
layers = (
{
anchors = (
{
name = bottom;
position = "{1144, 0}";
},
{
name = top;
position = "{1144, 1200}";
}
);
components = (
{
name = e;
transform = "{1, 0, 0, 1, 838, 0}";
}
);
layerId = "9B85AB65-32D7-4FED-B27C-3C7447013A9D";
paths = (
{
closed = 1;
nodes = (
"492 1248 OFFCURVE",
"302 1182 OFFCURVE",
"178 1062 CURVE SMOOTH",
"144 1028 OFFCURVE",
"150 990 OFFCURVE",
"188 956 CURVE SMOOTH",
"312 844 LINE SMOOTH",
"348 812 OFFCURVE",
"382 818 OFFCURVE",
"418 848 CURVE SMOOTH",
"458 880 OFFCURVE",
"532 930 OFFCURVE",
"670 930 CURVE SMOOTH",
"836 930 OFFCURVE",
"923 878 OFFCURVE",
"951 748 CURVE",
"654 748 LINE SMOOTH",
"310 748 OFFCURVE",
"120 608 OFFCURVE",
"120 368 CURVE SMOOTH",
"120 136 OFFCURVE",
"312 -28 OFFCURVE",
"614 -28 CURVE SMOOTH",
"1045 -28 OFFCURVE",
"1300 258 OFFCURVE",
"1300 472 CURVE SMOOTH",
"1300 712 LINE SMOOTH",
"1300 1096 OFFCURVE",
"962 1248 OFFCURVE",
"686 1248 CURVE SMOOTH"
);
},
{
closed = 1;
nodes = (
"524 272 OFFCURVE",
"472 314 OFFCURVE",
"472 386 CURVE SMOOTH",
"472 470 OFFCURVE",
"538 510 OFFCURVE",
"630 510 CURVE SMOOTH",
"950 510 LINE",
"950 370 OFFCURVE",
"768 272 OFFCURVE",
"608 272 CURVE SMOOTH"
);
}
);
width = 2288;
}
);
leftKerningGroup = a;
leftMetricsKey = a;
rightKerningGroup = o;
rightMetricsKey = o;
unicode = 00E6;
},
{
glyphname = b;
lastChange = "2020-10-01 16:52:51 +0000";
layers = (
{
anchors = (
{
name = bottom;
position = "{766, 0}";
},
{
name = top;
position = "{766, 1500}";
}
);
layerId = "9B85AB65-32D7-4FED-B27C-3C7447013A9D";
paths = (
{
closed = 1;
nodes = (
"1164 -26 OFFCURVE",
"1422 228 OFFCURVE",
"1422 620 CURVE SMOOTH",
"1422 998 OFFCURVE",
"1200 1248 OFFCURVE",
"856 1248 CURVE SMOOTH",
"564 1248 OFFCURVE",
"406 1016 OFFCURVE",
"406 900 CURVE SMOOTH",
"406 706 LINE",
"502 640 LINE",
"502 670 LINE SMOOTH",
"502 774 OFFCURVE",
"584 922 OFFCURVE",
"744 922 CURVE SMOOTH",
"898 922 OFFCURVE",
"982 800 OFFCURVE",
"982 602 CURVE SMOOTH",
"982 432 OFFCURVE",
"906 302 OFFCURVE",
"752 302 CURVE SMOOTH",
"584 302 OFFCURVE",
"502 458 OFFCURVE",
"502 586 CURVE",
"426 538 LINE",
"426 404 LINE SMOOTH",
"426 284 OFFCURVE",
"522 -26 OFFCURVE",
"856 -26 CURVE SMOOTH"
);
},
{
closed = 1;
nodes = (
"402 0 LINE SMOOTH",
"468 0 OFFCURVE",
"502 46 OFFCURVE",
"502 126 CURVE SMOOTH",
"502 1550 LINE SMOOTH",
"502 1608 OFFCURVE",
"470 1640 OFFCURVE",
"412 1640 CURVE SMOOTH",
"200 1640 LINE SMOOTH",
"142 1640 OFFCURVE",
"110 1608 OFFCURVE",
"110 1550 CURVE SMOOTH",
"110 126 LINE SMOOTH",
"110 46 OFFCURVE",
"154 0 OFFCURVE",
"220 0 CURVE SMOOTH"
);
}
);
width = 1532;
}
);
rightKerningGroup = o;
rightMetricsKey = o;
unicode = 0062;
},
{
glyphname = c;
lastChange = "2020-09-28 20:42:33 +0000";
layers = (
{
anchors = (
{
name = bottom;
position = "{702, 0}";
},
{
name = top;
position = "{702, 1200}";
}
);
layerId = "9B85AB65-32D7-4FED-B27C-3C7447013A9D";
paths = (
{
closed = 1;
nodes = (
"974 -28 OFFCURVE",
"1134 36 OFFCURVE",
"1256 150 CURVE SMOOTH",
"1292 184 OFFCURVE",
"1290 226 OFFCURVE",
"1250 256 CURVE SMOOTH",
"1088 376 LINE SMOOTH",
"1038 413 OFFCURVE",
"1021 425 OFFCURVE",
"984 392 CURVE SMOOTH",
"942 354 OFFCURVE",
"894 312 OFFCURVE",
"788 312 CURVE SMOOTH",
"604 312 OFFCURVE",
"496 422 OFFCURVE",
"496 606 CURVE SMOOTH",
"496 792 OFFCURVE",
"598 910 OFFCURVE",
"788 910 CURVE SMOOTH",
"906 910 OFFCURVE",
"960 868 OFFCURVE",
"1010 828 CURVE SMOOTH",
"1048 798 OFFCURVE",
"1080 791 OFFCURVE",
"1116 824 CURVE SMOOTH",
"1260 956 LINE SMOOTH",
"1298 990 OFFCURVE",
"1304 1028 OFFCURVE",
"1270 1062 CURVE SMOOTH",
"1146 1182 OFFCURVE",
"980 1248 OFFCURVE",
"788 1248 CURVE SMOOTH",
"428 1248 OFFCURVE",
"110 986 OFFCURVE",
"110 606 CURVE SMOOTH",
"110 226 OFFCURVE",
"428 -28 OFFCURVE",
"788 -28 CURVE SMOOTH"
);
}
);
width = 1382;
}
);
leftKerningGroup = o;
leftMetricsKey = o;
unicode = 0063;
},
{
glyphname = eth;
lastChange = "2020-09-28 20:42:34 +0000";
layers = (
{
components = (
{
name = o;
}
);
layerId = "9B85AB65-32D7-4FED-B27C-3C7447013A9D";
paths = (
{
closed = 1;
nodes = (
"1426 1378 OFFCURVE",
"948 1606 OFFCURVE",
"778 1728 CURVE SMOOTH",
"726 1766 OFFCURVE",
"668 1793 OFFCURVE",
"616 1768 CURVE SMOOTH",
"472 1697 LINE SMOOTH",
"416 1671 OFFCURVE",
"405 1632 OFFCURVE",
"450 1601 CURVE SMOOTH",
"542 1540 OFFCURVE",
"982 1298 OFFCURVE",
"1104 935 CURVE",
"1426 610 LINE"
);
},
{
closed = 1;
nodes = (
"1056 1590 LINE SMOOTH",
"1096 1622 OFFCURVE",
"1106 1664 OFFCURVE",
"1068 1692 CURVE SMOOTH",
"982 1753 LINE SMOOTH",
"940 1784 OFFCURVE",
"918 1796 OFFCURVE",
"882 1767 CURVE SMOOTH",
"490 1461 LINE SMOOTH",
"451 1431 OFFCURVE",
"436 1386 OFFCURVE",
"476 1357 CURVE SMOOTH",
"562 1298 LINE SMOOTH",
"602 1270 OFFCURVE",
"626 1254 OFFCURVE",
"664 1284 CURVE SMOOTH"
);
}
);
width = 1496;
}
);
unicode = 00F0;
},
{
glyphname = dcaron;
lastChange = "2020-09-28 20:42:28 +0000";
layers = (
{
components = (
{
name = d;
}
);
layerId = "9B85AB65-32D7-4FED-B27C-3C7447013A9D";
paths = (
{
closed = 1;
nodes = (
"1576 1088 OFFCURVE",
"1590 1124 OFFCURVE",
"1620 1152 CURVE SMOOTH",
"1634 1166 OFFCURVE",
"1648 1180 OFFCURVE",
"1660 1194 CURVE SMOOTH",
"1672 1208 OFFCURVE",
"1682 1222 OFFCURVE",
"1692 1232 CURVE SMOOTH",
"1702 1242 OFFCURVE",
"1708 1252 OFFCURVE",
"1710 1258 CURVE",
"1724 1276 OFFCURVE",
"1746 1314 OFFCURVE",
"1746 1356 CURVE SMOOTH",
"1746 1390 OFFCURVE",
"1732 1424 OFFCURVE",
"1708 1448 CURVE SMOOTH",
"1684 1470 OFFCURVE",
"1652 1484 OFFCURVE",
"1618 1484 CURVE SMOOTH",
"1580 1484 OFFCURVE",
"1550 1470 OFFCURVE",
"1526 1448 CURVE SMOOTH",
"1502 1424 OFFCURVE",
"1488 1390 OFFCURVE",
"1488 1356 CURVE SMOOTH",
"1488 1332 OFFCURVE",
"1498 1308 OFFCURVE",
"1514 1288 CURVE SMOOTH",
"1530 1268 OFFCURVE",
"1554 1252 OFFCURVE",
"1584 1246 CURVE",
"1540 1196 LINE SMOOTH",
"1522 1178 OFFCURVE",
"1504 1160 OFFCURVE",
"1522 1142 CURVE",
"1522 1140 OFFCURVE",
"1524 1138 OFFCURVE",
"1526 1136 CURVE SMOOTH"
);
}
);
width = 1766;
}
);
unicode = 010F;
},
{
glyphname = dcroat;
lastChange = "2020-10-01 17:10:44 +0000";
layers = (
{
components = (
{
name = d;
}
);
layerId = "9B85AB65-32D7-4FED-B27C-3C7447013A9D";
paths = (
{
closed = 1;
nodes = (
"1448 1312 LINE SMOOTH",
"1514 1312 OFFCURVE",
"1550 1348 OFFCURVE",
"1550 1416 CURVE SMOOTH",
"1550 1482 OFFCURVE",
"1514 1518 OFFCURVE",
"1448 1518 CURVE SMOOTH",
"794 1518 LINE SMOOTH",
"726 1518 OFFCURVE",
"690 1482 OFFCURVE",
"690 1416 CURVE SMOOTH",
"690 1348 OFFCURVE",
"726 1312 OFFCURVE",
"794 1312 CURVE SMOOTH"
);
}
);
width = 1552;
}
);
unicode = 0111;
},
{
glyphname = e;
lastChange = "2020-09-28 20:59:53 +0000";
layers = (
{
anchors = (
{
name = bottom;
position = "{732, 0}";
},
{
name = ogonek;
position = "{1100, 157}";
},
{
name = top;
position = "{732, 1200}";
}
);
layerId = "9B85AB65-32D7-4FED-B27C-3C7447013A9D";
paths = (
{
closed = 1;
nodes = (
"940 -26 OFFCURVE",
"1152 28 OFFCURVE",
"1276 148 CURVE SMOOTH",
"1310 182 OFFCURVE",
"1304 220 OFFCURVE",
"1266 254 CURVE SMOOTH",
"1134 372 LINE SMOOTH",
"1099 403 OFFCURVE",
"1066 398 OFFCURVE",
"1028 368 CURVE SMOOTH",
"988 336 OFFCURVE",
"908 288 OFFCURVE",
"770 288 CURVE SMOOTH",
"555 288 OFFCURVE",
"492 414 OFFCURVE",
"492 624 CURVE SMOOTH",
"492 818 OFFCURVE",
"592 934 OFFCURVE",
"754 934 CURVE SMOOTH",
"920 934 OFFCURVE",
"988 814 OFFCURVE",
"988 750 CURVE",
"440 750 LINE",
"440 500 LINE",
"1172 500 LINE SMOOTH",
"1248 500 OFFCURVE",
"1340 514 OFFCURVE",
"1340 692 CURVE SMOOTH",
"1340 1032 OFFCURVE",
"1082 1246 OFFCURVE",
"760 1246 CURVE SMOOTH",
"396 1246 OFFCURVE",
"110 956 OFFCURVE",
"110 606 CURVE SMOOTH",
"110 238 OFFCURVE",
"396 -26 OFFCURVE",
"746 -26 CURVE SMOOTH"
);
}
);
width = 1450;
}
);
leftKerningGroup = o;
leftMetricsKey = o;
rightKerningGroup = o;
rightMetricsKey = o;
unicode = 0065;
},
{
glyphname = schwa;
lastChange = "2020-09-28 21:16:02 +0000";
layers = (
{
layerId = "9B85AB65-32D7-4FED-B27C-3C7447013A9D";
paths = (
{
closed = 1;
nodes = (
"510 1246 OFFCURVE",
"298 1192 OFFCURVE",
"174 1072 CURVE SMOOTH",
"140 1038 OFFCURVE",
"146 1000 OFFCURVE",
"184 966 CURVE SMOOTH",
"316 848 LINE SMOOTH",
"351 817 OFFCURVE",
"384 822 OFFCURVE",
"422 852 CURVE SMOOTH",
"462 884 OFFCURVE",
"542 932 OFFCURVE",
"680 932 CURVE SMOOTH",
"895 932 OFFCURVE",
"958 806 OFFCURVE",
"958 596 CURVE SMOOTH",
"958 402 OFFCURVE",
"858 286 OFFCURVE",
"696 286 CURVE SMOOTH",
"530 286 OFFCURVE",
"462 406 OFFCURVE",
"462 470 CURVE",
"1010 470 LINE",
"1010 720 LINE",
"278 720 LINE SMOOTH",
"202 720 OFFCURVE",
"110 706 OFFCURVE",
"110 528 CURVE SMOOTH",
"110 188 OFFCURVE",
"368 -26 OFFCURVE",
"690 -26 CURVE SMOOTH",
"1054 -26 OFFCURVE",
"1340 264 OFFCURVE",
"1340 614 CURVE SMOOTH",
"1340 982 OFFCURVE",
"1054 1246 OFFCURVE",
"704 1246 CURVE SMOOTH"
);
}
);
width = 1450;
}
);
unicode = 0259;
},
{
glyphname = f;
lastChange = "2020-09-28 20:42:33 +0000";
layers = (
{
anchors = (
{
name = bottom;
position = "{600, 0}";
},
{
name = top;
position = "{600, 1500}";
}
);
layerId = "9B85AB65-32D7-4FED-B27C-3C7447013A9D";
paths = (
{
closed = 1;
nodes = (
"618 0 LINE SMOOTH",
"684 0 OFFCURVE",
"718 46 OFFCURVE",
"718 126 CURVE SMOOTH",
"718 1146 LINE SMOOTH",
"718 1282 OFFCURVE",
"786 1366 OFFCURVE",
"916 1366 CURVE SMOOTH",
"970 1366 OFFCURVE",
"1022 1348 OFFCURVE",
"1062 1348 CURVE SMOOTH",
"1118 1348 OFFCURVE",
"1136 1380 OFFCURVE",
"1136 1438 CURVE SMOOTH",
"1136 1550 LINE SMOOTH",
"1136 1608 OFFCURVE",
"1112 1640 OFFCURVE",
"1056 1654 CURVE SMOOTH",
"1002 1668 OFFCURVE",
"956 1674 OFFCURVE",
"864 1674 CURVE SMOOTH",
"558 1674 OFFCURVE",
"326 1428 OFFCURVE",
"326 1114 CURVE SMOOTH",
"326 126 LINE SMOOTH",
"326 46 OFFCURVE",
"360 0 OFFCURVE",
"436 0 CURVE SMOOTH"
);
},
{
closed = 1;
nodes = (
"1045 890 LINE SMOOTH",
"1102 890 OFFCURVE",
"1134 922 OFFCURVE",
"1135 980 CURVE SMOOTH",
"1135 1110 LINE SMOOTH",
"1134 1168 OFFCURVE",
"1102 1200 OFFCURVE",
"1045 1200 CURVE SMOOTH",
"140 1200 LINE SMOOTH",
"82 1200 OFFCURVE",
"50 1168 OFFCURVE",
"50 1110 CURVE SMOOTH",
"50 980 LINE SMOOTH",
"50 922 OFFCURVE",
"82 890 OFFCURVE",
"140 890 CURVE SMOOTH"
);
}
);
width = 1198;
}
);
unicode = 0066;
},
{
glyphname = g;
lastChange = "2020-09-28 20:42:33 +0000";
layers = (
{
anchors = (
{
name = bottom;
position = "{782, -550}";
},
{
name = top;
position = "{782, 1200}";
}
);
layerId = "9B85AB65-32D7-4FED-B27C-3C7447013A9D";
paths = (
{
closed = 1;
nodes = (
"1042 -542 OFFCURVE",
"1422 -376 OFFCURVE",
"1422 6 CURVE SMOOTH",
"1422 1074 LINE SMOOTH",
"1422 1154 OFFCURVE",
"1388 1200 OFFCURVE",
"1322 1200 CURVE SMOOTH",
"1130 1200 LINE SMOOTH",
"1064 1200 OFFCURVE",
"1030 1154 OFFCURVE",
"1030 1074 CURVE SMOOTH",
"1030 80 LINE SMOOTH",
"1030 -142 OFFCURVE",
"904 -202 OFFCURVE",
"716 -202 CURVE SMOOTH",
"578 -202 OFFCURVE",
"492 -136 OFFCURVE",
"452 -104 CURVE SMOOTH",
"414 -74 OFFCURVE",
"380 -66 OFFCURVE",
"346 -100 CURVE SMOOTH",
"198 -250 LINE SMOOTH",
"161 -287 OFFCURVE",
"154 -322 OFFCURVE",
"188 -356 CURVE SMOOTH",
"312 -476 OFFCURVE",
"520 -542 OFFCURVE",
"714 -542 CURVE SMOOTH"
);
},
{
closed = 1;
nodes = (
"968 -26 OFFCURVE",
"1126 206 OFFCURVE",
"1126 322 CURVE SMOOTH",
"1126 516 LINE",
"1030 582 LINE",
"1030 552 LINE SMOOTH",
"1030 448 OFFCURVE",
"948 300 OFFCURVE",
"788 300 CURVE SMOOTH",
"634 300 OFFCURVE",
"550 422 OFFCURVE",
"550 620 CURVE SMOOTH",
"550 790 OFFCURVE",
"626 920 OFFCURVE",
"780 920 CURVE SMOOTH",
"948 920 OFFCURVE",
"1030 764 OFFCURVE",
"1030 636 CURVE",
"1106 684 LINE",
"1106 818 LINE SMOOTH",
"1106 938 OFFCURVE",
"1010 1248 OFFCURVE",
"676 1248 CURVE SMOOTH",
"368 1248 OFFCURVE",
"110 994 OFFCURVE",
"110 602 CURVE SMOOTH",
"110 224 OFFCURVE",
"332 -26 OFFCURVE",
"676 -26 CURVE SMOOTH"
);
}
);
width = 1552;
}
);
leftMetricsKey = o;
unicode = 0067;
},
{
glyphname = h;
lastChange = "2020-09-28 20:42:34 +0000";
layers = (
{
anchors = (
{
name = bottom;
position = "{728, 0}";
},
{
name = center;
position = "{728, 750}";
},
{
name = top;
position = "{728, 1500}";
}
);
layerId = "9B85AB65-32D7-4FED-B27C-3C7447013A9D";
paths = (
{
closed = 1;
nodes = (
"1204 0 LINE SMOOTH",
"1270 0 OFFCURVE",
"1324 46 OFFCURVE",
"1324 126 CURVE SMOOTH",
"1324 640 LINE SMOOTH",
"1324 1018 OFFCURVE",
"1214 1248 OFFCURVE",
"876 1248 CURVE SMOOTH",
"584 1248 OFFCURVE",
"466 996 OFFCURVE",
"466 880 CURVE SMOOTH",
"466 686 LINE",
"522 640 LINE",
"522 670 LINE SMOOTH",
"522 774 OFFCURVE",
"604 922 OFFCURVE",
"744 922 CURVE SMOOTH",
"878 922 OFFCURVE",
"932 840 OFFCURVE",
"932 642 CURVE SMOOTH",
"932 126 LINE SMOOTH",
"932 46 OFFCURVE",
"966 0 OFFCURVE",
"1032 0 CURVE SMOOTH"
);
},
{
closed = 1;
nodes = (
"422 0 LINE SMOOTH",
"488 0 OFFCURVE",
"522 46 OFFCURVE",
"522 126 CURVE SMOOTH",
"522 1550 LINE SMOOTH",
"522 1608 OFFCURVE",
"490 1640 OFFCURVE",
"432 1640 CURVE SMOOTH",
"220 1640 LINE SMOOTH",
"162 1640 OFFCURVE",
"130 1608 OFFCURVE",
"130 1550 CURVE SMOOTH",
"130 126 LINE SMOOTH",
"130 46 OFFCURVE",
"174 0 OFFCURVE",
"240 0 CURVE SMOOTH"
);
}
);
width = 1454;
}
);
unicode = 0068;
},
{
glyphname = hbar;
lastChange = "2020-09-28 20:42:33 +0000";
layers = (
{
components = (
{
name = h;
}
);
layerId = "9B85AB65-32D7-4FED-B27C-3C7447013A9D";
paths = (
{
closed = 1;
nodes = (
"740 1312 LINE SMOOTH",
"806 1312 OFFCURVE",
"842 1348 OFFCURVE",
"842 1416 CURVE SMOOTH",
"842 1482 OFFCURVE",
"806 1518 OFFCURVE",
"740 1518 CURVE SMOOTH",
"86 1518 LINE SMOOTH",
"18 1518 OFFCURVE",
"-18 1482 OFFCURVE",
"-18 1416 CURVE SMOOTH",
"-18 1348 OFFCURVE",
"18 1312 OFFCURVE",
"86 1312 CURVE SMOOTH"
);
}
);
width = 1454;
}
);
unicode = 0127;
},
{
glyphname = i;
lastChange = "2020-09-28 21:28:55 +0000";
layers = (
{
anchors = (
{
name = bottom;
position = "{350, 0}";
}
);
layerId = "9B85AB65-32D7-4FED-B27C-3C7447013A9D";
paths = (
{
closed = 1;
nodes = (
"444 0 LINE SMOOTH",
"510 0 OFFCURVE",
"544 46 OFFCURVE",
"544 126 CURVE SMOOTH",
"544 1110 LINE SMOOTH",
"544 1168 OFFCURVE",
"512 1200 OFFCURVE",
"454 1200 CURVE SMOOTH",
"240 1200 LINE SMOOTH",
"182 1200 OFFCURVE",
"150 1168 OFFCURVE",
"150 1110 CURVE SMOOTH",
"150 126 LINE SMOOTH",
"150 46 OFFCURVE",
"184 0 OFFCURVE",
"250 0 CURVE SMOOTH"
);
},
{
closed = 1;
nodes = (
"474 1285 OFFCURVE",
"574 1384 OFFCURVE",
"574 1508 CURVE SMOOTH",
"574 1635 OFFCURVE",
"474 1734 OFFCURVE",
"350 1734 CURVE SMOOTH",
"224 1734 OFFCURVE",
"124 1635 OFFCURVE",
"124 1508 CURVE SMOOTH",
"124 1384 OFFCURVE",
"224 1285 OFFCURVE",
"350 1285 CURVE SMOOTH"
);
}
);
width = 698;
}
);
unicode = 0069;
},
{
glyphname = idotless;
lastChange = "2020-09-28 21:25:55 +0000";
layers = (
{
anchors = (
{
name = bottom;
position = "{361, 0}";
},
{
name = ogonek;
position = "{455, 100}";
},
{
name = top;
position = "{361, 1200}";
}
);
layerId = "9B85AB65-32D7-4FED-B27C-3C7447013A9D";
paths = (
{
closed = 1;
nodes = (
"436 0 LINE SMOOTH",
"502 0 OFFCURVE",
"536 46 OFFCURVE",
"536 126 CURVE SMOOTH",
"536 1110 LINE SMOOTH",
"536 1168 OFFCURVE",
"504 1200 OFFCURVE",
"446 1200 CURVE SMOOTH",
"272 1200 LINE SMOOTH",
"214 1200 OFFCURVE",
"182 1168 OFFCURVE",
"182 1110 CURVE SMOOTH",
"182 126 LINE SMOOTH",
"182 46 OFFCURVE",
"216 0 OFFCURVE",
"282 0 CURVE SMOOTH"
);
}
);
width = 722;
}
);
unicode = 0131;
},
{
glyphname = j;
lastChange = "2020-09-28 21:29:01 +0000";
layers = (
{
layerId = "9B85AB65-32D7-4FED-B27C-3C7447013A9D";
paths = (
{
closed = 1;
nodes = (
"74 -542 LINE SMOOTH",
"464 -542 OFFCURVE",
"648 -318 OFFCURVE",
"648 44 CURVE SMOOTH",
"648 1074 LINE SMOOTH",
"648 1154 OFFCURVE",
"614 1200 OFFCURVE",
"548 1200 CURVE SMOOTH",
"354 1200 LINE SMOOTH",
"288 1200 OFFCURVE",
"254 1154 OFFCURVE",
"254 1074 CURVE SMOOTH",
"254 72 LINE SMOOTH",
"254 -92 OFFCURVE",
"218 -192 OFFCURVE",
"72 -192 CURVE SMOOTH",
"-10 -192 LINE SMOOTH",
"-68 -192 OFFCURVE",
"-100 -224 OFFCURVE",
"-100 -282 CURVE SMOOTH",
"-100 -452 LINE SMOOTH",
"-100 -510 OFFCURVE",
"-68 -542 OFFCURVE",
"-10 -542 CURVE SMOOTH"
);
},
{
closed = 1;
nodes = (
"576 1284 OFFCURVE",
"676 1384 OFFCURVE",
"676 1508 CURVE SMOOTH",
"676 1634 OFFCURVE",
"576 1734 OFFCURVE",
"452 1734 CURVE SMOOTH",
"326 1734 OFFCURVE",
"226 1634 OFFCURVE",
"226 1508 CURVE SMOOTH",
"226 1384 OFFCURVE",
"326 1284 OFFCURVE",
"452 1284 CURVE SMOOTH"
);
}
);
width = 832;
}
);
unicode = 006A;
},
{
glyphname = jdotless;
lastChange = "2020-09-28 21:14:29 +0000";
layers = (
{
anchors = (
{
name = bottom;
position = "{416, -550}";
},
{
name = top;
position = "{454, 1200}";
}
);
layerId = "9B85AB65-32D7-4FED-B27C-3C7447013A9D";
paths = (
{
closed = 1;
nodes = (
"74 -542 LINE SMOOTH",
"464 -542 OFFCURVE",
"648 -318 OFFCURVE",
"648 44 CURVE SMOOTH",
"648 1074 LINE SMOOTH",
"648 1154 OFFCURVE",
"614 1200 OFFCURVE",
"548 1200 CURVE SMOOTH",
"354 1200 LINE SMOOTH",
"288 1200 OFFCURVE",
"254 1154 OFFCURVE",
"254 1074 CURVE SMOOTH",
"254 72 LINE SMOOTH",
"254 -92 OFFCURVE",
"218 -192 OFFCURVE",
"72 -192 CURVE SMOOTH",
"-10 -192 LINE SMOOTH",
"-68 -192 OFFCURVE",
"-100 -224 OFFCURVE",
"-100 -282 CURVE SMOOTH",
"-100 -452 LINE SMOOTH",
"-100 -510 OFFCURVE",
"-68 -542 OFFCURVE",
"-10 -542 CURVE SMOOTH"
);
}
);
width = 832;
}
);
unicode = 0237;
},
{
glyphname = k;
lastChange = "2020-09-28 20:42:33 +0000";
layers = (
{
anchors = (
{
name = bottom;
position = "{650, 0}";
},
{
name = top;
position = "{650, 1500}";
}
);
layerId = "9B85AB65-32D7-4FED-B27C-3C7447013A9D";
paths = (
{
closed = 1;
nodes = (
"1164 0 LINE SMOOTH",
"1242 0 OFFCURVE",
"1263 49 OFFCURVE",
"1214 110 CURVE SMOOTH",
"658 794 LINE",
"426 672 LINE",
"438 560 LINE",
"838 52 LINE SMOOTH",
"869 13 OFFCURVE",
"902 0 OFFCURVE",
"948 0 CURVE SMOOTH"
);
},
{
closed = 1;
nodes = (
"402 0 LINE SMOOTH",
"468 0 OFFCURVE",
"502 46 OFFCURVE",
"502 126 CURVE SMOOTH",
"502 1550 LINE SMOOTH",
"502 1608 OFFCURVE",
"470 1640 OFFCURVE",
"412 1640 CURVE SMOOTH",
"200 1640 LINE SMOOTH",
"142 1640 OFFCURVE",
"110 1608 OFFCURVE",
"110 1550 CURVE SMOOTH",
"110 126 LINE SMOOTH",
"110 46 OFFCURVE",
"154 0 OFFCURVE",
"220 0 CURVE SMOOTH"
);
},
{
closed = 1;
nodes = (
"1194 1094 LINE SMOOTH",
"1245 1151 OFFCURVE",
"1220 1204 OFFCURVE",
"1142 1204 CURVE SMOOTH",
"924 1204 LINE SMOOTH",
"878 1204 OFFCURVE",
"843 1191 OFFCURVE",
"814 1154 CURVE SMOOTH",
"426 672 LINE",
"706 540 LINE"
);
}
);
width = 1300;
}
);
unicode = 006B;
},
{
glyphname = l;
lastChange = "2020-10-01 16:53:03 +0000";
layers = (
{
anchors = (
{
name = bottom;
position = "{338, 0}";
},
{
name = center;
position = "{338, 750}";
},
{
name = top;
position = "{338, 1500}";
},
{
name = topright;
position = "{648, 1500}";
}
);
layerId = "9B85AB65-32D7-4FED-B27C-3C7447013A9D";
paths = (
{
closed = 1;
nodes = (
"434 0 LINE SMOOTH",
"500 0 OFFCURVE",
"534 46 OFFCURVE",
"534 126 CURVE SMOOTH",
"534 1550 LINE SMOOTH",
"534 1608 OFFCURVE",
"502 1640 OFFCURVE",
"444 1640 CURVE SMOOTH",
"230 1640 LINE SMOOTH",
"172 1640 OFFCURVE",
"140 1608 OFFCURVE",
"140 1550 CURVE SMOOTH",
"140 126 LINE SMOOTH",
"140 46 OFFCURVE",
"184 0 OFFCURVE",
"250 0 CURVE SMOOTH"
);
}
);
width = 674;
}
);
unicode = 006C;
},
{
glyphname = lcaron;
lastChange = "2020-09-28 20:42:28 +0000";
layers = (
{
components = (
{
name = l;
}
);
layerId = "9B85AB65-32D7-4FED-B27C-3C7447013A9D";
paths = (
{
closed = 1;
nodes = (
"750 1088 OFFCURVE",
"764 1124 OFFCURVE",
"794 1152 CURVE SMOOTH",
"808 1166 OFFCURVE",
"822 1180 OFFCURVE",
"834 1194 CURVE SMOOTH",
"846 1208 OFFCURVE",
"856 1222 OFFCURVE",
"866 1232 CURVE SMOOTH",
"876 1242 OFFCURVE",
"882 1252 OFFCURVE",
"884 1258 CURVE",
"898 1276 OFFCURVE",
"920 1314 OFFCURVE",
"920 1356 CURVE SMOOTH",
"920 1390 OFFCURVE",
"906 1424 OFFCURVE",
"882 1448 CURVE SMOOTH",
"858 1470 OFFCURVE",
"826 1484 OFFCURVE",
"792 1484 CURVE SMOOTH",
"754 1484 OFFCURVE",
"724 1470 OFFCURVE",
"700 1448 CURVE SMOOTH",
"676 1424 OFFCURVE",
"662 1390 OFFCURVE",
"662 1356 CURVE SMOOTH",
"662 1332 OFFCURVE",
"672 1308 OFFCURVE",
"688 1288 CURVE SMOOTH",
"704 1268 OFFCURVE",
"728 1252 OFFCURVE",
"758 1246 CURVE",
"714 1196 LINE SMOOTH",
"696 1178 OFFCURVE",
"678 1160 OFFCURVE",
"696 1142 CURVE",
"696 1140 OFFCURVE",
"698 1138 OFFCURVE",
"700 1136 CURVE SMOOTH"
);
}
);
width = 980;
}
);
unicode = 013E;
},
{
glyphname = lslash;
lastChange = "2020-09-28 20:42:28 +0000";
layers = (
{
components = (
{
name = l;
transform = "{1, 0, 0, 1, 40, 0}";
},
{
name = slashshortcomb;
transform = "{0.1, 0, 0, 0.1, 40, 0}";
}
);
layerId = "9B85AB65-32D7-4FED-B27C-3C7447013A9D";
paths = (
{
closed = 1;
nodes = (
"694 894 LINE SMOOTH",
"714 912 OFFCURVE",
"730 928 OFFCURVE",
"730 978 CURVE SMOOTH",
"730 1126 LINE SMOOTH",
"730 1156 OFFCURVE",
"706 1182 OFFCURVE",
"682 1160 CURVE SMOOTH",
"98 644 LINE SMOOTH",
"76 624 OFFCURVE",
"62 608 OFFCURVE",
"62 560 CURVE SMOOTH",
"62 412 LINE SMOOTH",
"62 382 OFFCURVE",
"82 352 OFFCURVE",
"110 376 CURVE SMOOTH"
);
}
);
width = 770;
}
);
unicode = 0142;
},
{
glyphname = m;
lastChange = "2020-09-28 20:42:34 +0000";
layers = (
{
anchors = (
{
name = bottom;
position = "{1094, 0}";
},
{
name = top;
position = "{1094, 1200}";
}
);
layerId = "9B85AB65-32D7-4FED-B27C-3C7447013A9D";
paths = (
{
closed = 1;
nodes = (
"1927 0 LINE SMOOTH",
"1993 0 OFFCURVE",
"2047 46 OFFCURVE",
"2047 126 CURVE SMOOTH",
"2047 740 LINE SMOOTH",
"2047 1032 OFFCURVE",
"1977 1248 OFFCURVE",
"1659 1248 CURVE SMOOTH",
"1387 1248 OFFCURVE",
"1229 936 OFFCURVE",
"1229 820 CURVE SMOOTH",
"1229 646 LINE",
"1285 600 LINE",
"1285 630 LINE SMOOTH",
"1285 754 OFFCURVE",
"1347 902 OFFCURVE",
"1487 902 CURVE SMOOTH",
"1601 902 OFFCURVE",
"1655 840 OFFCURVE",
"1655 662 CURVE SMOOTH",
"1655 126 LINE SMOOTH",
"1655 46 OFFCURVE",
"1689 0 OFFCURVE",
"1755 0 CURVE SMOOTH"
);
},
{
closed = 1;
nodes = (
"422 0 LINE SMOOTH",
"488 0 OFFCURVE",
"522 46 OFFCURVE",
"522 126 CURVE SMOOTH",
"522 1110 LINE SMOOTH",
"522 1168 OFFCURVE",
"490 1200 OFFCURVE",
"432 1200 CURVE SMOOTH",
"220 1200 LINE SMOOTH",
"162 1200 OFFCURVE",
"130 1168 OFFCURVE",
"130 1110 CURVE SMOOTH",
"130 126 LINE SMOOTH",
"130 46 OFFCURVE",
"174 0 OFFCURVE",
"240 0 CURVE SMOOTH"
);
},
{
closed = 1;
nodes = (
"1164 0 LINE SMOOTH",
"1230 0 OFFCURVE",
"1284 46 OFFCURVE",
"1284 126 CURVE SMOOTH",
"1284 740 LINE SMOOTH",
"1284 1032 OFFCURVE",
"1214 1248 OFFCURVE",
"896 1248 CURVE SMOOTH",
"624 1248 OFFCURVE",
"466 936 OFFCURVE",
"466 820 CURVE SMOOTH",
"466 646 LINE",
"522 600 LINE",
"522 630 LINE SMOOTH",
"522 754 OFFCURVE",
"584 902 OFFCURVE",
"724 902 CURVE SMOOTH",
"838 902 OFFCURVE",
"892 840 OFFCURVE",
"892 662 CURVE SMOOTH",
"892 126 LINE SMOOTH",
"892 46 OFFCURVE",
"926 0 OFFCURVE",
"992 0 CURVE SMOOTH"
);
}
);
width = 2186;
}
);
unicode = 006D;
},
{
glyphname = n;
lastChange = "2020-09-28 20:42:34 +0000";
layers = (
{
anchors = (
{
name = bottom;
position = "{738, 0}";
},
{
name = top;
position = "{738, 1200}";
}
);
layerId = "9B85AB65-32D7-4FED-B27C-3C7447013A9D";
paths = (
{
closed = 1;
nodes = (
"1224 0 LINE SMOOTH",
"1290 0 OFFCURVE",
"1344 46 OFFCURVE",
"1344 126 CURVE SMOOTH",
"1344 640 LINE SMOOTH",
"1344 1018 OFFCURVE",
"1254 1248 OFFCURVE",
"916 1248 CURVE SMOOTH",
"624 1248 OFFCURVE",
"486 976 OFFCURVE",
"486 860 CURVE SMOOTH",
"486 686 LINE",
"542 640 LINE",
"542 670 LINE SMOOTH",
"542 774 OFFCURVE",
"624 922 OFFCURVE",
"764 922 CURVE SMOOTH",
"898 922 OFFCURVE",
"952 840 OFFCURVE",
"952 642 CURVE SMOOTH",
"952 126 LINE SMOOTH",
"952 46 OFFCURVE",
"986 0 OFFCURVE",
"1052 0 CURVE SMOOTH"
);
},
{
closed = 1;
nodes = (
"442 0 LINE SMOOTH",
"508 0 OFFCURVE",
"542 46 OFFCURVE",
"542 126 CURVE SMOOTH",
"542 1110 LINE SMOOTH",
"542 1168 OFFCURVE",
"510 1200 OFFCURVE",
"452 1200 CURVE SMOOTH",
"240 1200 LINE SMOOTH",
"182 1200 OFFCURVE",
"150 1168 OFFCURVE",
"150 1110 CURVE SMOOTH",
"150 126 LINE SMOOTH",
"150 46 OFFCURVE",
"194 0 OFFCURVE",
"260 0 CURVE SMOOTH"
);
}
);
width = 1474;
}
);
unicode = 006E;
},
{
glyphname = eng;
lastChange = "2020-09-28 20:42:28 +0000";
layers = (
{
components = (
{
name = n;
}
);
layerId = "9B85AB65-32D7-4FED-B27C-3C7447013A9D";
paths = (
{
closed = 1;
nodes = (
"1074 -398 OFFCURVE",
"1174 -328 OFFCURVE",
"1236 -232 CURVE SMOOTH",
"1300 -136 OFFCURVE",
"1324 8 OFFCURVE",
"1324 134 CURVE",
"972 198 LINE",
"972 128 OFFCURVE",
"980 -74 OFFCURVE",
"942 -92 CURVE SMOOTH",
"908 -108 OFFCURVE",
"864 -88 OFFCURVE",
"808 0 CURVE SMOOTH",
"780 44 OFFCURVE",
"736 60 OFFCURVE",
"684 24 CURVE SMOOTH",
"598 -34 LINE SMOOTH",
"562 -58 OFFCURVE",
"544 -102 OFFCURVE",
"568 -150 CURVE SMOOTH",
"588 -192 OFFCURVE",
"614 -234 OFFCURVE",
"648 -276 CURVE SMOOTH",
"718 -358 OFFCURVE",
"808 -398 OFFCURVE",
"916 -398 CURVE SMOOTH"
);
}
);
width = 1484;
}
);
unicode = 014B;
},
{
glyphname = o;
lastChange = "2020-10-01 17:08:04 +0000";
layers = (
{
anchors = (
{
name = bottom;
position = "{768, 0}";
},
{
name = center;
position = "{768, 600}";
},
{
name = ogonek;
position = "{1056, 150}";
},
{
name = top;
position = "{768, 1200}";
},
{
name = topright;
position = "{1061, 1172}";
}
);
layerId = "9B85AB65-32D7-4FED-B27C-3C7447013A9D";
paths = (
{
closed = 1;
nodes = (
"1120 -26 OFFCURVE",
"1426 238 OFFCURVE",
"1426 610 CURVE SMOOTH",
"1426 984 OFFCURVE",
"1120 1248 OFFCURVE",
"768 1248 CURVE SMOOTH",
"414 1248 OFFCURVE",
"110 984 OFFCURVE",
"110 610 CURVE SMOOTH",
"110 238 OFFCURVE",
"414 -26 OFFCURVE",
"768 -26 CURVE SMOOTH"
);
},
{
closed = 1;
nodes = (
"606 302 OFFCURVE",
"478 430 OFFCURVE",
"478 610 CURVE SMOOTH",
"478 792 OFFCURVE",
"606 920 OFFCURVE",
"768 920 CURVE SMOOTH",
"930 920 OFFCURVE",
"1056 792 OFFCURVE",
"1056 610 CURVE SMOOTH",
"1056 430 OFFCURVE",
"930 302 OFFCURVE",
"768 302 CURVE SMOOTH"
);
}
);
width = 1536;
}
);
leftKerningGroup = o;
rightKerningGroup = o;
unicode = 006F;
},
{
glyphname = oslash;
lastChange = "2020-09-28 21:00:25 +0000";
layers = (
{
anchors = (
{
name = top;
position = "{768, 1200}";
}
);
components = (
{
name = o;
}
);
layerId = "9B85AB65-32D7-4FED-B27C-3C7447013A9D";
paths = (
{
closed = 1;
nodes = (
"551 -152 LINE SMOOTH",
"597 -152 OFFCURVE",
"621 -129 OFFCURVE",
"637 -86 CURVE SMOOTH",
"1133 1284 LINE SMOOTH",
"1152 1338 OFFCURVE",
"1124 1372 OFFCURVE",
"1067 1372 CURVE SMOOTH",
"986 1372 LINE SMOOTH",
"939 1372 OFFCURVE",
"915 1350 OFFCURVE",
"899 1307 CURVE SMOOTH",
"403 -64 LINE SMOOTH",
"384 -117 OFFCURVE",
"412 -152 OFFCURVE",
"469 -152 CURVE SMOOTH"
);
}
);
width = 1536;
}
);
unicode = 00F8;
},
{
glyphname = oe;
lastChange = "2020-09-28 20:59:41 +0000";
layers = (
{
anchors = (
{
name = bottom;
position = "{1186, 0}";
},
{
name = top;
position = "{1186, 1200}";
}
);
components = (
{
alignment = -1;
name = e;
transform = "{1, 0, 0, 1, 954, 0}";
}
);
layerId = "9B85AB65-32D7-4FED-B27C-3C7447013A9D";
paths = (
{
closed = 1;
nodes = (
"1120 -26 OFFCURVE",
"1426 238 OFFCURVE",
"1426 610 CURVE SMOOTH",
"1426 984 OFFCURVE",
"1120 1248 OFFCURVE",
"768 1248 CURVE SMOOTH",
"414 1248 OFFCURVE",
"110 984 OFFCURVE",
"110 610 CURVE SMOOTH",
"110 238 OFFCURVE",
"414 -26 OFFCURVE",
"768 -26 CURVE SMOOTH"
);
},
{
closed = 1;
nodes = (
"606 302 OFFCURVE",
"478 430 OFFCURVE",
"478 610 CURVE SMOOTH",
"478 792 OFFCURVE",
"606 920 OFFCURVE",
"768 920 CURVE SMOOTH",
"930 920 OFFCURVE",
"1056 792 OFFCURVE",
"1056 610 CURVE SMOOTH",
"1056 430 OFFCURVE",
"930 302 OFFCURVE",
"768 302 CURVE SMOOTH"
);
}
);
width = 2372;
}
);
unicode = 0153;
},
{
glyphname = p;
lastChange = "2020-09-28 20:42:33 +0000";
layers = (
{
anchors = (
{
name = bottom;
position = "{752, 0}";
},
{
name = top;
position = "{752, 1200}";
}
);
layerId = "9B85AB65-32D7-4FED-B27C-3C7447013A9D";
paths = (
{
closed = 1;
nodes = (
"1200 -48 OFFCURVE",
"1422 202 OFFCURVE",
"1422 580 CURVE SMOOTH",
"1422 972 OFFCURVE",
"1164 1226 OFFCURVE",
"856 1226 CURVE SMOOTH",
"522 1226 OFFCURVE",
"426 916 OFFCURVE",
"426 796 CURVE SMOOTH",
"426 662 LINE",
"502 614 LINE",
"502 742 OFFCURVE",
"584 898 OFFCURVE",
"752 898 CURVE SMOOTH",
"906 898 OFFCURVE",
"982 768 OFFCURVE",
"982 598 CURVE SMOOTH",
"982 400 OFFCURVE",
"898 278 OFFCURVE",
"744 278 CURVE SMOOTH",
"584 278 OFFCURVE",
"502 426 OFFCURVE",
"502 530 CURVE SMOOTH",
"502 560 LINE",
"406 494 LINE",
"406 300 LINE SMOOTH",
"406 184 OFFCURVE",
"564 -48 OFFCURVE",
"856 -48 CURVE SMOOTH"
);
},
{
closed = 1;
nodes = (
"412 -549 LINE SMOOTH",
"470 -549 OFFCURVE",
"502 -518 OFFCURVE",
"502 -459 CURVE SMOOTH",
"502 1074 LINE SMOOTH",
"502 1154 OFFCURVE",
"468 1200 OFFCURVE",
"402 1200 CURVE SMOOTH",
"220 1200 LINE SMOOTH",
"154 1200 OFFCURVE",
"110 1154 OFFCURVE",
"110 1074 CURVE SMOOTH",
"110 -459 LINE SMOOTH",
"110 -518 OFFCURVE",
"142 -549 OFFCURVE",
"200 -549 CURVE SMOOTH"
);
}
);
width = 1532;
}
);
rightKerningGroup = o;
rightMetricsKey = o;
unicode = 0070;
},
{
glyphname = thorn;
lastChange = "2020-09-28 21:00:02 +0000";
layers = (
{
components = (
{
name = b;
}
);
layerId = "9B85AB65-32D7-4FED-B27C-3C7447013A9D";
paths = (
{
closed = 1;
nodes = (
"392 -522 LINE SMOOTH",
"450 -522 OFFCURVE",
"482 -490 OFFCURVE",
"482 -432 CURVE SMOOTH",
"482 1074 LINE SMOOTH",
"482 1154 OFFCURVE",
"448 1200 OFFCURVE",
"382 1200 CURVE SMOOTH",
"190 1200 LINE SMOOTH",
"124 1200 OFFCURVE",
"90 1154 OFFCURVE",
"90 1074 CURVE SMOOTH",
"90 -432 LINE SMOOTH",
"90 -490 OFFCURVE",
"122 -522 OFFCURVE",
"180 -522 CURVE SMOOTH"
);
}
);
width = 1512;
}
);
unicode = 00FE;
},
{
glyphname = r;
lastChange = "2020-09-28 20:42:34 +0000";
layers = (
{
anchors = (
{
name = bottom;
position = "{612, 0}";
},
{
name = top;
position = "{612, 1200}";
}
);
layerId = "9B85AB65-32D7-4FED-B27C-3C7447013A9D";
paths = (
{
closed = 1;
nodes = (
"402 0 LINE SMOOTH",
"468 0 OFFCURVE",
"502 46 OFFCURVE",
"502 126 CURVE SMOOTH",
"502 1110 LINE SMOOTH",
"502 1168 OFFCURVE",
"470 1200 OFFCURVE",
"412 1200 CURVE SMOOTH",
"200 1200 LINE SMOOTH",
"142 1200 OFFCURVE",
"110 1168 OFFCURVE",
"110 1110 CURVE SMOOTH",
"110 126 LINE SMOOTH",
"110 46 OFFCURVE",
"144 0 OFFCURVE",
"210 0 CURVE SMOOTH"
);
},
{
closed = 1;
nodes = (
"502 670 LINE SMOOTH",
"502 774 OFFCURVE",
"524 922 OFFCURVE",
"664 922 CURVE SMOOTH",
"738 922 OFFCURVE",
"784 878 OFFCURVE",
"784 760 CURVE SMOOTH",
"784 702 OFFCURVE",
"818 670 OFFCURVE",
"874 670 CURVE SMOOTH",
"1066 670 LINE SMOOTH",
"1132 670 OFFCURVE",
"1166 716 OFFCURVE",
"1166 796 CURVE SMOOTH",
"1166 836 LINE SMOOTH",
"1166 1064 OFFCURVE",
"1068 1238 OFFCURVE",
"808 1238 CURVE SMOOTH",
"536 1238 OFFCURVE",
"444 998 OFFCURVE",
"444 860 CURVE",
"456 706 LINE",
"502 640 LINE"
);
}
);
width = 1222;
}
);
unicode = 0072;
},
{
glyphname = s;
lastChange = "2020-09-28 20:42:33 +0000";
layers = (
{
anchors = (
{
name = bottom;
position = "{666, 0}";
},
{
name = top;
position = "{666, 1200}";
}
);
layerId = "9B85AB65-32D7-4FED-B27C-3C7447013A9D";
paths = (
{
closed = 1;
nodes = (
"1044 -30 OFFCURVE",
"1202 144 OFFCURVE",
"1202 378 CURVE SMOOTH",
"1202 580 OFFCURVE",
"1034 688 OFFCURVE",
"716 764 CURVE SMOOTH",
"612 788 OFFCURVE",
"514 814 OFFCURVE",
"514 874 CURVE SMOOTH",
"514 930 OFFCURVE",
"572 955 OFFCURVE",
"663 955 CURVE SMOOTH",
"772 955 OFFCURVE",
"868 916 OFFCURVE",
"966 870 CURVE SMOOTH",
"982 862 OFFCURVE",
"996 860 OFFCURVE",
"1012 860 CURVE SMOOTH",
"1038 860 OFFCURVE",
"1062 870 OFFCURVE",
"1074 892 CURVE SMOOTH",
"1156 1036 LINE SMOOTH",
"1166 1054 OFFCURVE",
"1172 1070 OFFCURVE",
"1172 1086 CURVE SMOOTH",
"1172 1106 OFFCURVE",
"1162 1124 OFFCURVE",
"1138 1138 CURVE SMOOTH",
"1050 1188 OFFCURVE",
"890 1250 OFFCURVE",
"696 1250 CURVE SMOOTH",
"426 1250 OFFCURVE",
"140 1146 OFFCURVE",
"140 868 CURVE SMOOTH",
"140 656 OFFCURVE",
"327 526 OFFCURVE",
"604 468 CURVE SMOOTH",
"746 438 OFFCURVE",
"834 409 OFFCURVE",
"834 364 CURVE SMOOTH",
"834 304 OFFCURVE",
"760 286 OFFCURVE",
"686 286 CURVE SMOOTH",
"567 286 OFFCURVE",
"440 322 OFFCURVE",
"330 382 CURVE SMOOTH",
"312 392 OFFCURVE",
"292 396 OFFCURVE",
"276 396 CURVE SMOOTH",
"252 396 OFFCURVE",
"232 386 OFFCURVE",
"220 364 CURVE SMOOTH",
"126 202 LINE SMOOTH",
"116 186 OFFCURVE",
"110 168 OFFCURVE",
"110 152 CURVE SMOOTH",
"110 132 OFFCURVE",
"120 114 OFFCURVE",
"148 98 CURVE SMOOTH",
"300 14 OFFCURVE",
"490 -30 OFFCURVE",
"682 -30 CURVE SMOOTH"
);
}
);
width = 1332;
}
);
unicode = 0073;
},
{
glyphname = germandbls;
lastChange = "2020-09-28 20:54:56 +0000";
layers = (
{
layerId = "9B85AB65-32D7-4FED-B27C-3C7447013A9D";
paths = (
{
closed = 1;
nodes = (
"1012 -28 OFFCURVE",
"1296 91 OFFCURVE",
"1296 424 CURVE SMOOTH",
"1296 674 OFFCURVE",
"1068 692 OFFCURVE",
"1068 746 CURVE SMOOTH",
"1068 815 OFFCURVE",
"1262 838 OFFCURVE",
"1262 1082 CURVE SMOOTH",
"1262 1371 OFFCURVE",
"1004 1523 OFFCURVE",
"707 1523 CURVE SMOOTH",
"354 1523 OFFCURVE",
"100 1308 OFFCURVE",
"100 950 CURVE SMOOTH",
"100 90 LINE SMOOTH",
"100 30 OFFCURVE",
"130 0 OFFCURVE",
"190 0 CURVE SMOOTH",
"374 0 LINE SMOOTH",
"434 0 OFFCURVE",
"464 30 OFFCURVE",
"464 90 CURVE SMOOTH",
"464 884 LINE SMOOTH",
"464 1122 OFFCURVE",
"600 1212 OFFCURVE",
"716 1212 CURVE SMOOTH",
"831 1212 OFFCURVE",
"896 1140 OFFCURVE",
"896 1031 CURVE SMOOTH",
"896 939 OFFCURVE",
"846 915 OFFCURVE",
"746 872 CURVE SMOOTH",
"686 846 OFFCURVE",
"646 794 OFFCURVE",
"646 738 CURVE SMOOTH",
"646 682 OFFCURVE",
"672 638 OFFCURVE",
"734 610 CURVE SMOOTH",
"830 566 OFFCURVE",
"920 515 OFFCURVE",
"920 422 CURVE SMOOTH",
"920 327 OFFCURVE",
"863 287 OFFCURVE",
"735 287 CURVE SMOOTH",
"728 287 OFFCURVE",
"691 291 OFFCURVE",
"661 291 CURVE SMOOTH",
"631 291 OFFCURVE",
"597 281 OFFCURVE",
"586 228 CURVE SMOOTH",
"552 70 LINE SMOOTH",
"551 64 OFFCURVE",
"550 58 OFFCURVE",
"550 53 CURVE SMOOTH",
"550 -9 OFFCURVE",
"626 -28 OFFCURVE",
"698 -28 CURVE SMOOTH"
);
}
);
width = 1390;
}
);
unicode = 00DF;
},
{
glyphname = t;
lastChange = "2020-09-28 20:42:28 +0000";
layers = (
{
anchors = (
{
name = bottom;
position = "{560, 0}";
},
{
name = center;
position = "{560, 600}";
},
{
name = top;
position = "{560, 1200}";
},
{
name = topright;
position = "{1080, 1200}";
}
);
layerId = "9B85AB65-32D7-4FED-B27C-3C7447013A9D";
paths = (
{
closed = 1;
nodes = (
"658 0 LINE SMOOTH",
"724 0 OFFCURVE",
"758 46 OFFCURVE",
"758 126 CURVE SMOOTH",
"758 1462 LINE SMOOTH",
"758 1520 OFFCURVE",
"726 1552 OFFCURVE",
"668 1552 CURVE SMOOTH",
"456 1552 LINE SMOOTH",
"398 1552 OFFCURVE",
"366 1520 OFFCURVE",
"366 1462 CURVE SMOOTH",
"366 126 LINE SMOOTH",
"366 46 OFFCURVE",
"410 0 OFFCURVE",
"476 0 CURVE SMOOTH"
);
},
{
closed = 1;
nodes = (
"972 890 LINE SMOOTH",
"1030 890 OFFCURVE",
"1062 922 OFFCURVE",
"1062 980 CURVE SMOOTH",
"1062 1110 LINE SMOOTH",
"1062 1168 OFFCURVE",
"1030 1200 OFFCURVE",
"972 1200 CURVE SMOOTH",
"150 1200 LINE SMOOTH",
"92 1200 OFFCURVE",
"60 1168 OFFCURVE",
"60 1110 CURVE SMOOTH",
"60 980 LINE SMOOTH",
"60 922 OFFCURVE",
"92 890 OFFCURVE",
"150 890 CURVE SMOOTH"
);
}
);
width = 1120;
}
);
unicode = 0074;
},
{
glyphname = tbar;
lastChange = "2020-10-01 17:09:20 +0000";
layers = (
{
components = (
{
name = t;
}
);
layerId = "9B85AB65-32D7-4FED-B27C-3C7447013A9D";
paths = (
{
closed = 1;
nodes = (
"862 530 LINE SMOOTH",
"924 530 OFFCURVE",
"955 561 OFFCURVE",
"955 622 CURVE SMOOTH",
"955 684 OFFCURVE",
"924 715 OFFCURVE",
"862 715 CURVE SMOOTH",
"262 715 LINE SMOOTH",
"200 715 OFFCURVE",
"169 684 OFFCURVE",
"169 622 CURVE SMOOTH",
"169 561 OFFCURVE",
"200 530 OFFCURVE",
"262 530 CURVE SMOOTH"
);
}
);
width = 1120;
}
);
unicode = 0167;
},
{
glyphname = tcaron;
lastChange = "2020-09-28 20:42:28 +0000";
layers = (
{
components = (
{
name = t;
}
);
layerId = "9B85AB65-32D7-4FED-B27C-3C7447013A9D";
paths = (
{
closed = 1;
nodes = (
"1004 1280 OFFCURVE",
"1018 1316 OFFCURVE",
"1048 1344 CURVE SMOOTH",
"1062 1358 OFFCURVE",
"1076 1372 OFFCURVE",
"1088 1386 CURVE SMOOTH",
"1100 1400 OFFCURVE",
"1110 1414 OFFCURVE",
"1120 1424 CURVE SMOOTH",
"1130 1434 OFFCURVE",
"1136 1444 OFFCURVE",
"1138 1450 CURVE",
"1152 1468 OFFCURVE",
"1174 1506 OFFCURVE",
"1174 1548 CURVE SMOOTH",
"1174 1582 OFFCURVE",
"1160 1616 OFFCURVE",
"1136 1640 CURVE SMOOTH",
"1112 1662 OFFCURVE",
"1080 1676 OFFCURVE",
"1046 1676 CURVE SMOOTH",
"1008 1676 OFFCURVE",
"978 1662 OFFCURVE",
"954 1640 CURVE SMOOTH",
"930 1616 OFFCURVE",
"916 1582 OFFCURVE",
"916 1548 CURVE SMOOTH",
"916 1524 OFFCURVE",
"926 1500 OFFCURVE",
"942 1480 CURVE SMOOTH",
"958 1460 OFFCURVE",
"982 1444 OFFCURVE",
"1012 1438 CURVE",
"968 1388 LINE SMOOTH",
"950 1370 OFFCURVE",
"932 1352 OFFCURVE",
"950 1334 CURVE",
"950 1332 OFFCURVE",
"952 1330 OFFCURVE",
"954 1328 CURVE SMOOTH"
);
}
);
width = 1120;
}
);
unicode = 0165;
},
{
glyphname = u;
lastChange = "2020-10-01 17:08:08 +0000";
layers = (
{
anchors = (
{
name = bottom;
position = "{752, 0}";
},
{
name = ogonek;
position = "{1258, 98}";
},
{
name = top;
position = "{752, 1200}";
},
{
name = topright;
position = "{1244, 1200}";
}
);
layerId = "9B85AB65-32D7-4FED-B27C-3C7447013A9D";
paths = (
{
closed = 1;
nodes = (
"880 -48 OFFCURVE",
"1018 224 OFFCURVE",
"1018 340 CURVE SMOOTH",
"1018 514 LINE",
"962 560 LINE",
"962 530 LINE SMOOTH",
"962 426 OFFCURVE",
"880 278 OFFCURVE",
"740 278 CURVE SMOOTH",
"606 278 OFFCURVE",
"552 360 OFFCURVE",
"552 558 CURVE SMOOTH",
"552 1074 LINE SMOOTH",
"552 1154 OFFCURVE",
"518 1200 OFFCURVE",
"452 1200 CURVE SMOOTH",
"280 1200 LINE SMOOTH",
"214 1200 OFFCURVE",
"160 1154 OFFCURVE",
"160 1074 CURVE SMOOTH",
"160 560 LINE SMOOTH",
"160 182 OFFCURVE",
"250 -48 OFFCURVE",
"588 -48 CURVE SMOOTH"
);
},
{
closed = 1;
nodes = (
"1264 0 LINE SMOOTH",
"1322 0 OFFCURVE",
"1354 32 OFFCURVE",
"1354 90 CURVE SMOOTH",
"1354 1074 LINE SMOOTH",
"1354 1154 OFFCURVE",
"1310 1200 OFFCURVE",
"1244 1200 CURVE SMOOTH",
"1062 1200 LINE SMOOTH",
"996 1200 OFFCURVE",
"962 1154 OFFCURVE",
"962 1074 CURVE SMOOTH",
"962 90 LINE SMOOTH",
"962 32 OFFCURVE",
"994 0 OFFCURVE",
"1052 0 CURVE SMOOTH"
);
}
);
width = 1504;
}
);
unicode = 0075;
},
{
glyphname = v;
lastChange = "2020-09-28 20:42:33 +0000";
layers = (
{
anchors = (
{
name = bottom;
position = "{668, 0}";
},
{
name = top;
position = "{668, 1200}";
}
);
layerId = "9B85AB65-32D7-4FED-B27C-3C7447013A9D";
paths = (
{
closed = 1;
nodes = (
"780 0 LINE SMOOTH",
"824 0 OFFCURVE",
"849 20 OFFCURVE",
"864 58 CURVE SMOOTH",
"1278 1118 LINE SMOOTH",
"1298 1168 OFFCURVE",
"1272 1200 OFFCURVE",
"1218 1200 CURVE SMOOTH",
"996 1200 LINE SMOOTH",
"952 1200 OFFCURVE",
"925 1180 OFFCURVE",
"912 1142 CURVE SMOOTH",
"668 444 LINE",
"424 1142 LINE SMOOTH",
"411 1180 OFFCURVE",
"384 1200 OFFCURVE",
"340 1200 CURVE SMOOTH",
"118 1200 LINE SMOOTH",
"64 1200 OFFCURVE",
"39 1167 OFFCURVE",
"58 1118 CURVE SMOOTH",
"472 58 LINE SMOOTH",
"487 20 OFFCURVE",
"514 0 OFFCURVE",
"558 0 CURVE SMOOTH"
);
}
);
width = 1336;
}
);
unicode = 0076;
},
{
glyphname = w;
lastChange = "2020-09-28 20:42:33 +0000";
layers = (
{
anchors = (
{
name = bottom;
position = "{934, 0}";
},
{
name = top;
position = "{934, 1200}";
}
);
layerId = "9B85AB65-32D7-4FED-B27C-3C7447013A9D";
paths = (
{
closed = 1;
nodes = (
"1432 0 LINE SMOOTH",
"1476 0 OFFCURVE",
"1506 20 OFFCURVE",
"1516 58 CURVE SMOOTH",
"1782 1118 LINE SMOOTH",
"1795 1168 OFFCURVE",
"1776 1200 OFFCURVE",
"1722 1200 CURVE SMOOTH",
"1514 1200 LINE SMOOTH",
"1470 1200 OFFCURVE",
"1437 1180 OFFCURVE",
"1430 1142 CURVE SMOOTH",
"1300 480 LINE",
"1088 1142 LINE SMOOTH",
"1076 1180 OFFCURVE",
"1048 1200 OFFCURVE",
"1004 1200 CURVE SMOOTH",
"874 1200 LINE SMOOTH",
"820 1200 OFFCURVE",
"799 1168 OFFCURVE",
"814 1118 CURVE SMOOTH",
"1124 58 LINE SMOOTH",
"1135 20 OFFCURVE",
"1166 0 OFFCURVE",
"1210 0 CURVE SMOOTH"
);
},
{
closed = 1;
nodes = (
"648 0 LINE SMOOTH",
"692 0 OFFCURVE",
"721 20 OFFCURVE",
"732 58 CURVE SMOOTH",
"1042 1118 LINE SMOOTH",
"1057 1168 OFFCURVE",
"1036 1200 OFFCURVE",
"982 1200 CURVE SMOOTH",
"852 1200 LINE SMOOTH",
"808 1200 OFFCURVE",
"780 1180 OFFCURVE",
"768 1142 CURVE SMOOTH",
"556 480 LINE",
"426 1142 LINE SMOOTH",
"419 1180 OFFCURVE",
"386 1200 OFFCURVE",
"342 1200 CURVE SMOOTH",
"134 1200 LINE SMOOTH",
"80 1200 OFFCURVE",
"61 1168 OFFCURVE",
"74 1118 CURVE SMOOTH",
"340 58 LINE SMOOTH",
"350 20 OFFCURVE",
"382 0 OFFCURVE",
"426 0 CURVE SMOOTH"
);
}
);
width = 1868;
}
);
unicode = 0077;
},
{
glyphname = x;
lastChange = "2020-09-28 21:34:08 +0000";
layers = (
{
anchors = (
{
name = bottom;
position = "{719, 0}";
},
{
name = top;
position = "{719, 1200}";
}
);
layerId = "9B85AB65-32D7-4FED-B27C-3C7447013A9D";
paths = (
{
closed = 1;
nodes = (
"409 0 LINE SMOOTH",
"455 0 OFFCURVE",
"487 14 OFFCURVE",
"509 48 CURVE SMOOTH",
"719 370 LINE",
"929 48 LINE SMOOTH",
"951 14 OFFCURVE",
"983 0 OFFCURVE",
"1027 0 CURVE SMOOTH",
"1285 0 LINE SMOOTH",
"1353 0 OFFCURVE",
"1376 36 OFFCURVE",
"1337 90 CURVE SMOOTH",
"965 604 LINE",
"1333 1110 LINE SMOOTH",
"1369 1160 OFFCURVE",
"1349 1200 OFFCURVE",
"1281 1200 CURVE SMOOTH",
"1023 1200 LINE SMOOTH",
"975 1200 OFFCURVE",
"945 1190 OFFCURVE",
"921 1152 CURVE SMOOTH",
"719 838 LINE",
"515 1152 LINE SMOOTH",
"493 1186 OFFCURVE",
"461 1200 OFFCURVE",
"415 1200 CURVE SMOOTH",
"155 1200 LINE SMOOTH",
"89 1200 OFFCURVE",
"66 1161 OFFCURVE",
"103 1110 CURVE SMOOTH",
"471 604 LINE",
"99 90 LINE SMOOTH",
"60 36 OFFCURVE",
"83 0 OFFCURVE",
"151 0 CURVE SMOOTH"
);
}
);
width = 1436;
}
);
unicode = 0078;
},
{
glyphname = y;
lastChange = "2020-09-28 21:25:34 +0000";
layers = (
{
anchors = (
{
name = bottom;
position = "{1053, 0}";
},
{
name = top;
position = "{678, 1200}";
}
);
layerId = "9B85AB65-32D7-4FED-B27C-3C7447013A9D";
paths = (
{
closed = 1;
nodes = (
"220 -562 LINE SMOOTH",
"548 -562 OFFCURVE",
"714 -416 OFFCURVE",
"892 58 CURVE SMOOTH",
"1290 1118 LINE SMOOTH",
"1309 1168 OFFCURVE",
"1284 1200 OFFCURVE",
"1230 1200 CURVE SMOOTH",
"988 1200 LINE SMOOTH",
"944 1200 OFFCURVE",
"916 1180 OFFCURVE",
"904 1142 CURVE SMOOTH",
"688 460 LINE",
"472 1142 LINE SMOOTH",
"460 1180 OFFCURVE",
"432 1200 OFFCURVE",
"388 1200 CURVE SMOOTH",
"140 1200 LINE SMOOTH",
"86 1200 OFFCURVE",
"61 1168 OFFCURVE",
"80 1118 CURVE SMOOTH",
"506 2 LINE",
"476 -84 OFFCURVE",
"423 -232 OFFCURVE",
"278 -232 CURVE SMOOTH",
"196 -232 LINE SMOOTH",
"138 -232 OFFCURVE",
"106 -264 OFFCURVE",
"106 -322 CURVE SMOOTH",
"106 -472 LINE SMOOTH",
"106 -530 OFFCURVE",
"138 -562 OFFCURVE",
"196 -562 CURVE SMOOTH"
);
}
);
width = 1356;
}
);
unicode = 0079;
},
{
glyphname = z;
lastChange = "2020-09-28 20:42:28 +0000";
layers = (
{
anchors = (
{
name = bottom;
position = "{652, 0}";
},
{
name = center;
position = "{652, 600}";
},
{
name = top;
position = "{652, 1200}";
}
);
layerId = "9B85AB65-32D7-4FED-B27C-3C7447013A9D";
paths = (
{
closed = 1;
nodes = (
"1070 0 LINE SMOOTH",
"1122 0 OFFCURVE",
"1152 26 OFFCURVE",
"1152 72 CURVE SMOOTH",
"1152 238 LINE SMOOTH",
"1152 284 OFFCURVE",
"1122 310 OFFCURVE",
"1070 310 CURVE SMOOTH",
"580 310 LINE",
"1090 908 LINE SMOOTH",
"1114 938 OFFCURVE",
"1124 962 OFFCURVE",
"1124 998 CURVE SMOOTH",
"1124 1128 LINE SMOOTH",
"1124 1174 OFFCURVE",
"1094 1200 OFFCURVE",
"1040 1200 CURVE SMOOTH",
"260 1200 LINE SMOOTH",
"206 1200 OFFCURVE",
"176 1174 OFFCURVE",
"176 1128 CURVE SMOOTH",
"176 962 LINE SMOOTH",
"176 916 OFFCURVE",
"206 890 OFFCURVE",
"260 890 CURVE SMOOTH",
"690 890 LINE",
"184 294 LINE SMOOTH",
"160 264 OFFCURVE",
"150 240 OFFCURVE",
"150 204 CURVE SMOOTH",
"150 72 LINE SMOOTH",
"150 26 OFFCURVE",
"180 0 OFFCURVE",
"230 0 CURVE SMOOTH"
);
}
);
width = 1302;
}
);
unicode = 007A;
},
{
glyphname = ordfeminine;
lastChange = "2020-09-28 21:18:54 +0000";
layers = (
{
layerId = "9B85AB65-32D7-4FED-B27C-3C7447013A9D";
paths = (
{
closed = 1;
nodes = (
"505 974 LINE SMOOTH",
"574 974 OFFCURVE",
"597 1003 OFFCURVE",
"597 1044 CURVE SMOOTH",
"597 1084 OFFCURVE",
"575 1108 OFFCURVE",
"538 1108 CURVE SMOOTH",
"529 1108 LINE",
"529 1300 LINE SMOOTH",
"529 1405 OFFCURVE",
"421 1467 OFFCURVE",
"292 1467 CURVE SMOOTH",
"225 1467 OFFCURVE",
"158 1456 OFFCURVE",
"128 1446 CURVE SMOOTH",
"95 1435 OFFCURVE",
"61 1417 OFFCURVE",
"61 1380 CURVE SMOOTH",
"61 1335 OFFCURVE",
"99 1319 OFFCURVE",
"141 1319 CURVE SMOOTH",
"149 1319 OFFCURVE",
"165 1319 OFFCURVE",
"180 1323 CURVE SMOOTH",
"208 1330 OFFCURVE",
"234 1333 OFFCURVE",
"274 1333 CURVE SMOOTH",
"323 1333 OFFCURVE",
"357 1306 OFFCURVE",
"357 1280 CURVE SMOOTH",
"357 1266 LINE",
"347 1274 OFFCURVE",
"310 1292 OFFCURVE",
"248 1292 CURVE SMOOTH",
"141 1292 OFFCURVE",
"40 1243 OFFCURVE",
"40 1133 CURVE SMOOTH",
"40 1031 OFFCURVE",
"118 969 OFFCURVE",
"221 969 CURVE SMOOTH",
"312 969 OFFCURVE",
"351 1020 OFFCURVE",
"359 1054 CURVE",
"359 1040 LINE SMOOTH",
"359 999 OFFCURVE",
"389 974 OFFCURVE",
"450 974 CURVE SMOOTH"
);
},
{
closed = 1;
nodes = (
"357 1134 LINE",
"350 1122 OFFCURVE",
"319 1091 OFFCURVE",
"282 1091 CURVE SMOOTH",
"234 1091 OFFCURVE",
"214 1110 OFFCURVE",
"214 1139 CURVE SMOOTH",
"214 1169 OFFCURVE",
"239 1190 OFFCURVE",
"284 1190 CURVE SMOOTH",
"318 1190 OFFCURVE",
"350 1179 OFFCURVE",
"357 1172 CURVE"
);
}
);
width = 637;
}
);
unicode = 00AA;
},
{
glyphname = ordmasculine;
lastChange = "2020-09-28 21:19:02 +0000";
layers = (
{
layerId = "9B85AB65-32D7-4FED-B27C-3C7447013A9D";
paths = (
{
closed = 1;
nodes = (
"432 971 OFFCURVE",
"548 1088 OFFCURVE",
"548 1227 CURVE SMOOTH",
"548 1364 OFFCURVE",
"432 1480 OFFCURVE",
"295 1480 CURVE SMOOTH",
"156 1480 OFFCURVE",
"40 1364 OFFCURVE",
"40 1227 CURVE SMOOTH",
"40 1088 OFFCURVE",
"156 971 OFFCURVE",
"295 971 CURVE SMOOTH"
);
},
{
closed = 1;
nodes = (
"259 1162 OFFCURVE",
"230 1190 OFFCURVE",
"230 1227 CURVE SMOOTH",
"230 1261 OFFCURVE",
"259 1290 OFFCURVE",
"295 1290 CURVE SMOOTH",
"329 1290 OFFCURVE",
"358 1261 OFFCURVE",
"358 1227 CURVE SMOOTH",
"358 1190 OFFCURVE",
"329 1162 OFFCURVE",
"295 1162 CURVE SMOOTH"
);
}
);
width = 588;
}
);
unicode = 00BA;
},
{
glyphname = zero;
lastChange = "2020-09-28 20:42:28 +0000";
layers = (
{
layerId = "9B85AB65-32D7-4FED-B27C-3C7447013A9D";
paths = (
{
closed = 1;
nodes = (
"1286 -36 OFFCURVE",
"1526 310 OFFCURVE",
"1526 740 CURVE SMOOTH",
"1526 1170 OFFCURVE",
"1286 1518 OFFCURVE",
"852 1518 CURVE SMOOTH",
"418 1518 OFFCURVE",
"180 1170 OFFCURVE",
"180 740 CURVE SMOOTH",
"180 310 OFFCURVE",
"418 -36 OFFCURVE",
"852 -36 CURVE SMOOTH"
);
},
{
closed = 1;
nodes = (
"674 322 OFFCURVE",
"578 478 OFFCURVE",
"578 740 CURVE SMOOTH",
"578 1002 OFFCURVE",
"674 1160 OFFCURVE",
"852 1160 CURVE SMOOTH",
"1030 1160 OFFCURVE",
"1126 1002 OFFCURVE",
"1126 740 CURVE SMOOTH",
"1126 478 OFFCURVE",
"1030 322 OFFCURVE",
"852 322 CURVE SMOOTH"
);
}
);
width = 1706;
}
);
unicode = 0030;
},
{
glyphname = zero.ss01;
lastChange = "2020-10-01 16:57:23 +0000";
layers = (
{
components = (
{
name = zero;
}
);
layerId = "9B85AB65-32D7-4FED-B27C-3C7447013A9D";
paths = (
{
closed = 1;
nodes = (
"882 594 LINE SMOOTH",
"942 594 OFFCURVE",
"972 624 OFFCURVE",
"972 684 CURVE SMOOTH",
"972 784 LINE SMOOTH",
"972 844 OFFCURVE",
"942 874 OFFCURVE",
"882 874 CURVE SMOOTH",
"824 874 LINE SMOOTH",
"764 874 OFFCURVE",
"734 844 OFFCURVE",
"734 784 CURVE SMOOTH",
"734 684 LINE SMOOTH",
"734 624 OFFCURVE",
"764 594 OFFCURVE",
"824 594 CURVE SMOOTH"
);
}
);
width = 1706;
}
);
leftMetricsKey = zero;
rightMetricsKey = zero;
},
{
glyphname = one;
lastChange = "2020-09-28 20:42:28 +0000";
layers = (
{
layerId = "9B85AB65-32D7-4FED-B27C-3C7447013A9D";
paths = (
{
closed = 1;
nodes = (
"694 0 LINE SMOOTH",
"752 0 OFFCURVE",
"784 32 OFFCURVE",
"784 90 CURVE SMOOTH",
"784 1390 LINE SMOOTH",
"784 1448 OFFCURVE",
"752 1480 OFFCURVE",
"694 1480 CURVE SMOOTH",
"480 1480 LINE SMOOTH",
"432 1480 OFFCURVE",
"400 1464 OFFCURVE",
"370 1426 CURVE SMOOTH",
"146 1136 LINE SMOOTH",
"100 1076 OFFCURVE",
"124 1026 OFFCURVE",
"200 1026 CURVE SMOOTH",
"366 1026 LINE",
"366 90 LINE SMOOTH",
"366 32 OFFCURVE",
"398 0 OFFCURVE",
"456 0 CURVE SMOOTH"
);
}
);
width = 982;
}
);
unicode = 0031;
},
{
glyphname = one.tf;
lastChange = "2020-10-01 16:55:24 +0000";
layers = (
{
components = (
{
name = one;
transform = "{1, 0, 0, 1, 260, 0}";
}
);
layerId = "9B85AB65-32D7-4FED-B27C-3C7447013A9D";
paths = (
{
closed = 1;
nodes = (
"1285 0 LINE SMOOTH",
"1345 0 OFFCURVE",
"1375 30 OFFCURVE",
"1375 90 CURVE SMOOTH",
"1375 190 LINE SMOOTH",
"1375 250 OFFCURVE",
"1345 280 OFFCURVE",
"1285 280 CURVE SMOOTH",
"390 280 LINE SMOOTH",
"330 280 OFFCURVE",
"300 250 OFFCURVE",
"300 190 CURVE SMOOTH",
"300 90 LINE SMOOTH",
"300 30 OFFCURVE",
"330 0 OFFCURVE",
"390 0 CURVE SMOOTH"
);
}
);
width = 1600;
}
);
},
{
glyphname = two;
lastChange = "2020-09-28 20:42:33 +0000";
layers = (
{
layerId = "9B85AB65-32D7-4FED-B27C-3C7447013A9D";
paths = (
{
closed = 1;
nodes = (
"1224 0 LINE SMOOTH",
"1282 0 OFFCURVE",
"1314 32 OFFCURVE",
"1314 90 CURVE SMOOTH",
"1314 270 LINE SMOOTH",
"1314 328 OFFCURVE",
"1282 360 OFFCURVE",
"1224 360 CURVE SMOOTH",
"774 360 LINE",
"894 452 OFFCURVE",
"1038 570 OFFCURVE",
"1118 648 CURVE SMOOTH",
"1236 764 OFFCURVE",
"1308 892 OFFCURVE",
"1308 1050 CURVE SMOOTH",
"1308 1336 OFFCURVE",
"1065 1522 OFFCURVE",
"760 1522 CURVE SMOOTH",
"511 1522 OFFCURVE",
"337 1398 OFFCURVE",
"198 1190 CURVE SMOOTH",
"186 1171 OFFCURVE",
"179 1153 OFFCURVE",
"179 1136 CURVE SMOOTH",
"179 1110 OFFCURVE",
"194 1087 OFFCURVE",
"224 1066 CURVE SMOOTH",
"388 952 LINE SMOOTH",
"408 938 OFFCURVE",
"426 931 OFFCURVE",
"444 931 CURVE SMOOTH",
"469 931 OFFCURVE",
"493 946 OFFCURVE",
"514 974 CURVE SMOOTH",
"572 1054 OFFCURVE",
"654 1142 OFFCURVE",
"760 1142 CURVE SMOOTH",
"854 1142 OFFCURVE",
"922 1090 OFFCURVE",
"922 1010 CURVE SMOOTH",
"922 966 OFFCURVE",
"898 920 OFFCURVE",
"872 898 CURVE SMOOTH",
"282 382 LINE SMOOTH",
"240 346 OFFCURVE",
"192 300 OFFCURVE",
"192 208 CURVE SMOOTH",
"192 90 LINE SMOOTH",
"192 32 OFFCURVE",
"224 0 OFFCURVE",
"282 0 CURVE SMOOTH"
);
}
);
width = 1494;
}
);
unicode = 0032;
},
{
glyphname = three;
lastChange = "2020-09-28 20:42:33 +0000";
layers = (
{
layerId = "9B85AB65-32D7-4FED-B27C-3C7447013A9D";
paths = (
{
closed = 1;
nodes = (
"1055 -38 OFFCURVE",
"1314 118 OFFCURVE",
"1314 410 CURVE SMOOTH",
"1314 584 OFFCURVE",
"1184 716 OFFCURVE",
"1050 742 CURVE",
"1186 780 OFFCURVE",
"1310 916 OFFCURVE",
"1310 1106 CURVE SMOOTH",
"1310 1368 OFFCURVE",
"1044 1523 OFFCURVE",
"765 1523 CURVE SMOOTH",
"504 1523 OFFCURVE",
"334 1410 OFFCURVE",
"194 1204 CURVE SMOOTH",
"185 1191 OFFCURVE",
"180 1180 OFFCURVE",
"180 1170 CURVE SMOOTH",
"180 1148 OFFCURVE",
"202 1131 OFFCURVE",
"240 1108 CURVE SMOOTH",
"400 1012 LINE SMOOTH",
"418 1001 OFFCURVE",
"435 996 OFFCURVE",
"450 996 CURVE SMOOTH",
"477 996 OFFCURVE",
"501 1011 OFFCURVE",
"524 1040 CURVE SMOOTH",
"577 1108 OFFCURVE",
"646 1164 OFFCURVE",
"756 1164 CURVE SMOOTH",
"858 1164 OFFCURVE",
"942 1094 OFFCURVE",
"942 1030 CURVE SMOOTH",
"942 992 OFFCURVE",
"936 904 OFFCURVE",
"794 878 CURVE SMOOTH",
"734 866 OFFCURVE",
"702 840 OFFCURVE",
"702 784 CURVE SMOOTH",
"702 690 LINE SMOOTH",
"702 634 OFFCURVE",
"734 608 OFFCURVE",
"796 598 CURVE SMOOTH",
"942 574 OFFCURVE",
"946 492 OFFCURVE",
"946 454 CURVE SMOOTH",
"946 384 OFFCURVE",
"861 316 OFFCURVE",
"760 316 CURVE SMOOTH",
"645 316 OFFCURVE",
"572 384 OFFCURVE",
"524 448 CURVE SMOOTH",
"503 476 OFFCURVE",
"480 489 OFFCURVE",
"454 489 CURVE SMOOTH",
"437 489 OFFCURVE",
"420 484 OFFCURVE",
"400 472 CURVE SMOOTH",
"212 360 LINE SMOOTH",
"193 349 OFFCURVE",
"188 334 OFFCURVE",
"188 318 CURVE SMOOTH",
"188 290 OFFCURVE",
"209 258 OFFCURVE",
"224 234 CURVE SMOOTH",
"302 118 OFFCURVE",
"438 -38 OFFCURVE",
"748 -38 CURVE SMOOTH"
);
}
);
width = 1474;
}
);
unicode = 0033;
},
{
glyphname = four;
lastChange = "2020-09-28 20:42:33 +0000";
layers = (
{
layerId = "9B85AB65-32D7-4FED-B27C-3C7447013A9D";
paths = (
{
closed = 1;
nodes = (
"1034 0 LINE SMOOTH",
"1092 0 OFFCURVE",
"1124 32 OFFCURVE",
"1124 90 CURVE SMOOTH",
"1124 314 LINE",
"1232 314 LINE SMOOTH",
"1290 314 OFFCURVE",
"1322 346 OFFCURVE",
"1322 404 CURVE SMOOTH",
"1322 532 LINE SMOOTH",
"1322 590 OFFCURVE",
"1290 622 OFFCURVE",
"1232 622 CURVE SMOOTH",
"1124 622 LINE",
"1124 1390 LINE SMOOTH",
"1124 1448 OFFCURVE",
"1092 1480 OFFCURVE",
"1034 1480 CURVE SMOOTH",
"822 1480 LINE SMOOTH",
"774 1480 OFFCURVE",
"739 1464 OFFCURVE",
"712 1428 CURVE SMOOTH",
"140 670 LINE SMOOTH",
"113 635 OFFCURVE",
"100 604 OFFCURVE",
"100 558 CURVE SMOOTH",
"100 404 LINE SMOOTH",
"100 346 OFFCURVE",
"132 314 OFFCURVE",
"190 314 CURVE SMOOTH",
"736 314 LINE",
"736 90 LINE SMOOTH",
"736 32 OFFCURVE",
"768 0 OFFCURVE",
"826 0 CURVE SMOOTH"
);
},
{
closed = 1;
nodes = (
"736 970 LINE",
"736 622 LINE",
"494 622 LINE"
);
}
);
width = 1422;
}
);
unicode = 0034;
},
{
glyphname = five;
lastChange = "2020-09-28 20:42:33 +0000";
layers = (
{
layerId = "9B85AB65-32D7-4FED-B27C-3C7447013A9D";
paths = (
{
closed = 1;
nodes = (
"1062 -38 OFFCURVE",
"1290 190 OFFCURVE",
"1290 518 CURVE SMOOTH",
"1290 812 OFFCURVE",
"1092 1022 OFFCURVE",
"784 1022 CURVE SMOOTH",
"620 1022 OFFCURVE",
"556 932 OFFCURVE",
"552 926 CURVE",
"586 1150 LINE",
"1110 1150 LINE SMOOTH",
"1168 1150 OFFCURVE",
"1200 1182 OFFCURVE",
"1200 1240 CURVE SMOOTH",
"1200 1390 LINE SMOOTH",
"1200 1448 OFFCURVE",
"1168 1480 OFFCURVE",
"1110 1480 CURVE SMOOTH",
"372 1480 LINE SMOOTH",
"318 1480 OFFCURVE",
"284 1452 OFFCURVE",
"276 1398 CURVE SMOOTH",
"186 774 LINE SMOOTH",
"185 766 OFFCURVE",
"184 758 OFFCURVE",
"184 751 CURVE SMOOTH",
"184 708 OFFCURVE",
"208 680 OFFCURVE",
"256 670 CURVE SMOOTH",
"402 638 LINE SMOOTH",
"412 636 OFFCURVE",
"422 635 OFFCURVE",
"431 635 CURVE SMOOTH",
"464 635 OFFCURVE",
"491 648 OFFCURVE",
"522 672 CURVE SMOOTH",
"585 720 OFFCURVE",
"652 740 OFFCURVE",
"714 740 CURVE SMOOTH",
"844 740 OFFCURVE",
"912 664 OFFCURVE",
"912 520 CURVE SMOOTH",
"912 410 OFFCURVE",
"850 320 OFFCURVE",
"718 320 CURVE SMOOTH",
"608 320 OFFCURVE",
"546 358 OFFCURVE",
"494 414 CURVE SMOOTH",
"472 440 OFFCURVE",
"448 454 OFFCURVE",
"422 454 CURVE SMOOTH",
"406 454 OFFCURVE",
"390 450 OFFCURVE",
"370 436 CURVE SMOOTH",
"204 324 LINE SMOOTH",
"174 304 OFFCURVE",
"160 280 OFFCURVE",
"160 254 CURVE SMOOTH",
"160 236 OFFCURVE",
"168 218 OFFCURVE",
"184 198 CURVE SMOOTH",
"324 36 OFFCURVE",
"492 -38 OFFCURVE",
"724 -38 CURVE SMOOTH"
);
}
);
width = 1470;
}
);
unicode = 0035;
},
{
glyphname = six;
lastChange = "2020-09-28 20:42:33 +0000";
layers = (
{
layerId = "9B85AB65-32D7-4FED-B27C-3C7447013A9D";
paths = (
{
closed = 1;
nodes = (
"1022 -38 OFFCURVE",
"1258 196 OFFCURVE",
"1258 484 CURVE SMOOTH",
"1258 834 OFFCURVE",
"955 944 OFFCURVE",
"792 944 CURVE SMOOTH",
"754 944 OFFCURVE",
"724 938 OFFCURVE",
"706 928 CURVE",
"952 1374 LINE SMOOTH",
"962 1392 OFFCURVE",
"967 1409 OFFCURVE",
"967 1424 CURVE SMOOTH",
"967 1459 OFFCURVE",
"940 1482 OFFCURVE",
"890 1482 CURVE SMOOTH",
"700 1482 LINE SMOOTH",
"630 1482 OFFCURVE",
"598 1462 OFFCURVE",
"574 1418 CURVE SMOOTH",
"254 840 LINE SMOOTH",
"194 732 OFFCURVE",
"160 618 OFFCURVE",
"160 486 CURVE SMOOTH",
"160 194 OFFCURVE",
"404 -38 OFFCURVE",
"714 -38 CURVE SMOOTH"
);
},
{
closed = 1;
nodes = (
"612 296 OFFCURVE",
"526 382 OFFCURVE",
"526 488 CURVE SMOOTH",
"526 594 OFFCURVE",
"612 680 OFFCURVE",
"718 680 CURVE SMOOTH",
"824 680 OFFCURVE",
"910 594 OFFCURVE",
"910 488 CURVE SMOOTH",
"910 382 OFFCURVE",
"824 296 OFFCURVE",
"718 296 CURVE SMOOTH"
);
}
);
width = 1418;
}
);
unicode = 0036;
},
{
glyphname = seven;
lastChange = "2020-10-01 16:53:37 +0000";
layers = (
{
layerId = "9B85AB65-32D7-4FED-B27C-3C7447013A9D";
paths = (
{
closed = 1;
nodes = (
"604 0 LINE SMOOTH",
"654 0 OFFCURVE",
"693 20 OFFCURVE",
"710 64 CURVE SMOOTH",
"1138 1142 LINE SMOOTH",
"1153 1180 OFFCURVE",
"1164 1210 OFFCURVE",
"1164 1254 CURVE SMOOTH",
"1164 1390 LINE SMOOTH",
"1164 1448 OFFCURVE",
"1132 1480 OFFCURVE",
"1074 1480 CURVE SMOOTH",
"250 1480 LINE SMOOTH",
"192 1480 OFFCURVE",
"160 1448 OFFCURVE",
"160 1390 CURVE SMOOTH",
"160 1240 LINE SMOOTH",
"160 1182 OFFCURVE",
"192 1150 OFFCURVE",
"250 1150 CURVE SMOOTH",
"732 1150 LINE",
"316 108 LINE SMOOTH",
"290 44 OFFCURVE",
"308 0 OFFCURVE",
"380 0 CURVE SMOOTH"
);
}
);
width = 1344;
}
);
unicode = 0037;
},
{
glyphname = eight;
lastChange = "2020-09-28 20:42:34 +0000";
layers = (
{
layerId = "9B85AB65-32D7-4FED-B27C-3C7447013A9D";
paths = (
{
closed = 1;
nodes = (
"1106 -38 OFFCURVE",
"1342 160 OFFCURVE",
"1342 434 CURVE SMOOTH",
"1342 598 OFFCURVE",
"1234 734 OFFCURVE",
"1098 784 CURVE",
"1216 844 OFFCURVE",
"1288 972 OFFCURVE",
"1288 1094 CURVE SMOOTH",
"1288 1348 OFFCURVE",
"1044 1520 OFFCURVE",
"752 1520 CURVE SMOOTH",
"458 1520 OFFCURVE",
"214 1348 OFFCURVE",
"214 1094 CURVE SMOOTH",
"214 972 OFFCURVE",
"284 844 OFFCURVE",
"404 784 CURVE",
"268 734 OFFCURVE",
"160 598 OFFCURVE",
"160 434 CURVE SMOOTH",
"160 160 OFFCURVE",
"398 -38 OFFCURVE",
"752 -38 CURVE SMOOTH"
);
},
{
closed = 1;
nodes = (
"640 250 OFFCURVE",
"548 344 OFFCURVE",
"548 456 CURVE SMOOTH",
"548 568 OFFCURVE",
"640 660 OFFCURVE",
"752 660 CURVE SMOOTH",
"864 660 OFFCURVE",
"956 568 OFFCURVE",
"956 456 CURVE SMOOTH",
"956 344 OFFCURVE",
"864 250 OFFCURVE",
"752 250 CURVE SMOOTH"
);
},
{
closed = 1;
nodes = (
"654 898 OFFCURVE",
"576 976 OFFCURVE",
"576 1072 CURVE SMOOTH",
"576 1168 OFFCURVE",
"654 1246 OFFCURVE",
"750 1246 CURVE SMOOTH",
"846 1246 OFFCURVE",
"924 1168 OFFCURVE",
"924 1072 CURVE SMOOTH",
"924 976 OFFCURVE",
"846 898 OFFCURVE",
"750 898 CURVE SMOOTH"
);
}
);
width = 1502;
}
);
unicode = 0038;
},
{
glyphname = nine;
lastChange = "2020-09-28 20:42:34 +0000";
layers = (
{
layerId = "9B85AB65-32D7-4FED-B27C-3C7447013A9D";
paths = (
{
closed = 1;
nodes = (
"720 0 LINE SMOOTH",
"790 0 OFFCURVE",
"822 20 OFFCURVE",
"846 64 CURVE SMOOTH",
"1166 642 LINE SMOOTH",
"1226 750 OFFCURVE",
"1260 864 OFFCURVE",
"1260 996 CURVE SMOOTH",
"1260 1288 OFFCURVE",
"1016 1520 OFFCURVE",
"706 1520 CURVE SMOOTH",
"398 1520 OFFCURVE",
"162 1286 OFFCURVE",
"162 998 CURVE SMOOTH",
"162 648 OFFCURVE",
"464 538 OFFCURVE",
"628 538 CURVE SMOOTH",
"666 538 OFFCURVE",
"696 544 OFFCURVE",
"714 554 CURVE",
"468 108 LINE SMOOTH",
"458 90 OFFCURVE",
"454 72 OFFCURVE",
"454 58 CURVE SMOOTH",
"454 22 OFFCURVE",
"480 0 OFFCURVE",
"530 0 CURVE SMOOTH"
);
},
{
closed = 1;
nodes = (
"596 802 OFFCURVE",
"510 888 OFFCURVE",
"510 994 CURVE SMOOTH",
"510 1100 OFFCURVE",
"596 1186 OFFCURVE",
"702 1186 CURVE SMOOTH",
"808 1186 OFFCURVE",
"894 1100 OFFCURVE",
"894 994 CURVE SMOOTH",
"894 888 OFFCURVE",
"808 802 OFFCURVE",
"702 802 CURVE SMOOTH"
);
}
);
width = 1418;
}
);
unicode = 0039;
},
{
glyphname = period;
lastChange = "2020-09-28 20:42:48 +0000";
layers = (
{
layerId = "9B85AB65-32D7-4FED-B27C-3C7447013A9D";
paths = (
{
closed = 1;
nodes = (
"429 -32 OFFCURVE",
"522 65 OFFCURVE",
"522 178 CURVE SMOOTH",
"522 294 OFFCURVE",
"428 390 OFFCURVE",
"312 390 CURVE SMOOTH",
"192 390 OFFCURVE",
"100 298 OFFCURVE",
"100 178 CURVE SMOOTH",
"100 66 OFFCURVE",
"191 -32 OFFCURVE",
"312 -32 CURVE SMOOTH"
);
}
);
width = 668;
}
);
unicode = 002E;
},
{
glyphname = comma;
lastChange = "2020-09-28 20:43:45 +0000";
layers = (
{
components = (
{
name = period;
transform = "{1, 0, 0, 1, -32, 0}";
}
);
layerId = "9B85AB65-32D7-4FED-B27C-3C7447013A9D";
paths = (
{
closed = 1;
nodes = (
"307 -298 OFFCURVE",
"490 -129 OFFCURVE",
"490 178 CURVE",
"266 -8 LINE",
"266 -183 OFFCURVE",
"82 -154 OFFCURVE",
"82 -250 CURVE SMOOTH",
"82 -283 OFFCURVE",
"106 -298 OFFCURVE",
"142 -298 CURVE SMOOTH"
);
}
);
width = 688;
}
);
unicode = 002C;
},
{
glyphname = exclam;
lastChange = "2020-09-28 20:43:56 +0000";
layers = (
{
layerId = "9B85AB65-32D7-4FED-B27C-3C7447013A9D";
paths = (
{
closed = 1;
nodes = (
"326 514 LINE SMOOTH",
"384 514 OFFCURVE",
"416 544 OFFCURVE",
"418 602 CURVE SMOOTH",
"456 1382 LINE SMOOTH",
"458 1444 OFFCURVE",
"430 1474 OFFCURVE",
"368 1474 CURVE SMOOTH",
"174 1474 LINE SMOOTH",
"112 1474 OFFCURVE",
"84 1444 OFFCURVE",
"86 1382 CURVE SMOOTH",
"126 602 LINE SMOOTH",
"128 544 OFFCURVE",
"160 514 OFFCURVE",
"218 514 CURVE SMOOTH"
);
},
{
closed = 1;
nodes = (
"389 -32 OFFCURVE",
"482 65 OFFCURVE",
"482 178 CURVE SMOOTH",
"482 294 OFFCURVE",
"388 390 OFFCURVE",
"272 390 CURVE SMOOTH",
"152 390 OFFCURVE",
"60 298 OFFCURVE",
"60 178 CURVE SMOOTH",
"60 66 OFFCURVE",
"151 -32 OFFCURVE",
"272 -32 CURVE SMOOTH"
);
}
);
width = 674;
}
);
unicode = 0021;
},
{
glyphname = question;
lastChange = "2020-09-28 20:45:29 +0000";
layers = (
{
layerId = "9B85AB65-32D7-4FED-B27C-3C7447013A9D";
paths = (
{
closed = 1;
nodes = (
"623 514 LINE SMOOTH",
"677 514 OFFCURVE",
"698 569 OFFCURVE",
"713 611 CURVE SMOOTH",
"731 660 OFFCURVE",
"791 703 OFFCURVE",
"854 748 CURVE SMOOTH",
"973 833 OFFCURVE",
"1064 952 OFFCURVE",
"1064 1099 CURVE SMOOTH",
"1064 1347 OFFCURVE",
"846 1512 OFFCURVE",
"592 1512 CURVE SMOOTH",
"396 1512 OFFCURVE",
"201 1416 OFFCURVE",
"98 1246 CURVE SMOOTH",
"86 1228 OFFCURVE",
"80 1211 OFFCURVE",
"80 1196 CURVE SMOOTH",
"80 1167 OFFCURVE",
"101 1147 OFFCURVE",
"134 1126 CURVE SMOOTH",
"258 1046 LINE SMOOTH",
"273 1036 OFFCURVE",
"289 1035 OFFCURVE",
"304 1035 CURVE SMOOTH",
"332 1035 OFFCURVE",
"358 1048 OFFCURVE",
"380 1076 CURVE SMOOTH",
"436 1140 OFFCURVE",
"502 1198 OFFCURVE",
"592 1198 CURVE SMOOTH",
"666 1198 OFFCURVE",
"721 1151 OFFCURVE",
"721 1085 CURVE SMOOTH",
"721 1029 OFFCURVE",
"673 977 OFFCURVE",
"606 922 CURVE SMOOTH",
"462 802 OFFCURVE",
"376 690 OFFCURVE",
"376 584 CURVE SMOOTH",
"376 528 OFFCURVE",
"408 514 OFFCURVE",
"466 514 CURVE SMOOTH"
);
},
{
closed = 1;
nodes = (
"664 -32 OFFCURVE",
"758 64 OFFCURVE",
"758 178 CURVE SMOOTH",
"758 298 OFFCURVE",
"666 390 OFFCURVE",
"546 390 CURVE SMOOTH",
"434 390 OFFCURVE",
"336 299 OFFCURVE",
"336 178 CURVE SMOOTH",
"336 62 OFFCURVE",
"430 -32 OFFCURVE",
"546 -32 CURVE SMOOTH"
);
}
);
width = 1178;
}
);
unicode = 003F;
},
{
glyphname = bullet;
lastChange = "2020-09-28 20:45:44 +0000";
layers = (
{
layerId = "9B85AB65-32D7-4FED-B27C-3C7447013A9D";
paths = (
{
closed = 1;
nodes = (
"629 424 OFFCURVE",
"758 551 OFFCURVE",
"758 710 CURVE SMOOTH",
"758 870 OFFCURVE",
"630 998 OFFCURVE",
"470 998 CURVE SMOOTH",
"310 998 OFFCURVE",
"182 870 OFFCURVE",
"182 710 CURVE SMOOTH",
"182 551 OFFCURVE",
"311 424 OFFCURVE",
"470 424 CURVE SMOOTH"
);
}
);
width = 932;
}
);
unicode = 2022;
},
{
glyphname = asterisk;
lastChange = "2020-09-28 20:46:26 +0000";
layers = (
{
layerId = "9B85AB65-32D7-4FED-B27C-3C7447013A9D";
paths = (
{
closed = 1;
nodes = (
"221 1199 OFFCURVE",
"221 1187 CURVE SMOOTH",
"221 1150 OFFCURVE",
"259 1120 OFFCURVE",
"299 1120 CURVE SMOOTH",
"320 1120 OFFCURVE",
"343 1128 OFFCURVE",
"358 1150 CURVE SMOOTH",
"414 1234 LINE",
"470 1150 LINE SMOOTH",
"484 1129 OFFCURVE",
"506 1121 OFFCURVE",
"527 1121 CURVE SMOOTH",
"566 1121 OFFCURVE",
"606 1152 OFFCURVE",
"606 1189 CURVE SMOOTH",
"606 1201 OFFCURVE",
"601 1213 OFFCURVE",
"592 1226 CURVE SMOOTH",
"528 1313 LINE",
"622 1344 LINE SMOOTH",
"656 1355 OFFCURVE",
"669 1383 OFFCURVE",
"669 1410 CURVE SMOOTH",
"669 1445 OFFCURVE",
"643 1479 OFFCURVE",
"604 1479 CURVE SMOOTH",
"596 1479 OFFCURVE",
"587 1477 OFFCURVE",
"578 1474 CURVE",
"484 1448 LINE",
"484 1540 LINE SMOOTH",
"484 1586 OFFCURVE",
"462 1610 OFFCURVE",
"416 1610 CURVE SMOOTH",
"414 1610 LINE SMOOTH",
"368 1610 OFFCURVE",
"344 1586 OFFCURVE",
"344 1540 CURVE SMOOTH",
"344 1448 LINE",
"250 1474 LINE",
"241 1477 OFFCURVE",
"232 1479 OFFCURVE",
"224 1479 CURVE SMOOTH",
"185 1479 OFFCURVE",
"160 1444 OFFCURVE",
"160 1409 CURVE SMOOTH",
"160 1383 OFFCURVE",
"173 1355 OFFCURVE",
"206 1344 CURVE SMOOTH",
"300 1313 LINE",
"236 1226 LINE SMOOTH",
"227 1213 OFFCURVE"
);
}
);
width = 828;
}
);
unicode = 002A;
},
{
glyphname = numbersign;
lastChange = "2020-09-28 20:47:58 +0000";
layers = (
{
layerId = "9B85AB65-32D7-4FED-B27C-3C7447013A9D";
paths = (
{
closed = 1;
nodes = (
"519 1 LINE SMOOTH",
"573 1 OFFCURVE",
"608 27 OFFCURVE",
"619 77 CURVE SMOOTH",
"915 1378 LINE SMOOTH",
"929 1441 OFFCURVE",
"905 1480 OFFCURVE",
"839 1480 CURVE SMOOTH",
"691 1480 LINE SMOOTH",
"637 1480 OFFCURVE",
"602 1454 OFFCURVE",
"591 1404 CURVE SMOOTH",
"295 103 LINE SMOOTH",
"281 41 OFFCURVE",
"305 1 OFFCURVE",
"371 1 CURVE SMOOTH"
);
},
{
closed = 1;
nodes = (
"1128 1 LINE SMOOTH",
"1182 1 OFFCURVE",
"1217 27 OFFCURVE",
"1228 77 CURVE SMOOTH",
"1524 1378 LINE SMOOTH",
"1538 1441 OFFCURVE",
"1514 1480 OFFCURVE",
"1448 1480 CURVE SMOOTH",
"1300 1480 LINE SMOOTH",
"1246 1480 OFFCURVE",
"1211 1454 OFFCURVE",
"1200 1404 CURVE SMOOTH",
"904 103 LINE SMOOTH",
"890 41 OFFCURVE",
"914 1 OFFCURVE",
"980 1 CURVE SMOOTH"
);
},
{
closed = 1;
nodes = (
"1600 880 LINE SMOOTH",
"1660 880 OFFCURVE",
"1696 910 OFFCURVE",
"1709 970 CURVE SMOOTH",
"1730 1070 LINE SMOOTH",
"1743 1130 OFFCURVE",
"1719 1160 OFFCURVE",
"1659 1160 CURVE SMOOTH",
"306 1160 LINE SMOOTH",
"246 1160 OFFCURVE",
"210 1130 OFFCURVE",
"197 1070 CURVE SMOOTH",
"176 970 LINE SMOOTH",
"163 910 OFFCURVE",
"187 880 OFFCURVE",
"247 880 CURVE SMOOTH"
);
},
{
closed = 1;
nodes = (
"1497 350 LINE SMOOTH",
"1557 350 OFFCURVE",
"1593 380 OFFCURVE",
"1606 440 CURVE SMOOTH",
"1627 540 LINE SMOOTH",
"1640 600 OFFCURVE",
"1616 630 OFFCURVE",
"1556 630 CURVE SMOOTH",
"203 630 LINE SMOOTH",
"143 630 OFFCURVE",
"107 600 OFFCURVE",
"94 540 CURVE SMOOTH",
"73 440 LINE SMOOTH",
"60 380 OFFCURVE",
"84 350 OFFCURVE",
"144 350 CURVE SMOOTH"
);
}
);
width = 1803;
}
);
unicode = 0023;
},
{
glyphname = slash;
lastChange = "2020-09-28 20:42:28 +0000";
layers = (
{
layerId = "9B85AB65-32D7-4FED-B27C-3C7447013A9D";
paths = (
{
closed = 1;
nodes = (
"314 -148 LINE SMOOTH",
"368 -148 OFFCURVE",
"400 -122 OFFCURVE",
"414 -72 CURVE SMOOTH",
"888 1514 LINE SMOOTH",
"906 1576 OFFCURVE",
"878 1616 OFFCURVE",
"812 1616 CURVE SMOOTH",
"664 1616 LINE SMOOTH",
"610 1616 OFFCURVE",
"578 1590 OFFCURVE",
"564 1540 CURVE SMOOTH",
"90 -46 LINE SMOOTH",
"72 -108 OFFCURVE",
"100 -148 OFFCURVE",
"166 -148 CURVE SMOOTH"
);
}
);
width = 980;
}
);
unicode = 002F;
},
{
glyphname = backslash;
lastChange = "2020-09-28 20:42:28 +0000";
layers = (
{
layerId = "9B85AB65-32D7-4FED-B27C-3C7447013A9D";
paths = (
{
closed = 1;
nodes = (
"812 -148 LINE SMOOTH",
"878 -148 OFFCURVE",
"906 -108 OFFCURVE",
"888 -46 CURVE SMOOTH",
"414 1540 LINE SMOOTH",
"400 1590 OFFCURVE",
"368 1616 OFFCURVE",
"314 1616 CURVE SMOOTH",
"166 1616 LINE SMOOTH",
"100 1616 OFFCURVE",
"72 1576 OFFCURVE",
"90 1514 CURVE SMOOTH",
"564 -72 LINE SMOOTH",
"578 -122 OFFCURVE",
"610 -148 OFFCURVE",
"664 -148 CURVE SMOOTH"
);
}
);
width = 1014;
}
);
unicode = 005C;
},
{
glyphname = parenleft;
lastChange = "2020-09-28 20:48:14 +0000";
layers = (
{
layerId = "9B85AB65-32D7-4FED-B27C-3C7447013A9D";
paths = (
{
closed = 1;
nodes = (
"506 -404 LINE SMOOTH",
"560 -374 OFFCURVE",
"572 -328 OFFCURVE",
"538 -266 CURVE SMOOTH",
"413 -9 OFFCURVE",
"332 314 OFFCURVE",
"332 604 CURVE SMOOTH",
"332 888 OFFCURVE",
"429 1254 OFFCURVE",
"560 1510 CURVE SMOOTH",
"594 1572 OFFCURVE",
"582 1620 OFFCURVE",
"528 1648 CURVE SMOOTH",
"462 1684 LINE SMOOTH",
"418 1706 OFFCURVE",
"380 1696 OFFCURVE",
"352 1654 CURVE SMOOTH",
"159 1352 OFFCURVE",
"60 979 OFFCURVE",
"60 604 CURVE SMOOTH",
"60 313 OFFCURVE",
"123 -37 OFFCURVE",
"250 -268 CURVE SMOOTH",
"314 -388 OFFCURVE",
"352 -484 OFFCURVE",
"440 -438 CURVE SMOOTH"
);
}
);
width = 670;
}
);
unicode = 0028;
},
{
glyphname = braceleft;
lastChange = "2020-09-28 20:42:28 +0000";
layers = (
{
layerId = "9B85AB65-32D7-4FED-B27C-3C7447013A9D";
paths = (
{
closed = 1;
nodes = (
"472 -392 LINE SMOOTH",
"522 -392 OFFCURVE",
"546 -360 OFFCURVE",
"546 -294 CURVE SMOOTH",
"546 -248 LINE SMOOTH",
"546 -182 OFFCURVE",
"522 -150 OFFCURVE",
"472 -150 CURVE SMOOTH",
"432 -150 OFFCURVE",
"404 -112 OFFCURVE",
"404 -54 CURVE SMOOTH",
"404 414 LINE SMOOTH",
"404 560 OFFCURVE",
"320 614 OFFCURVE",
"238 638 CURVE",
"324 656 OFFCURVE",
"404 730 OFFCURVE",
"404 862 CURVE SMOOTH",
"404 1390 LINE SMOOTH",
"404 1444 OFFCURVE",
"432 1486 OFFCURVE",
"472 1486 CURVE SMOOTH",
"522 1486 OFFCURVE",
"546 1520 OFFCURVE",
"546 1584 CURVE SMOOTH",
"546 1628 LINE SMOOTH",
"546 1694 OFFCURVE",
"522 1726 OFFCURVE",
"472 1726 CURVE SMOOTH",
"394 1726 LINE SMOOTH",
"240 1726 OFFCURVE",
"156 1602 OFFCURVE",
"156 1376 CURVE SMOOTH",
"156 838 LINE SMOOTH",
"156 780 OFFCURVE",
"130 748 OFFCURVE",
"80 748 CURVE SMOOTH",
"66 748 OFFCURVE",
"40 736 OFFCURVE",
"40 690 CURVE SMOOTH",
"40 586 LINE SMOOTH",
"40 540 OFFCURVE",
"66 528 OFFCURVE",
"80 528 CURVE SMOOTH",
"130 528 OFFCURVE",
"156 498 OFFCURVE",
"156 438 CURVE SMOOTH",
"156 -40 LINE SMOOTH",
"156 -266 OFFCURVE",
"240 -392 OFFCURVE",
"394 -392 CURVE SMOOTH"
);
}
);
width = 646;
}
);
unicode = 007B;
},
{
glyphname = bracketleft;
lastChange = "2020-09-28 20:48:29 +0000";
layers = (
{
layerId = "9B85AB65-32D7-4FED-B27C-3C7447013A9D";
paths = (
{
closed = 1;
nodes = (
"506 -479 LINE SMOOTH",
"566 -479 OFFCURVE",
"596 -449 OFFCURVE",
"596 -389 CURVE SMOOTH",
"596 -329 LINE SMOOTH",
"596 -269 OFFCURVE",
"566 -239 OFFCURVE",
"506 -239 CURVE SMOOTH",
"318 -239 LINE",
"318 1490 LINE",
"506 1490 LINE SMOOTH",
"566 1490 OFFCURVE",
"596 1520 OFFCURVE",
"596 1580 CURVE SMOOTH",
"596 1638 LINE SMOOTH",
"596 1698 OFFCURVE",
"566 1728 OFFCURVE",
"506 1728 CURVE SMOOTH",
"170 1728 LINE SMOOTH",
"110 1728 OFFCURVE",
"80 1698 OFFCURVE",
"80 1638 CURVE SMOOTH",
"80 -389 LINE SMOOTH",
"80 -449 OFFCURVE",
"110 -479 OFFCURVE",
"170 -479 CURVE SMOOTH"
);
}
);
width = 730;
}
);
unicode = 005B;
},
{
glyphname = hyphen;
lastChange = "2020-09-28 20:42:28 +0000";
layers = (
{
layerId = "9B85AB65-32D7-4FED-B27C-3C7447013A9D";
paths = (
{
closed = 1;
nodes = (
"854 594 LINE SMOOTH",
"914 594 OFFCURVE",
"944 624 OFFCURVE",
"944 684 CURVE SMOOTH",
"944 784 LINE SMOOTH",
"944 844 OFFCURVE",
"914 874 OFFCURVE",
"854 874 CURVE SMOOTH",
"154 874 LINE SMOOTH",
"94 874 OFFCURVE",
"64 844 OFFCURVE",
"64 784 CURVE SMOOTH",
"64 684 LINE SMOOTH",
"64 624 OFFCURVE",
"94 594 OFFCURVE",
"154 594 CURVE SMOOTH"
);
}
);
width = 1178;
}
);
unicode = 002D;
},
{
glyphname = endash;
lastChange = "2020-09-28 20:42:28 +0000";
layers = (
{
layerId = "9B85AB65-32D7-4FED-B27C-3C7447013A9D";
paths = (
{
closed = 1;
nodes = (
"954 594 LINE SMOOTH",
"1014 594 OFFCURVE",
"1044 624 OFFCURVE",
"1044 684 CURVE SMOOTH",
"1044 784 LINE SMOOTH",
"1044 844 OFFCURVE",
"1014 874 OFFCURVE",
"954 874 CURVE SMOOTH",
"154 874 LINE SMOOTH",
"94 874 OFFCURVE",
"64 844 OFFCURVE",
"64 784 CURVE SMOOTH",
"64 684 LINE SMOOTH",
"64 624 OFFCURVE",
"94 594 OFFCURVE",
"154 594 CURVE SMOOTH"
);
}
);
width = 1278;
}
);
unicode = 2013;
},
{
glyphname = emdash;
lastChange = "2020-09-28 20:42:28 +0000";
layers = (
{
layerId = "9B85AB65-32D7-4FED-B27C-3C7447013A9D";
paths = (
{
closed = 1;
nodes = (
"1094 594 LINE SMOOTH",
"1154 594 OFFCURVE",
"1184 624 OFFCURVE",
"1184 684 CURVE SMOOTH",
"1184 784 LINE SMOOTH",
"1184 844 OFFCURVE",
"1154 874 OFFCURVE",
"1094 874 CURVE SMOOTH",
"154 874 LINE SMOOTH",
"94 874 OFFCURVE",
"64 844 OFFCURVE",
"64 784 CURVE SMOOTH",
"64 684 LINE SMOOTH",
"64 624 OFFCURVE",
"94 594 OFFCURVE",
"154 594 CURVE SMOOTH"
);
}
);
width = 1418;
}
);
unicode = 2014;
},
{
glyphname = underscore;
lastChange = "2020-09-28 20:42:28 +0000";
layers = (
{
layerId = "9B85AB65-32D7-4FED-B27C-3C7447013A9D";
paths = (
{
closed = 1;
nodes = (
"1048 -166 LINE SMOOTH",
"1108 -166 OFFCURVE",
"1138 -136 OFFCURVE",
"1138 -76 CURVE SMOOTH",
"1138 76 LINE SMOOTH",
"1138 136 OFFCURVE",
"1108 166 OFFCURVE",
"1048 166 CURVE SMOOTH",
"150 166 LINE SMOOTH",
"90 166 OFFCURVE",
"60 136 OFFCURVE",
"60 76 CURVE SMOOTH",
"60 -76 LINE SMOOTH",
"60 -136 OFFCURVE",
"90 -166 OFFCURVE",
"150 -166 CURVE SMOOTH"
);
}
);
width = 1320;
}
);
unicode = 005F;
},
{
glyphname = quotedblleft;
lastChange = "2020-09-28 20:50:27 +0000";
layers = (
{
layerId = "9B85AB65-32D7-4FED-B27C-3C7447013A9D";
paths = (
{
closed = 1;
nodes = (
"745 1436 OFFCURVE",
"704 1386 OFFCURVE",
"633 1297 CURVE SMOOTH",
"610 1268 OFFCURVE",
"577 1209 OFFCURVE",
"577 1139 CURVE SMOOTH",
"577 1025 OFFCURVE",
"668 933 OFFCURVE",
"783 933 CURVE SMOOTH",
"894 933 OFFCURVE",
"991 1022 OFFCURVE",
"991 1139 CURVE SMOOTH",
"991 1222 OFFCURVE",
"927 1299 OFFCURVE",
"837 1315 CURVE",
"921 1402 LINE SMOOTH",
"967 1450 OFFCURVE",
"965 1469 OFFCURVE",
"934 1497 CURVE SMOOTH",
"901 1527 LINE SMOOTH",
"881 1545 OFFCURVE",
"852 1543 OFFCURVE",
"812 1503 CURVE SMOOTH"
);
},
{
closed = 1;
nodes = (
"230 1436 OFFCURVE",
"189 1386 OFFCURVE",
"118 1297 CURVE SMOOTH",
"95 1268 OFFCURVE",
"62 1209 OFFCURVE",
"62 1139 CURVE SMOOTH",
"62 1025 OFFCURVE",
"153 933 OFFCURVE",
"268 933 CURVE SMOOTH",
"379 933 OFFCURVE",
"476 1022 OFFCURVE",
"476 1139 CURVE SMOOTH",
"476 1222 OFFCURVE",
"412 1299 OFFCURVE",
"322 1315 CURVE",
"406 1402 LINE SMOOTH",
"452 1450 OFFCURVE",
"450 1469 OFFCURVE",
"419 1497 CURVE SMOOTH",
"386 1527 LINE SMOOTH",
"366 1545 OFFCURVE",
"337 1543 OFFCURVE",
"297 1503 CURVE SMOOTH"
);
}
);
width = 1092;
}
);
unicode = 201C;
},
{
glyphname = quotedblright;
lastChange = "2020-09-28 20:50:21 +0000";
layers = (
{
layerId = "9B85AB65-32D7-4FED-B27C-3C7447013A9D";
paths = (
{
closed = 1;
nodes = (
"338 1045 OFFCURVE",
"379 1095 OFFCURVE",
"450 1184 CURVE SMOOTH",
"473 1213 OFFCURVE",
"506 1272 OFFCURVE",
"506 1342 CURVE SMOOTH",
"506 1456 OFFCURVE",
"415 1548 OFFCURVE",
"300 1548 CURVE SMOOTH",
"189 1548 OFFCURVE",
"92 1459 OFFCURVE",
"92 1342 CURVE SMOOTH",
"92 1259 OFFCURVE",
"156 1182 OFFCURVE",
"246 1166 CURVE",
"162 1079 LINE SMOOTH",
"116 1031 OFFCURVE",
"118 1012 OFFCURVE",
"149 984 CURVE SMOOTH",
"182 954 LINE SMOOTH",
"202 936 OFFCURVE",
"231 938 OFFCURVE",
"271 978 CURVE SMOOTH"
);
},
{
closed = 1;
nodes = (
"853 1045 OFFCURVE",
"894 1095 OFFCURVE",
"965 1184 CURVE SMOOTH",
"988 1213 OFFCURVE",
"1021 1272 OFFCURVE",
"1021 1342 CURVE SMOOTH",
"1021 1456 OFFCURVE",
"930 1548 OFFCURVE",
"815 1548 CURVE SMOOTH",
"704 1548 OFFCURVE",
"607 1459 OFFCURVE",
"607 1342 CURVE SMOOTH",
"607 1259 OFFCURVE",
"671 1182 OFFCURVE",
"761 1166 CURVE",
"677 1079 LINE SMOOTH",
"631 1031 OFFCURVE",
"633 1012 OFFCURVE",
"664 984 CURVE SMOOTH",
"697 954 LINE SMOOTH",
"717 936 OFFCURVE",
"746 938 OFFCURVE",
"786 978 CURVE SMOOTH"
);
}
);
width = 1116;
}
);
unicode = 201D;
},
{
glyphname = quoteleft;
lastChange = "2020-09-28 20:50:13 +0000";
layers = (
{
layerId = "9B85AB65-32D7-4FED-B27C-3C7447013A9D";
paths = (
{
closed = 1;
nodes = (
"240 1436 OFFCURVE",
"199 1386 OFFCURVE",
"128 1297 CURVE SMOOTH",
"105 1268 OFFCURVE",
"72 1209 OFFCURVE",
"72 1139 CURVE SMOOTH",
"72 1025 OFFCURVE",
"163 933 OFFCURVE",
"278 933 CURVE SMOOTH",
"389 933 OFFCURVE",
"486 1022 OFFCURVE",
"486 1139 CURVE SMOOTH",
"486 1222 OFFCURVE",
"422 1299 OFFCURVE",
"332 1315 CURVE",
"416 1402 LINE SMOOTH",
"462 1450 OFFCURVE",
"460 1469 OFFCURVE",
"429 1497 CURVE SMOOTH",
"396 1527 LINE SMOOTH",
"376 1545 OFFCURVE",
"347 1543 OFFCURVE",
"307 1503 CURVE SMOOTH"
);
}
);
width = 612;
}
);
unicode = 2018;
},
{
glyphname = quoteright;
lastChange = "2020-09-28 20:50:00 +0000";
layers = (
{
layerId = "9B85AB65-32D7-4FED-B27C-3C7447013A9D";
paths = (
{
closed = 1;
nodes = (
"318 1045 OFFCURVE",
"359 1095 OFFCURVE",
"430 1184 CURVE SMOOTH",
"453 1213 OFFCURVE",
"486 1272 OFFCURVE",
"486 1342 CURVE SMOOTH",
"486 1456 OFFCURVE",
"395 1548 OFFCURVE",
"280 1548 CURVE SMOOTH",
"169 1548 OFFCURVE",
"72 1459 OFFCURVE",
"72 1342 CURVE SMOOTH",
"72 1259 OFFCURVE",
"136 1182 OFFCURVE",
"226 1166 CURVE",
"142 1079 LINE SMOOTH",
"96 1031 OFFCURVE",
"98 1012 OFFCURVE",
"129 984 CURVE SMOOTH",
"162 954 LINE SMOOTH",
"182 936 OFFCURVE",
"211 938 OFFCURVE",
"251 978 CURVE SMOOTH"
);
}
);
width = 612;
}
);
unicode = 2019;
},
{
glyphname = quotedbl;
lastChange = "2020-09-28 20:51:44 +0000";
layers = (
{
layerId = "9B85AB65-32D7-4FED-B27C-3C7447013A9D";
paths = (
{
closed = 1;
nodes = (
"157 1035 LINE SMOOTH",
"165 975 OFFCURVE",
"188 944 OFFCURVE",
"248 944 CURVE SMOOTH",
"290 944 LINE SMOOTH",
"350 944 OFFCURVE",
"373 975 OFFCURVE",
"381 1035 CURVE SMOOTH",
"431 1389 LINE SMOOTH",
"440 1450 OFFCURVE",
"400 1481 OFFCURVE",
"340 1481 CURVE SMOOTH",
"198 1481 LINE SMOOTH",
"138 1481 OFFCURVE",
"98 1450 OFFCURVE",
"107 1389 CURVE SMOOTH"
);
},
{
closed = 1;
nodes = (
"538 1035 LINE SMOOTH",
"548 975 OFFCURVE",
"569 944 OFFCURVE",
"629 944 CURVE SMOOTH",
"671 944 LINE SMOOTH",
"731 944 OFFCURVE",
"752 975 OFFCURVE",
"762 1035 CURVE SMOOTH",
"812 1389 LINE SMOOTH",
"821 1450 OFFCURVE",
"781 1481 OFFCURVE",
"721 1481 CURVE SMOOTH",
"579 1481 LINE SMOOTH",
"519 1481 OFFCURVE",
"479 1450 OFFCURVE",
"488 1389 CURVE SMOOTH"
);
}
);
width = 896;
}
);
unicode = 0022;
},
{
glyphname = quotesingle;
lastChange = "2020-09-28 20:51:38 +0000";
layers = (
{
layerId = "9B85AB65-32D7-4FED-B27C-3C7447013A9D";
paths = (
{
closed = 1;
nodes = (
"127 1035 LINE SMOOTH",
"137 975 OFFCURVE",
"158 944 OFFCURVE",
"218 944 CURVE SMOOTH",
"260 944 LINE SMOOTH",
"320 944 OFFCURVE",
"341 975 OFFCURVE",
"351 1035 CURVE SMOOTH",
"401 1389 LINE SMOOTH",
"410 1450 OFFCURVE",
"370 1481 OFFCURVE",
"310 1481 CURVE SMOOTH",
"168 1481 LINE SMOOTH",
"108 1481 OFFCURVE",
"68 1450 OFFCURVE",
"77 1389 CURVE SMOOTH"
);
}
);
width = 498;
}
);
unicode = 0027;
},
{
glyphname = cent;
lastChange = "2020-09-28 20:42:28 +0000";
layers = (
{
components = (
{
name = C;
transform = "{0.73, 0, 0, 0.73, 14, 194}";
}
);
layerId = "9B85AB65-32D7-4FED-B27C-3C7447013A9D";
paths = (
{
closed = 1;
nodes = (
"712 1140 LINE SMOOTH",
"772 1140 OFFCURVE",
"802 1170 OFFCURVE",
"802 1230 CURVE SMOOTH",
"802 1390 LINE SMOOTH",
"802 1450 OFFCURVE",
"772 1480 OFFCURVE",
"712 1480 CURVE SMOOTH",
"634 1480 LINE SMOOTH",
"574 1480 OFFCURVE",
"544 1450 OFFCURVE",
"544 1390 CURVE SMOOTH",
"544 1230 LINE SMOOTH",
"544 1170 OFFCURVE",
"574 1140 OFFCURVE",
"634 1140 CURVE SMOOTH"
);
},
{
closed = 1;
nodes = (
"712 0 LINE SMOOTH",
"772 0 OFFCURVE",
"802 30 OFFCURVE",
"802 90 CURVE SMOOTH",
"802 250 LINE SMOOTH",
"802 310 OFFCURVE",
"772 340 OFFCURVE",
"712 340 CURVE SMOOTH",
"634 340 LINE SMOOTH",
"574 340 OFFCURVE",
"544 310 OFFCURVE",
"544 250 CURVE SMOOTH",
"544 90 LINE SMOOTH",
"544 30 OFFCURVE",
"574 0 OFFCURVE",
"634 0 CURVE SMOOTH"
);
}
);
width = 1312;
}
);
unicode = 00A2;
},
{
glyphname = dollar;
lastChange = "2020-09-28 20:42:28 +0000";
layers = (
{
components = (
{
alignment = -1;
name = s;
transform = "{1, 0, 0, 1, 0, 138}";
}
);
layerId = "9B85AB65-32D7-4FED-B27C-3C7447013A9D";
paths = (
{
closed = 1;
nodes = (
"712 1140 LINE SMOOTH",
"772 1140 OFFCURVE",
"802 1170 OFFCURVE",
"802 1230 CURVE SMOOTH",
"802 1430 LINE SMOOTH",
"802 1490 OFFCURVE",
"772 1520 OFFCURVE",
"712 1520 CURVE SMOOTH",
"634 1520 LINE SMOOTH",
"574 1520 OFFCURVE",
"544 1490 OFFCURVE",
"544 1430 CURVE SMOOTH",
"544 1230 LINE SMOOTH",
"544 1170 OFFCURVE",
"574 1140 OFFCURVE",
"634 1140 CURVE SMOOTH"
);
},
{
closed = 1;
nodes = (
"712 0 LINE SMOOTH",
"772 0 OFFCURVE",
"802 30 OFFCURVE",
"802 90 CURVE SMOOTH",
"802 250 LINE SMOOTH",
"802 310 OFFCURVE",
"772 340 OFFCURVE",
"712 340 CURVE SMOOTH",
"634 340 LINE SMOOTH",
"574 340 OFFCURVE",
"544 310 OFFCURVE",
"544 250 CURVE SMOOTH",
"544 90 LINE SMOOTH",
"544 30 OFFCURVE",
"574 0 OFFCURVE",
"634 0 CURVE SMOOTH"
);
}
);
width = 1332;
}
);
unicode = 0024;
},
{
glyphname = euro;
lastChange = "2020-09-28 20:42:34 +0000";
layers = (
{
layerId = "9B85AB65-32D7-4FED-B27C-3C7447013A9D";
paths = (
{
closed = 1;
nodes = (
"1038 0 LINE SMOOTH",
"1098 0 OFFCURVE",
"1128 32 OFFCURVE",
"1128 96 CURVE SMOOTH",
"1128 224 LINE SMOOTH",
"1128 288 OFFCURVE",
"1098 320 OFFCURVE",
"1038 320 CURVE SMOOTH",
"874 320 LINE SMOOTH",
"764 320 OFFCURVE",
"514 330 OFFCURVE",
"514 740 CURVE SMOOTH",
"514 1150 OFFCURVE",
"762 1182 OFFCURVE",
"874 1182 CURVE SMOOTH",
"1038 1182 LINE SMOOTH",
"1098 1182 OFFCURVE",
"1128 1214 OFFCURVE",
"1128 1278 CURVE SMOOTH",
"1128 1404 LINE SMOOTH",
"1128 1468 OFFCURVE",
"1098 1500 OFFCURVE",
"1038 1500 CURVE SMOOTH",
"874 1500 LINE SMOOTH",
"460 1500 OFFCURVE",
"136 1256 OFFCURVE",
"136 740 CURVE SMOOTH",
"136 226 OFFCURVE",
"460 0 OFFCURVE",
"874 0 CURVE SMOOTH"
);
},
{
closed = 1;
nodes = (
"912 450 LINE SMOOTH",
"972 450 OFFCURVE",
"1002 482 OFFCURVE",
"1002 540 CURVE SMOOTH",
"1002 600 LINE SMOOTH",
"1002 660 OFFCURVE",
"972 690 OFFCURVE",
"912 690 CURVE SMOOTH",
"90 690 LINE SMOOTH",
"30 690 OFFCURVE",
"0 660 OFFCURVE",
"0 600 CURVE SMOOTH",
"0 540 LINE SMOOTH",
"0 480 OFFCURVE",
"30 450 OFFCURVE",
"90 450 CURVE SMOOTH"
);
},
{
closed = 1;
nodes = (
"912 784 LINE SMOOTH",
"972 784 OFFCURVE",
"1002 816 OFFCURVE",
"1002 874 CURVE SMOOTH",
"1002 934 LINE SMOOTH",
"1002 994 OFFCURVE",
"972 1024 OFFCURVE",
"912 1024 CURVE SMOOTH",
"90 1024 LINE SMOOTH",
"30 1024 OFFCURVE",
"0 994 OFFCURVE",
"0 934 CURVE SMOOTH",
"0 874 LINE SMOOTH",
"0 814 OFFCURVE",
"30 784 OFFCURVE",
"90 784 CURVE SMOOTH"
);
}
);
width = 1288;
}
);
unicode = 20AC;
},
{
glyphname = plus;
lastChange = "2020-09-28 20:42:28 +0000";
layers = (
{
layerId = "9B85AB65-32D7-4FED-B27C-3C7447013A9D";
paths = (
{
closed = 1;
nodes = (
"590 294 LINE SMOOTH",
"650 294 OFFCURVE",
"680 324 OFFCURVE",
"680 384 CURVE SMOOTH",
"680 594 LINE",
"890 594 LINE SMOOTH",
"950 594 OFFCURVE",
"980 624 OFFCURVE",
"980 684 CURVE SMOOTH",
"980 784 LINE SMOOTH",
"980 844 OFFCURVE",
"950 874 OFFCURVE",
"890 874 CURVE SMOOTH",
"680 874 LINE",
"680 1084 LINE SMOOTH",
"680 1144 OFFCURVE",
"650 1174 OFFCURVE",
"590 1174 CURVE SMOOTH",
"490 1174 LINE SMOOTH",
"430 1174 OFFCURVE",
"400 1144 OFFCURVE",
"400 1084 CURVE SMOOTH",
"400 874 LINE",
"190 874 LINE SMOOTH",
"130 874 OFFCURVE",
"100 844 OFFCURVE",
"100 784 CURVE SMOOTH",
"100 684 LINE SMOOTH",
"100 624 OFFCURVE",
"130 594 OFFCURVE",
"190 594 CURVE SMOOTH",
"400 594 LINE",
"400 384 LINE SMOOTH",
"400 324 OFFCURVE",
"430 294 OFFCURVE",
"490 294 CURVE SMOOTH"
);
}
);
width = 1156;
}
);
unicode = 002B;
},
{
glyphname = equal;
lastChange = "2020-09-28 20:42:28 +0000";
layers = (
{
layerId = "9B85AB65-32D7-4FED-B27C-3C7447013A9D";
paths = (
{
closed = 1;
nodes = (
"754 362 LINE SMOOTH",
"814 362 OFFCURVE",
"844 392 OFFCURVE",
"844 452 CURVE SMOOTH",
"844 552 LINE SMOOTH",
"844 612 OFFCURVE",
"814 642 OFFCURVE",
"754 642 CURVE SMOOTH",
"150 642 LINE SMOOTH",
"90 642 OFFCURVE",
"60 612 OFFCURVE",
"60 552 CURVE SMOOTH",
"60 452 LINE SMOOTH",
"60 392 OFFCURVE",
"90 362 OFFCURVE",
"150 362 CURVE SMOOTH"
);
},
{
closed = 1;
nodes = (
"754 824 LINE SMOOTH",
"814 824 OFFCURVE",
"844 854 OFFCURVE",
"844 914 CURVE SMOOTH",
"844 1012 LINE SMOOTH",
"844 1072 OFFCURVE",
"814 1102 OFFCURVE",
"754 1102 CURVE SMOOTH",
"150 1102 LINE SMOOTH",
"90 1102 OFFCURVE",
"60 1072 OFFCURVE",
"60 1012 CURVE SMOOTH",
"60 914 LINE SMOOTH",
"60 854 OFFCURVE",
"90 824 OFFCURVE",
"150 824 CURVE SMOOTH"
);
}
);
width = 1060;
}
);
unicode = 003D;
},
{
glyphname = greater;
lastChange = "2020-09-28 20:42:28 +0000";
layers = (
{
layerId = "9B85AB65-32D7-4FED-B27C-3C7447013A9D";
paths = (
{
closed = 1;
nodes = (
"756 478 LINE SMOOTH",
"800 500 OFFCURVE",
"822 534 OFFCURVE",
"822 584 CURVE SMOOTH",
"822 840 LINE SMOOTH",
"822 890 OFFCURVE",
"800 924 OFFCURVE",
"756 946 CURVE SMOOTH",
"190 1228 LINE SMOOTH",
"128 1258 OFFCURVE",
"84 1232 OFFCURVE",
"84 1162 CURVE SMOOTH",
"84 1044 LINE SMOOTH",
"84 996 OFFCURVE",
"106 960 OFFCURVE",
"148 938 CURVE SMOOTH",
"592 712 LINE",
"148 486 LINE SMOOTH",
"106 464 OFFCURVE",
"84 428 OFFCURVE",
"84 380 CURVE SMOOTH",
"84 262 LINE SMOOTH",
"84 192 OFFCURVE",
"128 166 OFFCURVE",
"190 196 CURVE SMOOTH"
);
}
);
width = 1018;
}
);
unicode = 003E;
},
{
glyphname = less;
lastChange = "2020-09-28 20:42:28 +0000";
layers = (
{
layerId = "9B85AB65-32D7-4FED-B27C-3C7447013A9D";
paths = (
{
closed = 1;
nodes = (
"778 166 OFFCURVE",
"822 192 OFFCURVE",
"822 262 CURVE SMOOTH",
"822 380 LINE SMOOTH",
"822 428 OFFCURVE",
"800 464 OFFCURVE",
"758 486 CURVE SMOOTH",
"314 712 LINE",
"758 938 LINE SMOOTH",
"800 960 OFFCURVE",
"822 996 OFFCURVE",
"822 1044 CURVE SMOOTH",
"822 1162 LINE SMOOTH",
"822 1232 OFFCURVE",
"778 1258 OFFCURVE",
"716 1228 CURVE SMOOTH",
"150 946 LINE SMOOTH",
"106 924 OFFCURVE",
"84 890 OFFCURVE",
"84 840 CURVE SMOOTH",
"84 584 LINE SMOOTH",
"84 534 OFFCURVE",
"106 500 OFFCURVE",
"150 478 CURVE SMOOTH",
"716 196 LINE SMOOTH"
);
}
);
width = 1018;
}
);
unicode = 003C;
},
{
glyphname = asciicircum;
lastChange = "2020-09-28 20:42:28 +0000";
layers = (
{
layerId = "9B85AB65-32D7-4FED-B27C-3C7447013A9D";
paths = (
{
closed = 1;
nodes = (
"230 1090 LINE SMOOTH",
"274 1090 OFFCURVE",
"310 1106 OFFCURVE",
"340 1140 CURVE SMOOTH",
"436 1254 LINE",
"530 1142 LINE SMOOTH",
"562 1104 OFFCURVE",
"594 1090 OFFCURVE",
"642 1090 CURVE SMOOTH",
"676 1090 LINE SMOOTH",
"754 1090 OFFCURVE",
"778 1138 OFFCURVE",
"728 1200 CURVE SMOOTH",
"548 1424 LINE SMOOTH",
"518 1462 OFFCURVE",
"486 1476 OFFCURVE",
"438 1476 CURVE SMOOTH",
"434 1476 LINE SMOOTH",
"386 1476 OFFCURVE",
"354 1462 OFFCURVE",
"324 1424 CURVE SMOOTH",
"142 1200 LINE SMOOTH",
"94 1138 OFFCURVE",
"116 1090 OFFCURVE",
"194 1090 CURVE SMOOTH"
);
}
);
width = 948;
}
);
unicode = 005E;
},
{
glyphname = percent;
lastChange = "2020-09-28 20:42:28 +0000";
layers = (
{
layerId = "9B85AB65-32D7-4FED-B27C-3C7447013A9D";
paths = (
{
closed = 1;
nodes = (
"664 0 LINE SMOOTH",
"712 0 OFFCURVE",
"748 22 OFFCURVE",
"770 64 CURVE SMOOTH",
"1478 1374 LINE SMOOTH",
"1512 1438 OFFCURVE",
"1486 1482 OFFCURVE",
"1414 1482 CURVE SMOOTH",
"1276 1482 LINE SMOOTH",
"1228 1482 OFFCURVE",
"1192 1460 OFFCURVE",
"1170 1418 CURVE SMOOTH",
"462 108 LINE SMOOTH",
"428 44 OFFCURVE",
"454 0 OFFCURVE",
"526 0 CURVE SMOOTH"
);
},
{
closed = 1;
nodes = (
"552 742 OFFCURVE",
"644 784 OFFCURVE",
"710 850 CURVE SMOOTH",
"776 916 OFFCURVE",
"818 1010 OFFCURVE",
"818 1112 CURVE SMOOTH",
"818 1214 OFFCURVE",
"776 1308 OFFCURVE",
"710 1374 CURVE SMOOTH",
"644 1440 OFFCURVE",
"552 1482 OFFCURVE",
"450 1482 CURVE SMOOTH",
"348 1482 OFFCURVE",
"254 1440 OFFCURVE",
"188 1374 CURVE SMOOTH",
"122 1308 OFFCURVE",
"80 1214 OFFCURVE",
"80 1112 CURVE SMOOTH",
"80 1010 OFFCURVE",
"122 916 OFFCURVE",
"188 850 CURVE SMOOTH",
"254 784 OFFCURVE",
"348 742 OFFCURVE",
"450 742 CURVE SMOOTH"
);
},
{
closed = 1;
nodes = (
"384 994 OFFCURVE",
"330 1046 OFFCURVE",
"330 1112 CURVE SMOOTH",
"330 1178 OFFCURVE",
"384 1230 OFFCURVE",
"450 1230 CURVE SMOOTH",
"514 1230 OFFCURVE",
"568 1178 OFFCURVE",
"568 1112 CURVE SMOOTH",
"568 1046 OFFCURVE",
"514 994 OFFCURVE",
"450 994 CURVE SMOOTH"
);
},
{
closed = 1;
nodes = (
"1600 2 OFFCURVE",
"1694 44 OFFCURVE",
"1760 110 CURVE SMOOTH",
"1826 176 OFFCURVE",
"1868 270 OFFCURVE",
"1868 372 CURVE SMOOTH",
"1868 474 OFFCURVE",
"1826 566 OFFCURVE",
"1760 632 CURVE SMOOTH",
"1694 698 OFFCURVE",
"1600 740 OFFCURVE",
"1498 740 CURVE SMOOTH",
"1396 740 OFFCURVE",
"1304 698 OFFCURVE",
"1238 632 CURVE SMOOTH",
"1172 566 OFFCURVE",
"1130 474 OFFCURVE",
"1130 372 CURVE SMOOTH",
"1130 270 OFFCURVE",
"1172 176 OFFCURVE",
"1238 110 CURVE SMOOTH",
"1304 44 OFFCURVE",
"1396 2 OFFCURVE",
"1498 2 CURVE SMOOTH"
);
},
{
closed = 1;
nodes = (
"1432 252 OFFCURVE",
"1380 306 OFFCURVE",
"1380 372 CURVE SMOOTH",
"1380 436 OFFCURVE",
"1432 490 OFFCURVE",
"1498 490 CURVE SMOOTH",
"1564 490 OFFCURVE",
"1618 436 OFFCURVE",
"1618 372 CURVE SMOOTH",
"1618 306 OFFCURVE",
"1564 252 OFFCURVE",
"1498 252 CURVE SMOOTH"
);
}
);
width = 2018;
}
);
unicode = 0025;
},
{
glyphname = at;
lastChange = "2020-09-28 20:42:33 +0000";
layers = (
{
layerId = "9B85AB65-32D7-4FED-B27C-3C7447013A9D";
paths = (
{
closed = 1;
nodes = (
"1089 -34 OFFCURVE",
"1242 -4 OFFCURVE",
"1362 68 CURVE SMOOTH",
"1472 134 OFFCURVE",
"1540 200 OFFCURVE",
"1444 264 CURVE SMOOTH",
"1378 308 LINE SMOOTH",
"1360 320 OFFCURVE",
"1340 328 OFFCURVE",
"1320 328 CURVE SMOOTH",
"1300 328 OFFCURVE",
"1278 320 OFFCURVE",
"1252 302 CURVE SMOOTH",
"1198 266 OFFCURVE",
"1084 218 OFFCURVE",
"946 218 CURVE SMOOTH",
"794 218 OFFCURVE",
"654 284 OFFCURVE",
"552 378 CURVE SMOOTH",
"448 472 OFFCURVE",
"386 604 OFFCURVE",
"386 754 CURVE SMOOTH",
"386 1052 OFFCURVE",
"632 1300 OFFCURVE",
"946 1300 CURVE SMOOTH",
"1258 1300 OFFCURVE",
"1482 1102 OFFCURVE",
"1482 808 CURVE SMOOTH",
"1482 688 OFFCURVE",
"1462 646 OFFCURVE",
"1416 646 CURVE SMOOTH",
"1356 646 OFFCURVE",
"1320 732 OFFCURVE",
"1292 840 CURVE SMOOTH",
"1236 1052 OFFCURVE",
"1134 1144 OFFCURVE",
"940 1144 CURVE SMOOTH",
"724 1144 OFFCURVE",
"558 964 OFFCURVE",
"558 750 CURVE SMOOTH",
"558 554 OFFCURVE",
"730 392 OFFCURVE",
"920 392 CURVE SMOOTH",
"1008 392 OFFCURVE",
"1084 430 OFFCURVE",
"1138 474 CURVE SMOOTH",
"1192 518 OFFCURVE",
"1222 570 OFFCURVE",
"1222 600 CURVE",
"1244 504 OFFCURVE",
"1334 430 OFFCURVE",
"1450 430 CURVE SMOOTH",
"1630 430 OFFCURVE",
"1752 594 OFFCURVE",
"1752 808 CURVE SMOOTH",
"1752 1236 OFFCURVE",
"1384 1540 OFFCURVE",
"946 1540 CURVE SMOOTH",
"492 1540 OFFCURVE",
"106 1216 OFFCURVE",
"106 754 CURVE SMOOTH",
"106 520 OFFCURVE",
"212 322 OFFCURVE",
"364 184 CURVE SMOOTH",
"516 46 OFFCURVE",
"722 -34 OFFCURVE",
"946 -34 CURVE SMOOTH"
);
},
{
closed = 1;
nodes = (
"874 644 OFFCURVE",
"818 700 OFFCURVE",
"818 770 CURVE SMOOTH",
"818 840 OFFCURVE",
"874 896 OFFCURVE",
"944 896 CURVE SMOOTH",
"1014 896 OFFCURVE",
"1070 840 OFFCURVE",
"1070 770 CURVE SMOOTH",
"1070 700 OFFCURVE",
"1014 644 OFFCURVE",
"944 644 CURVE SMOOTH"
);
}
);
width = 1858;
}
);
unicode = 0040;
},
{
glyphname = ampersand;
lastChange = "2020-09-28 20:42:34 +0000";
layers = (
{
layerId = "9B85AB65-32D7-4FED-B27C-3C7447013A9D";
paths = (
{
closed = 1;
nodes = (
"1080 -30 OFFCURVE",
"1384 264 OFFCURVE",
"1510 424 CURVE SMOOTH",
"1554 480 OFFCURVE",
"1540 516 OFFCURVE",
"1506 546 CURVE SMOOTH",
"1410 630 LINE SMOOTH",
"1372 664 OFFCURVE",
"1336 646 OFFCURVE",
"1282 586 CURVE SMOOTH",
"1096 380 OFFCURVE",
"882 268 OFFCURVE",
"744 268 CURVE SMOOTH",
"618 268 OFFCURVE",
"548 306 OFFCURVE",
"548 394 CURVE SMOOTH",
"548 488 OFFCURVE",
"650 580 OFFCURVE",
"810 672 CURVE SMOOTH",
"1044 806 OFFCURVE",
"1206 952 OFFCURVE",
"1206 1158 CURVE SMOOTH",
"1206 1358 OFFCURVE",
"1034 1508 OFFCURVE",
"776 1508 CURVE SMOOTH",
"522 1508 OFFCURVE",
"336 1370 OFFCURVE",
"336 1150 CURVE SMOOTH",
"336 974 OFFCURVE",
"503 770 OFFCURVE",
"560 704 CURVE SMOOTH",
"1124 52 LINE SMOOTH",
"1157 14 OFFCURVE",
"1176 0 OFFCURVE",
"1214 0 CURVE SMOOTH",
"1428 0 LINE SMOOTH",
"1480 0 OFFCURVE",
"1494 48 OFFCURVE",
"1452 100 CURVE SMOOTH",
"832 864 LINE SMOOTH",
"796 908 OFFCURVE",
"662 1080 OFFCURVE",
"662 1146 CURVE SMOOTH",
"662 1216 OFFCURVE",
"708 1242 OFFCURVE",
"774 1242 CURVE SMOOTH",
"842 1242 OFFCURVE",
"888 1216 OFFCURVE",
"888 1146 CURVE SMOOTH",
"888 1048 OFFCURVE",
"776 962 OFFCURVE",
"662 906 CURVE SMOOTH",
"406 780 OFFCURVE",
"160 624 OFFCURVE",
"160 378 CURVE SMOOTH",
"160 132 OFFCURVE",
"370 -30 OFFCURVE",
"724 -30 CURVE SMOOTH"
);
}
);
width = 1698;
}
);
unicode = 0026;
},
{
glyphname = copyright;
lastChange = "2020-09-28 20:42:36 +0000";
layers = (
{
layerId = "9B85AB65-32D7-4FED-B27C-3C7447013A9D";
paths = (
{
closed = 1;
nodes = (
"1050 -28 OFFCURVE",
"1246 60 OFFCURVE",
"1386 200 CURVE SMOOTH",
"1526 340 OFFCURVE",
"1612 534 OFFCURVE",
"1612 748 CURVE SMOOTH",
"1612 962 OFFCURVE",
"1526 1158 OFFCURVE",
"1386 1298 CURVE SMOOTH",
"1246 1438 OFFCURVE",
"1050 1524 OFFCURVE",
"836 1524 CURVE SMOOTH",
"622 1524 OFFCURVE",
"428 1438 OFFCURVE",
"288 1298 CURVE SMOOTH",
"148 1158 OFFCURVE",
"60 962 OFFCURVE",
"60 748 CURVE SMOOTH",
"60 534 OFFCURVE",
"148 340 OFFCURVE",
"288 200 CURVE SMOOTH",
"428 60 OFFCURVE",
"622 -28 OFFCURVE",
"836 -28 CURVE SMOOTH"
);
},
{
closed = 1;
nodes = (
"906 416 OFFCURVE",
"966 436 OFFCURVE",
"1020 470 CURVE SMOOTH",
"1074 504 OFFCURVE",
"1072 554 OFFCURVE",
"1032 586 CURVE SMOOTH",
"990 624 OFFCURVE",
"956 612 OFFCURVE",
"908 590 CURVE",
"890 580 OFFCURVE",
"868 576 OFFCURVE",
"842 576 CURVE SMOOTH",
"748 576 OFFCURVE",
"672 652 OFFCURVE",
"672 746 CURVE SMOOTH",
"672 840 OFFCURVE",
"748 914 OFFCURVE",
"842 914 CURVE SMOOTH",
"868 914 OFFCURVE",
"892 908 OFFCURVE",
"916 896 CURVE SMOOTH",
"962 874 OFFCURVE",
"990 864 OFFCURVE",
"1022 890 CURVE SMOOTH",
"1070 928 OFFCURVE",
"1080 978 OFFCURVE",
"1026 1016 CURVE SMOOTH",
"970 1054 OFFCURVE",
"908 1072 OFFCURVE",
"842 1072 CURVE SMOOTH",
"752 1072 OFFCURVE",
"672 1034 OFFCURVE",
"612 976 CURVE SMOOTH",
"552 918 OFFCURVE",
"514 836 OFFCURVE",
"514 746 CURVE SMOOTH",
"514 656 OFFCURVE",
"552 574 OFFCURVE",
"612 514 CURVE SMOOTH",
"672 454 OFFCURVE",
"752 416 OFFCURVE",
"842 416 CURVE SMOOTH"
);
},
{
closed = 1;
nodes = (
"694 240 OFFCURVE",
"570 298 OFFCURVE",
"478 390 CURVE SMOOTH",
"386 482 OFFCURVE",
"328 606 OFFCURVE",
"328 748 CURVE SMOOTH",
"328 886 OFFCURVE",
"386 1016 OFFCURVE",
"478 1108 CURVE SMOOTH",
"570 1200 OFFCURVE",
"694 1256 OFFCURVE",
"836 1256 CURVE SMOOTH",
"974 1256 OFFCURVE",
"1104 1200 OFFCURVE",
"1196 1108 CURVE SMOOTH",
"1288 1016 OFFCURVE",
"1344 886 OFFCURVE",
"1344 748 CURVE SMOOTH",
"1344 606 OFFCURVE",
"1288 482 OFFCURVE",
"1196 390 CURVE SMOOTH",
"1104 298 OFFCURVE",
"974 240 OFFCURVE",
"836 240 CURVE SMOOTH"
);
}
);
width = 1786;
}
);
unicode = 00A9;
},
{
glyphname = registered;
lastChange = "2020-09-28 20:42:36 +0000";
layers = (
{
layerId = "9B85AB65-32D7-4FED-B27C-3C7447013A9D";
paths = (
{
closed = 1;
nodes = (
"1050 -28 OFFCURVE",
"1246 60 OFFCURVE",
"1386 200 CURVE SMOOTH",
"1526 340 OFFCURVE",
"1612 534 OFFCURVE",
"1612 748 CURVE SMOOTH",
"1612 962 OFFCURVE",
"1526 1158 OFFCURVE",
"1386 1298 CURVE SMOOTH",
"1246 1438 OFFCURVE",
"1050 1524 OFFCURVE",
"836 1524 CURVE SMOOTH",
"622 1524 OFFCURVE",
"428 1438 OFFCURVE",
"288 1298 CURVE SMOOTH",
"148 1158 OFFCURVE",
"60 962 OFFCURVE",
"60 748 CURVE SMOOTH",
"60 534 OFFCURVE",
"148 340 OFFCURVE",
"288 200 CURVE SMOOTH",
"428 60 OFFCURVE",
"622 -28 OFFCURVE",
"836 -28 CURVE SMOOTH"
);
},
{
closed = 1;
nodes = (
"694 240 OFFCURVE",
"570 298 OFFCURVE",
"478 390 CURVE SMOOTH",
"386 482 OFFCURVE",
"328 606 OFFCURVE",
"328 748 CURVE SMOOTH",
"328 886 OFFCURVE",
"386 1016 OFFCURVE",
"478 1108 CURVE SMOOTH",
"570 1200 OFFCURVE",
"694 1256 OFFCURVE",
"836 1256 CURVE SMOOTH",
"974 1256 OFFCURVE",
"1104 1200 OFFCURVE",
"1196 1108 CURVE SMOOTH",
"1288 1016 OFFCURVE",
"1344 886 OFFCURVE",
"1344 748 CURVE SMOOTH",
"1344 606 OFFCURVE",
"1288 482 OFFCURVE",
"1196 390 CURVE SMOOTH",
"1104 298 OFFCURVE",
"974 240 OFFCURVE",
"836 240 CURVE SMOOTH"
);
},
{
closed = 1;
nodes = (
"734 464 OFFCURVE",
"764 494 OFFCURVE",
"764 554 CURVE SMOOTH",
"764 668 LINE",
"834 668 LINE",
"884 536 LINE SMOOTH",
"902 488 OFFCURVE",
"926 464 OFFCURVE",
"956 464 CURVE SMOOTH",
"1026 464 OFFCURVE",
"1052 506 OFFCURVE",
"1026 568 CURVE SMOOTH",
"976 686 LINE",
"978 686 OFFCURVE",
"980 688 OFFCURVE",
"986 690 CURVE SMOOTH",
"990 692 OFFCURVE",
"996 694 OFFCURVE",
"1002 700 CURVE",
"1044 732 OFFCURVE",
"1066 790 OFFCURVE",
"1066 846 CURVE SMOOTH",
"1066 916 OFFCURVE",
"1036 968 OFFCURVE",
"1010 990 CURVE SMOOTH",
"976 1020 OFFCURVE",
"936 1034 OFFCURVE",
"888 1034 CURVE SMOOTH",
"710 1034 LINE SMOOTH",
"650 1034 OFFCURVE",
"620 1004 OFFCURVE",
"620 944 CURVE SMOOTH",
"620 554 LINE SMOOTH",
"620 494 OFFCURVE",
"638 464 OFFCURVE",
"674 464 CURVE SMOOTH"
);
},
{
closed = 1;
nodes = (
"764 894 LINE",
"880 894 LINE SMOOTH",
"910 894 OFFCURVE",
"926 876 OFFCURVE",
"926 846 CURVE SMOOTH",
"926 816 OFFCURVE",
"904 798 OFFCURVE",
"874 798 CURVE SMOOTH",
"764 798 LINE"
);
}
);
width = 1666;
}
);
unicode = 00AE;
},
{
glyphname = trademark;
lastChange = "2020-09-28 20:42:28 +0000";
layers = (
{
layerId = "9B85AB65-32D7-4FED-B27C-3C7447013A9D";
paths = (
{
closed = 1;
nodes = (
"518 1160 OFFCURVE",
"536 1178 OFFCURVE",
"536 1216 CURVE SMOOTH",
"536 1292 LINE",
"580 1204 LINE SMOOTH",
"594 1174 OFFCURVE",
"606 1160 OFFCURVE",
"632 1160 CURVE SMOOTH",
"660 1160 OFFCURVE",
"668 1174 OFFCURVE",
"684 1204 CURVE SMOOTH",
"728 1292 LINE",
"728 1216 LINE SMOOTH",
"728 1178 OFFCURVE",
"744 1160 OFFCURVE",
"780 1160 CURVE SMOOTH",
"822 1160 OFFCURVE",
"828 1180 OFFCURVE",
"828 1216 CURVE SMOOTH",
"828 1426 LINE SMOOTH",
"828 1460 OFFCURVE",
"820 1480 OFFCURVE",
"784 1480 CURVE SMOOTH",
"748 1480 OFFCURVE",
"734 1468 OFFCURVE",
"716 1438 CURVE SMOOTH",
"632 1286 LINE",
"548 1438 LINE SMOOTH",
"532 1468 OFFCURVE",
"518 1480 OFFCURVE",
"488 1480 CURVE SMOOTH",
"446 1480 OFFCURVE",
"436 1460 OFFCURVE",
"436 1426 CURVE SMOOTH",
"436 1216 LINE SMOOTH",
"436 1180 OFFCURVE",
"448 1160 OFFCURVE",
"484 1160 CURVE SMOOTH"
);
},
{
closed = 1;
nodes = (
"254 1160 OFFCURVE",
"270 1178 OFFCURVE",
"270 1216 CURVE SMOOTH",
"270 1398 LINE",
"306 1398 LINE SMOOTH",
"350 1398 OFFCURVE",
"374 1408 OFFCURVE",
"374 1436 CURVE SMOOTH",
"374 1472 OFFCURVE",
"350 1480 OFFCURVE",
"306 1480 CURVE SMOOTH",
"134 1480 LINE SMOOTH",
"90 1480 OFFCURVE",
"68 1468 OFFCURVE",
"68 1442 CURVE SMOOTH",
"68 1414 OFFCURVE",
"90 1398 OFFCURVE",
"134 1398 CURVE SMOOTH",
"172 1398 LINE",
"172 1216 LINE SMOOTH",
"172 1178 OFFCURVE",
"188 1160 OFFCURVE",
"220 1160 CURVE SMOOTH"
);
}
);
width = 928;
}
);
unicode = 2122;
},
{
glyphname = degree;
lastChange = "2020-09-28 20:42:33 +0000";
layers = (
{
layerId = "9B85AB65-32D7-4FED-B27C-3C7447013A9D";
paths = (
{
closed = 1;
nodes = (
"360 1156 OFFCURVE",
"452 1242 OFFCURVE",
"452 1348 CURVE SMOOTH",
"452 1461 OFFCURVE",
"365 1550 OFFCURVE",
"252 1550 CURVE SMOOTH",
"143 1550 OFFCURVE",
"54 1457 OFFCURVE",
"54 1348 CURVE SMOOTH",
"54 1252 OFFCURVE",
"141 1156 OFFCURVE",
"252 1156 CURVE SMOOTH"
);
},
{
closed = 1;
nodes = (
"210 1272 OFFCURVE",
"172 1308 OFFCURVE",
"172 1348 CURVE SMOOTH",
"172 1394 OFFCURVE",
"210 1428 OFFCURVE",
"252 1428 CURVE SMOOTH",
"298 1428 OFFCURVE",
"332 1394 OFFCURVE",
"332 1348 CURVE SMOOTH",
"332 1308 OFFCURVE",
"298 1272 OFFCURVE",
"252 1272 CURVE SMOOTH"
);
}
);
width = 482;
}
);
unicode = 00B0;
},
{
glyphname = bar;
lastChange = "2020-09-28 20:42:28 +0000";
layers = (
{
layerId = "9B85AB65-32D7-4FED-B27C-3C7447013A9D";
paths = (
{
closed = 1;
nodes = (
"302 -148 LINE SMOOTH",
"362 -148 OFFCURVE",
"392 -118 OFFCURVE",
"392 -58 CURVE SMOOTH",
"392 1526 LINE SMOOTH",
"392 1586 OFFCURVE",
"362 1616 OFFCURVE",
"302 1616 CURVE SMOOTH",
"150 1616 LINE SMOOTH",
"90 1616 OFFCURVE",
"60 1586 OFFCURVE",
"60 1526 CURVE SMOOTH",
"60 -58 LINE SMOOTH",
"60 -118 OFFCURVE",
"90 -148 OFFCURVE",
"150 -148 CURVE SMOOTH"
);
}
);
width = 624;
}
);
unicode = 007C;
},
{
glyphname = dieresiscomb;
lastChange = "2020-09-28 21:04:34 +0000";
layers = (
{
anchors = (
{
name = _top;
position = "{392, 1200}";
},
{
name = top;
position = "{392, 1624}";
}
);
layerId = "9B85AB65-32D7-4FED-B27C-3C7447013A9D";
paths = (
{
closed = 1;
nodes = (
"656 1364 OFFCURVE",
"714 1422 OFFCURVE",
"714 1494 CURVE SMOOTH",
"714 1566 OFFCURVE",
"656 1624 OFFCURVE",
"584 1624 CURVE SMOOTH",
"514 1624 OFFCURVE",
"456 1566 OFFCURVE",
"456 1494 CURVE SMOOTH",
"456 1422 OFFCURVE",
"514 1364 OFFCURVE",
"584 1364 CURVE SMOOTH"
);
},
{
closed = 1;
nodes = (
"270 1364 OFFCURVE",
"328 1422 OFFCURVE",
"328 1494 CURVE SMOOTH",
"328 1566 OFFCURVE",
"270 1624 OFFCURVE",
"198 1624 CURVE SMOOTH",
"128 1624 OFFCURVE",
"70 1566 OFFCURVE",
"70 1494 CURVE SMOOTH",
"70 1422 OFFCURVE",
"128 1364 OFFCURVE",
"198 1364 CURVE SMOOTH"
);
}
);
width = 760;
}
);
unicode = 0308;
},
{
glyphname = dotaccentcomb;
lastChange = "2020-09-28 21:04:34 +0000";
layers = (
{
anchors = (
{
name = _top;
position = "{200, 1200}";
},
{
name = top;
position = "{200, 1624}";
}
);
layerId = "9B85AB65-32D7-4FED-B27C-3C7447013A9D";
paths = (
{
closed = 1;
nodes = (
"270 1364 OFFCURVE",
"328 1422 OFFCURVE",
"328 1494 CURVE SMOOTH",
"328 1566 OFFCURVE",
"270 1624 OFFCURVE",
"198 1624 CURVE SMOOTH",
"128 1624 OFFCURVE",
"70 1566 OFFCURVE",
"70 1494 CURVE SMOOTH",
"70 1422 OFFCURVE",
"128 1364 OFFCURVE",
"198 1364 CURVE SMOOTH"
);
}
);
width = 380;
}
);
unicode = 0307;
},
{
glyphname = gravecomb;
lastChange = "2020-10-01 17:04:01 +0000";
layers = (
{
anchors = (
{
name = _top;
position = "{249, 1200}";
},
{
name = top;
position = "{164, 1646}";
}
);
layerId = "9B85AB65-32D7-4FED-B27C-3C7447013A9D";
paths = (
{
closed = 1;
nodes = (
"336 1375 OFFCURVE",
"350 1388 OFFCURVE",
"350 1415 CURVE SMOOTH",
"350 1438 OFFCURVE",
"339 1474 OFFCURVE",
"321 1508 CURVE SMOOTH",
"305 1538 LINE SMOOTH",
"257 1627 OFFCURVE",
"241 1640 OFFCURVE",
"151 1640 CURVE SMOOTH",
"112 1640 LINE SMOOTH",
"64 1640 OFFCURVE",
"41 1612 OFFCURVE",
"41 1575 CURVE SMOOTH",
"41 1551 OFFCURVE",
"56 1525 OFFCURVE",
"86 1501 CURVE SMOOTH",
"137 1460 LINE SMOOTH",
"210 1402 OFFCURVE",
"270 1375 OFFCURVE",
"307 1375 CURVE SMOOTH"
);
}
);
width = 470;
}
);
unicode = 0300;
},
{
glyphname = acutecomb;
lastChange = "2020-10-01 17:03:54 +0000";
layers = (
{
anchors = (
{
name = _top;
position = "{157, 1200}";
},
{
name = top;
position = "{278, 1628}";
}
);
layerId = "9B85AB65-32D7-4FED-B27C-3C7447013A9D";
paths = (
{
closed = 1;
nodes = (
"201 1375 OFFCURVE",
"261 1402 OFFCURVE",
"334 1460 CURVE SMOOTH",
"385 1501 LINE SMOOTH",
"415 1525 OFFCURVE",
"430 1551 OFFCURVE",
"430 1575 CURVE SMOOTH",
"430 1612 OFFCURVE",
"407 1640 OFFCURVE",
"359 1640 CURVE SMOOTH",
"320 1640 LINE SMOOTH",
"230 1640 OFFCURVE",
"214 1627 OFFCURVE",
"166 1538 CURVE SMOOTH",
"150 1508 LINE SMOOTH",
"132 1474 OFFCURVE",
"121 1438 OFFCURVE",
"121 1415 CURVE SMOOTH",
"121 1388 OFFCURVE",
"135 1375 OFFCURVE",
"164 1375 CURVE SMOOTH"
);
}
);
width = 476;
}
);
unicode = 0301;
},
{
glyphname = hungarumlautcomb;
lastChange = "2020-09-28 21:05:27 +0000";
layers = (
{
anchors = (
{
name = _top;
position = "{398, 1200}";
},
{
name = top;
position = "{398, 1606}";
}
);
layerId = "9B85AB65-32D7-4FED-B27C-3C7447013A9D";
paths = (
{
closed = 1;
nodes = (
"431 1475 OFFCURVE",
"426 1456 OFFCURVE",
"426 1441 CURVE SMOOTH",
"426 1405 OFFCURVE",
"453 1386 OFFCURVE",
"484 1386 CURVE SMOOTH",
"537 1386 OFFCURVE",
"563 1409 OFFCURVE",
"614 1467 CURVE SMOOTH",
"664 1523 LINE SMOOTH",
"687 1547 OFFCURVE",
"697 1573 OFFCURVE",
"697 1593 CURVE SMOOTH",
"697 1620 OFFCURVE",
"679 1640 OFFCURVE",
"647 1640 CURVE SMOOTH",
"589 1640 LINE SMOOTH",
"528 1640 OFFCURVE",
"505 1619 OFFCURVE",
"466 1542 CURVE SMOOTH",
"442 1496 LINE SMOOTH"
);
},
{
closed = 1;
nodes = (
"156 1475 OFFCURVE",
"151 1456 OFFCURVE",
"151 1441 CURVE SMOOTH",
"151 1405 OFFCURVE",
"178 1386 OFFCURVE",
"210 1386 CURVE SMOOTH",
"263 1386 OFFCURVE",
"289 1409 OFFCURVE",
"340 1467 CURVE SMOOTH",
"390 1523 LINE SMOOTH",
"412 1547 OFFCURVE",
"422 1573 OFFCURVE",
"422 1593 CURVE SMOOTH",
"422 1620 OFFCURVE",
"404 1640 OFFCURVE",
"373 1640 CURVE SMOOTH",
"315 1640 LINE SMOOTH",
"253 1640 OFFCURVE",
"231 1619 OFFCURVE",
"191 1542 CURVE SMOOTH",
"167 1496 LINE SMOOTH"
);
}
);
width = 760;
}
);
unicode = 030B;
},
{
glyphname = circumflexcomb;
lastChange = "2020-10-01 17:02:51 +0000";
layers = (
{
anchors = (
{
name = _top;
position = "{326, 1200}";
},
{
name = top;
position = "{326, 1620}";
}
);
layerId = "9B85AB65-32D7-4FED-B27C-3C7447013A9D";
paths = (
{
closed = 1;
nodes = (
"207 1378 LINE SMOOTH",
"235 1378 OFFCURVE",
"259 1387 OFFCURVE",
"276 1409 CURVE SMOOTH",
"327 1473 LINE",
"376 1409 LINE SMOOTH",
"393 1387 OFFCURVE",
"418 1378 OFFCURVE",
"447 1378 CURVE SMOOTH",
"498 1378 LINE SMOOTH",
"547 1378 OFFCURVE",
"563 1410 OFFCURVE",
"530 1447 CURVE SMOOTH",
"406 1588 LINE SMOOTH",
"388 1609 OFFCURVE",
"367 1620 OFFCURVE",
"338 1620 CURVE SMOOTH",
"315 1620 LINE SMOOTH",
"287 1620 OFFCURVE",
"264 1609 OFFCURVE",
"246 1588 CURVE SMOOTH",
"122 1447 LINE SMOOTH",
"90 1411 OFFCURVE",
"107 1378 OFFCURVE",
"154 1378 CURVE SMOOTH"
);
}
);
width = 644;
}
);
unicode = 0302;
},
{
glyphname = caroncomb;
lastChange = "2020-09-28 21:05:32 +0000";
layers = (
{
anchors = (
{
name = _top;
position = "{326, 1200}";
},
{
name = top;
position = "{326, 1638}";
}
);
layerId = "9B85AB65-32D7-4FED-B27C-3C7447013A9D";
paths = (
{
closed = 1;
nodes = (
"328 1359 LINE SMOOTH",
"361 1359 OFFCURVE",
"387 1372 OFFCURVE",
"406 1396 CURVE SMOOTH",
"537 1558 LINE SMOOTH",
"574 1602 OFFCURVE",
"556 1638 OFFCURVE",
"501 1638 CURVE SMOOTH",
"476 1638 LINE SMOOTH",
"443 1638 OFFCURVE",
"415 1626 OFFCURVE",
"394 1602 CURVE SMOOTH",
"326 1520 LINE",
"257 1602 LINE SMOOTH",
"236 1626 OFFCURVE",
"209 1638 OFFCURVE",
"176 1638 CURVE SMOOTH",
"150 1638 LINE SMOOTH",
"96 1638 OFFCURVE",
"79 1602 OFFCURVE",
"114 1558 CURVE SMOOTH",
"244 1396 LINE SMOOTH",
"265 1372 OFFCURVE",
"291 1359 OFFCURVE",
"325 1359 CURVE SMOOTH"
);
}
);
width = 630;
}
);
unicode = 030C;
},
{
glyphname = brevecomb;
lastChange = "2020-10-01 17:00:44 +0000";
layers = (
{
anchors = (
{
name = _top;
position = "{286, 1200}";
},
{
name = top;
position = "{286, 1638}";
}
);
layerId = "9B85AB65-32D7-4FED-B27C-3C7447013A9D";
paths = (
{
closed = 1;
nodes = (
"402 1358 OFFCURVE",
"500 1427 OFFCURVE",
"500 1579 CURVE SMOOTH",
"500 1613 OFFCURVE",
"483 1638 OFFCURVE",
"449 1638 CURVE SMOOTH",
"361 1638 OFFCURVE",
"380 1494 OFFCURVE",
"286 1494 CURVE SMOOTH",
"184 1494 OFFCURVE",
"213 1638 OFFCURVE",
"121 1638 CURVE SMOOTH",
"90 1638 OFFCURVE",
"71 1616 OFFCURVE",
"71 1579 CURVE SMOOTH",
"71 1431 OFFCURVE",
"173 1358 OFFCURVE",
"287 1358 CURVE SMOOTH"
);
}
);
width = 580;
}
);
unicode = 0306;
},
{
glyphname = ringcomb;
lastChange = "2020-09-28 21:06:04 +0000";
layers = (
{
anchors = (
{
name = _top;
position = "{208, 1200}";
},
{
name = top;
position = "{208, 1724}";
}
);
layerId = "9B85AB65-32D7-4FED-B27C-3C7447013A9D";
paths = (
{
closed = 1;
nodes = (
"309 1352 OFFCURVE",
"395 1431 OFFCURVE",
"395 1539 CURVE SMOOTH",
"395 1640 OFFCURVE",
"309 1724 OFFCURVE",
"210 1724 CURVE SMOOTH",
"106 1724 OFFCURVE",
"21 1640 OFFCURVE",
"21 1539 CURVE SMOOTH",
"21 1431 OFFCURVE",
"106 1352 OFFCURVE",
"210 1352 CURVE SMOOTH"
);
},
{
closed = 1;
nodes = (
"182 1491 OFFCURVE",
"164 1510 OFFCURVE",
"164 1539 CURVE SMOOTH",
"164 1562 OFFCURVE",
"182 1582 OFFCURVE",
"210 1582 CURVE SMOOTH",
"233 1582 OFFCURVE",
"253 1562 OFFCURVE",
"253 1539 CURVE SMOOTH",
"253 1510 OFFCURVE",
"233 1491 OFFCURVE",
"210 1491 CURVE SMOOTH"
);
}
);
width = 368;
}
);
unicode = 030A;
},
{
glyphname = tildecomb;
lastChange = "2020-10-01 17:22:47 +0000";
layers = (
{
anchors = (
{
name = _top;
position = "{422, 1200}";
},
{
name = top;
position = "{418, 1589}";
}
);
layerId = "9B85AB65-32D7-4FED-B27C-3C7447013A9D";
paths = (
{
closed = 1;
nodes = (
"553 1383 OFFCURVE",
"594 1416 OFFCURVE",
"622 1449 CURVE SMOOTH",
"638 1469 OFFCURVE",
"647 1491 OFFCURVE",
"647 1513 CURVE SMOOTH",
"647 1554 OFFCURVE",
"618 1575 OFFCURVE",
"591 1575 CURVE SMOOTH",
"545 1575 OFFCURVE",
"551 1529 OFFCURVE",
"492 1529 CURVE SMOOTH",
"434 1529 OFFCURVE",
"418 1589 OFFCURVE",
"336 1589 CURVE SMOOTH",
"294 1589 OFFCURVE",
"260 1574 OFFCURVE",
"235 1551 CURVE SMOOTH",
"202 1521 OFFCURVE",
"185 1485 OFFCURVE",
"185 1454 CURVE SMOOTH",
"185 1422 OFFCURVE",
"203 1396 OFFCURVE",
"228 1396 CURVE SMOOTH",
"260 1396 OFFCURVE",
"287 1442 OFFCURVE",
"339 1442 CURVE SMOOTH",
"384 1442 OFFCURVE",
"419 1383 OFFCURVE",
"494 1383 CURVE SMOOTH"
);
}
);
width = 868;
}
);
unicode = 0303;
},
{
glyphname = macroncomb;
lastChange = "2020-09-28 21:06:28 +0000";
layers = (
{
anchors = (
{
name = _top;
position = "{444, 1200}";
},
{
name = top;
position = "{444, 1522}";
}
);
layerId = "9B85AB65-32D7-4FED-B27C-3C7447013A9D";
paths = (
{
closed = 1;
nodes = (
"648 1395 LINE SMOOTH",
"690 1395 OFFCURVE",
"711 1416 OFFCURVE",
"711 1458 CURVE SMOOTH",
"711 1500 OFFCURVE",
"690 1521 OFFCURVE",
"648 1521 CURVE SMOOTH",
"240 1521 LINE SMOOTH",
"198 1521 OFFCURVE",
"177 1500 OFFCURVE",
"177 1458 CURVE SMOOTH",
"177 1416 OFFCURVE",
"198 1395 OFFCURVE",
"240 1395 CURVE SMOOTH"
);
}
);
width = 860;
}
);
unicode = 0304;
},
{
glyphname = hookabovecomb;
lastChange = "2020-10-01 17:22:31 +0000";
layers = (
{
anchors = (
{
name = _top;
position = "{596, 1200}";
},
{
name = top;
position = "{596, 1659}";
}
);
layerId = "9B85AB65-32D7-4FED-B27C-3C7447013A9D";
paths = (
{
closed = 1;
nodes = (
"661 1335 OFFCURVE",
"804 1369 OFFCURVE",
"804 1500 CURVE SMOOTH",
"804 1620 OFFCURVE",
"699 1659 OFFCURVE",
"578 1659 CURVE SMOOTH",
"415 1659 OFFCURVE",
"387 1647 OFFCURVE",
"387 1581 CURVE SMOOTH",
"387 1528 OFFCURVE",
"411 1523 OFFCURVE",
"439 1523 CURVE SMOOTH",
"480 1523 OFFCURVE",
"504 1540 OFFCURVE",
"576 1540 CURVE SMOOTH",
"614 1540 OFFCURVE",
"653 1525 OFFCURVE",
"653 1495 CURVE SMOOTH",
"653 1463 OFFCURVE",
"614 1457 OFFCURVE",
"576 1457 CURVE SMOOTH",
"526 1457 OFFCURVE",
"504 1432 OFFCURVE",
"504 1394 CURVE SMOOTH",
"504 1354 OFFCURVE",
"529 1335 OFFCURVE",
"576 1335 CURVE SMOOTH"
);
}
);
width = 1200;
}
);
unicode = 0309;
},
{
glyphname = dblgravecomb;
lastChange = "2020-09-28 21:18:07 +0000";
layers = (
{
anchors = (
{
name = _top;
position = "{395, 1200}";
},
{
name = top;
position = "{395, 1640}";
}
);
layerId = "9B85AB65-32D7-4FED-B27C-3C7447013A9D";
paths = (
{
closed = 1;
nodes = (
"355 1375 OFFCURVE",
"377 1394 OFFCURVE",
"377 1425 CURVE SMOOTH",
"377 1448 OFFCURVE",
"366 1477 OFFCURVE",
"343 1508 CURVE SMOOTH",
"321 1538 LINE SMOOTH",
"262 1619 OFFCURVE",
"231 1640 OFFCURVE",
"141 1640 CURVE SMOOTH",
"92 1640 LINE SMOOTH",
"44 1640 OFFCURVE",
"14 1612 OFFCURVE",
"14 1575 CURVE SMOOTH",
"14 1551 OFFCURVE",
"27 1526 OFFCURVE",
"56 1501 CURVE SMOOTH",
"105 1460 LINE SMOOTH",
"177 1400 OFFCURVE",
"240 1375 OFFCURVE",
"317 1375 CURVE SMOOTH"
);
},
{
closed = 1;
nodes = (
"754 1375 OFFCURVE",
"776 1394 OFFCURVE",
"776 1425 CURVE SMOOTH",
"776 1448 OFFCURVE",
"765 1477 OFFCURVE",
"742 1508 CURVE SMOOTH",
"720 1538 LINE SMOOTH",
"661 1619 OFFCURVE",
"630 1640 OFFCURVE",
"540 1640 CURVE SMOOTH",
"491 1640 LINE SMOOTH",
"443 1640 OFFCURVE",
"413 1612 OFFCURVE",
"413 1575 CURVE SMOOTH",
"413 1551 OFFCURVE",
"426 1526 OFFCURVE",
"455 1501 CURVE SMOOTH",
"504 1460 LINE SMOOTH",
"576 1400 OFFCURVE",
"639 1375 OFFCURVE",
"716 1375 CURVE SMOOTH"
);
}
);
width = 790;
}
);
unicode = 030F;
},
{
glyphname = breveinvertedcomb;
lastChange = "2020-10-01 17:14:20 +0000";
layers = (
{
anchors = (
{
name = _top;
position = "{286, 1200}";
},
{
name = top;
position = "{286, 1610}";
}
);
layerId = "9B85AB65-32D7-4FED-B27C-3C7447013A9D";
paths = (
{
closed = 1;
nodes = (
"173 1610 OFFCURVE",
"71 1537 OFFCURVE",
"71 1389 CURVE SMOOTH",
"71 1352 OFFCURVE",
"90 1330 OFFCURVE",
"121 1330 CURVE SMOOTH",
"213 1330 OFFCURVE",
"184 1474 OFFCURVE",
"286 1474 CURVE SMOOTH",
"380 1474 OFFCURVE",
"361 1330 OFFCURVE",
"449 1330 CURVE SMOOTH",
"483 1330 OFFCURVE",
"500 1355 OFFCURVE",
"500 1389 CURVE SMOOTH",
"500 1541 OFFCURVE",
"402 1610 OFFCURVE",
"287 1610 CURVE SMOOTH"
);
}
);
width = 580;
}
);
unicode = 0311;
},
{
glyphname = commaturnedabovecomb;
lastChange = "2020-09-28 21:06:50 +0000";
layers = (
{
anchors = (
{
name = _top;
position = "{218, 1200}";
},
{
name = top;
position = "{218, 1750}";
}
);
layerId = "9B85AB65-32D7-4FED-B27C-3C7447013A9D";
paths = (
{
closed = 1;
nodes = (
"303 1321 OFFCURVE",
"356 1375 OFFCURVE",
"356 1443 CURVE SMOOTH",
"356 1512 OFFCURVE",
"303 1565 OFFCURVE",
"234 1565 CURVE SMOOTH",
"229 1565 OFFCURVE",
"220 1565 OFFCURVE",
"216 1565 CURVE",
"224 1598 OFFCURVE",
"243 1632 OFFCURVE",
"270 1662 CURVE SMOOTH",
"305 1700 OFFCURVE",
"326 1725 OFFCURVE",
"326 1740 CURVE SMOOTH",
"326 1750 OFFCURVE",
"318 1760 OFFCURVE",
"303 1760 CURVE SMOOTH",
"283 1760 OFFCURVE",
"254 1746 OFFCURVE",
"221 1713 CURVE SMOOTH",
"132 1622 OFFCURVE",
"100 1524 OFFCURVE",
"100 1465 CURVE SMOOTH",
"100 1362 OFFCURVE",
"167 1321 OFFCURVE",
"234 1321 CURVE SMOOTH"
);
}
);
width = 436;
}
);
unicode = 0312;
},
{
glyphname = horncomb;
lastChange = "2020-10-01 17:05:58 +0000";
layers = (
{
anchors = (
{
name = _topright;
position = "{89, 1200}";
},
{
name = topright;
position = "{546, 1512}";
}
);
layerId = "9B85AB65-32D7-4FED-B27C-3C7447013A9D";
paths = (
{
closed = 1;
nodes = (
"388 1043 OFFCURVE",
"551 1200 OFFCURVE",
"551 1417 CURVE SMOOTH",
"551 1496 OFFCURVE",
"543 1512 OFFCURVE",
"414 1512 CURVE SMOOTH",
"313 1512 OFFCURVE",
"293 1496 OFFCURVE",
"293 1415 CURVE SMOOTH",
"293 1284 OFFCURVE",
"209 1200 OFFCURVE",
"89 1200 CURVE SMOOTH",
"63 1200 OFFCURVE",
"43 1180 OFFCURVE",
"43 1148 CURVE SMOOTH",
"43 1072 OFFCURVE",
"84 1043 OFFCURVE",
"207 1043 CURVE SMOOTH"
);
}
);
width = 600;
},
{
anchors = (
{
name = _topright;
position = "{407, 952}";
},
{
name = topright;
position = "{864, 1264}";
}
);
associatedMasterId = "9B85AB65-32D7-4FED-B27C-3C7447013A9D";
layerId = "5521DC30-183F-421A-91F3-644B5E24AFE6";
name = ExtraBold;
paths = (
{
closed = 1;
nodes = (
"737 795 OFFCURVE",
"869 961 OFFCURVE",
"869 1122 CURVE SMOOTH",
"869 1230 OFFCURVE",
"821 1264 OFFCURVE",
"732 1264 CURVE SMOOTH",
"651 1264 OFFCURVE",
"610 1208 OFFCURVE",
"595 1132 CURVE SMOOTH",
"569 1002 OFFCURVE",
"527 952 OFFCURVE",
"407 952 CURVE SMOOTH",
"381 952 OFFCURVE",
"361 942 OFFCURVE",
"361 910 CURVE SMOOTH",
"361 875 OFFCURVE",
"375 850 OFFCURVE",
"407 830 CURVE SMOOTH",
"418 822 OFFCURVE",
"472 795 OFFCURVE",
"556 795 CURVE SMOOTH"
);
}
);
width = 1238;
}
);
unicode = 031B;
},
{
glyphname = dotbelowcomb;
lastChange = "2020-09-28 21:14:08 +0000";
layers = (
{
anchors = (
{
name = _bottom;
position = "{199, 0}";
},
{
name = bottom;
position = "{199, -411}";
}
);
layerId = "9B85AB65-32D7-4FED-B27C-3C7447013A9D";
paths = (
{
closed = 1;
nodes = (
"270 -411 OFFCURVE",
"328 -353 OFFCURVE",
"328 -281 CURVE SMOOTH",
"328 -209 OFFCURVE",
"270 -151 OFFCURVE",
"198 -151 CURVE SMOOTH",
"128 -151 OFFCURVE",
"70 -209 OFFCURVE",
"70 -281 CURVE SMOOTH",
"70 -353 OFFCURVE",
"128 -411 OFFCURVE",
"198 -411 CURVE SMOOTH"
);
}
);
width = 380;
}
);
unicode = 0323;
},
{
glyphname = commaaccentcomb;
lastChange = "2020-09-28 21:07:04 +0000";
layers = (
{
anchors = (
{
name = _bottom;
position = "{302, 0}";
},
{
name = bottom;
position = "{302, -518}";
}
);
layerId = "9B85AB65-32D7-4FED-B27C-3C7447013A9D";
paths = (
{
closed = 1;
nodes = (
"225 -122 OFFCURVE",
"172 -176 OFFCURVE",
"172 -244 CURVE SMOOTH",
"172 -313 OFFCURVE",
"225 -366 OFFCURVE",
"294 -366 CURVE SMOOTH",
"299 -366 OFFCURVE",
"308 -366 OFFCURVE",
"312 -366 CURVE",
"304 -399 OFFCURVE",
"285 -433 OFFCURVE",
"258 -463 CURVE SMOOTH",
"223 -501 OFFCURVE",
"202 -526 OFFCURVE",
"202 -541 CURVE SMOOTH",
"202 -551 OFFCURVE",
"210 -561 OFFCURVE",
"225 -561 CURVE SMOOTH",
"245 -561 OFFCURVE",
"274 -547 OFFCURVE",
"307 -514 CURVE SMOOTH",
"396 -423 OFFCURVE",
"428 -325 OFFCURVE",
"428 -266 CURVE SMOOTH",
"428 -163 OFFCURVE",
"361 -122 OFFCURVE",
"294 -122 CURVE SMOOTH"
);
}
);
width = 582;
}
);
unicode = 0326;
},
{
glyphname = cedillacomb;
lastChange = "2020-10-01 17:10:21 +0000";
layers = (
{
anchors = (
{
name = _bottom;
position = "{299, 0}";
},
{
name = bottom;
position = "{340, -538}";
}
);
layerId = "9B85AB65-32D7-4FED-B27C-3C7447013A9D";
paths = (
{
closed = 1;
nodes = (
"487 -499 OFFCURVE",
"641 -411 OFFCURVE",
"641 -269 CURVE SMOOTH",
"641 -159 OFFCURVE",
"567 -113 OFFCURVE",
"475 -113 CURVE SMOOTH",
"423 -113 OFFCURVE",
"375 -123 OFFCURVE",
"337 -155 CURVE",
"391 -1 LINE",
"396 10 OFFCURVE",
"397 21 OFFCURVE",
"397 31 CURVE SMOOTH",
"397 69 OFFCURVE",
"361 87 OFFCURVE",
"315 87 CURVE SMOOTH",
"259 87 OFFCURVE",
"212 44 OFFCURVE",
"195 -1 CURVE SMOOTH",
"143 -143 LINE SMOOTH",
"138 -156 OFFCURVE",
"133 -173 OFFCURVE",
"133 -187 CURVE SMOOTH",
"133 -233 OFFCURVE",
"157 -269 OFFCURVE",
"217 -269 CURVE SMOOTH",
"279 -269 OFFCURVE",
"309 -245 OFFCURVE",
"371 -245 CURVE SMOOTH",
"401 -245 OFFCURVE",
"417 -255 OFFCURVE",
"417 -275 CURVE SMOOTH",
"417 -305 OFFCURVE",
"375 -319 OFFCURVE",
"307 -319 CURVE SMOOTH",
"247 -319 OFFCURVE",
"181 -301 OFFCURVE",
"151 -301 CURVE SMOOTH",
"113 -301 OFFCURVE",
"67 -329 OFFCURVE",
"67 -395 CURVE SMOOTH",
"67 -473 OFFCURVE",
"167 -499 OFFCURVE",
"279 -499 CURVE SMOOTH"
);
}
);
width = 641;
}
);
unicode = 0327;
},
{
glyphname = ogonekcomb;
lastChange = "2020-09-28 20:42:34 +0000";
layers = (
{
anchors = (
{
name = _ogonek;
position = "{352, 52}";
}
);
layerId = "9B85AB65-32D7-4FED-B27C-3C7447013A9D";
paths = (
{
closed = 1;
nodes = (
"504 -510 OFFCURVE",
"668 -428 OFFCURVE",
"668 -300 CURVE SMOOTH",
"668 -270 OFFCURVE",
"650 -232 OFFCURVE",
"598 -232 CURVE SMOOTH",
"524 -232 OFFCURVE",
"486 -288 OFFCURVE",
"378 -288 CURVE SMOOTH",
"302 -288 OFFCURVE",
"276 -230 OFFCURVE",
"276 -172 CURVE SMOOTH",
"276 -56 OFFCURVE",
"432 -46 OFFCURVE",
"432 38 CURVE SMOOTH",
"432 70 OFFCURVE",
"418 118 OFFCURVE",
"352 118 CURVE SMOOTH",
"180 118 OFFCURVE",
"32 -6 OFFCURVE",
"32 -208 CURVE SMOOTH",
"32 -386 OFFCURVE",
"162 -510 OFFCURVE",
"360 -510 CURVE SMOOTH"
);
}
);
width = 612;
}
);
unicode = 0328;
},
{
glyphname = strokeshortcomb;
lastChange = "2020-09-28 21:04:34 +0000";
layers = (
{
anchors = (
{
name = _center;
position = "{444, 734}";
}
);
layerId = "9B85AB65-32D7-4FED-B27C-3C7447013A9D";
paths = (
{
closed = 1;
nodes = (
"648 671 LINE SMOOTH",
"690 671 OFFCURVE",
"711 692 OFFCURVE",
"711 734 CURVE SMOOTH",
"711 776 OFFCURVE",
"690 797 OFFCURVE",
"648 797 CURVE SMOOTH",
"240 797 LINE SMOOTH",
"198 797 OFFCURVE",
"177 776 OFFCURVE",
"177 734 CURVE SMOOTH",
"177 692 OFFCURVE",
"198 671 OFFCURVE",
"240 671 CURVE SMOOTH"
);
}
);
width = 860;
}
);
unicode = 0335;
},
{
glyphname = strokelongcomb;
lastChange = "2020-09-28 21:04:34 +0000";
layers = (
{
anchors = (
{
name = _center;
position = "{444, 734}";
}
);
layerId = "9B85AB65-32D7-4FED-B27C-3C7447013A9D";
paths = (
{
closed = 1;
nodes = (
"648 671 LINE SMOOTH",
"690 671 OFFCURVE",
"711 692 OFFCURVE",
"711 734 CURVE SMOOTH",
"711 776 OFFCURVE",
"690 797 OFFCURVE",
"648 797 CURVE SMOOTH",
"240 797 LINE SMOOTH",
"198 797 OFFCURVE",
"177 776 OFFCURVE",
"177 734 CURVE SMOOTH",
"177 692 OFFCURVE",
"198 671 OFFCURVE",
"240 671 CURVE SMOOTH"
);
}
);
width = 534;
}
);
unicode = 0336;
},
{
glyphname = slashshortcomb;
lastChange = "2020-09-28 21:04:34 +0000";
layers = (
{
anchors = (
{
name = _center;
position = "{444, 734}";
}
);
layerId = "9B85AB65-32D7-4FED-B27C-3C7447013A9D";
paths = (
{
closed = 1;
nodes = (
"648 671 LINE SMOOTH",
"690 671 OFFCURVE",
"711 692 OFFCURVE",
"711 734 CURVE SMOOTH",
"711 776 OFFCURVE",
"690 797 OFFCURVE",
"648 797 CURVE SMOOTH",
"240 797 LINE SMOOTH",
"198 797 OFFCURVE",
"177 776 OFFCURVE",
"177 734 CURVE SMOOTH",
"177 692 OFFCURVE",
"198 671 OFFCURVE",
"240 671 CURVE SMOOTH"
);
}
);
width = 534;
}
);
unicode = 0337;
},
{
glyphname = slashlongcomb;
lastChange = "2020-09-28 20:42:28 +0000";
layers = (
{
anchors = (
{
name = _center;
position = "{470, 734}";
}
);
layerId = "9B85AB65-32D7-4FED-B27C-3C7447013A9D";
paths = (
{
closed = 1;
nodes = (
"194 -148 LINE SMOOTH",
"248 -148 OFFCURVE",
"276 -122 OFFCURVE",
"294 -72 CURVE SMOOTH",
"868 1514 LINE SMOOTH",
"890 1576 OFFCURVE",
"858 1616 OFFCURVE",
"792 1616 CURVE SMOOTH",
"744 1616 LINE SMOOTH",
"690 1616 OFFCURVE",
"662 1590 OFFCURVE",
"644 1540 CURVE SMOOTH",
"70 -46 LINE SMOOTH",
"48 -108 OFFCURVE",
"80 -148 OFFCURVE",
"146 -148 CURVE SMOOTH"
);
}
);
width = 980;
}
);
unicode = 0338;
},
{
glyphname = dieresis;
lastChange = "2020-09-28 20:42:28 +0000";
layers = (
{
layerId = "9B85AB65-32D7-4FED-B27C-3C7447013A9D";
paths = (
{
closed = 1;
nodes = (
"656 1604 OFFCURVE",
"714 1662 OFFCURVE",
"714 1734 CURVE SMOOTH",
"714 1806 OFFCURVE",
"656 1864 OFFCURVE",
"584 1864 CURVE SMOOTH",
"514 1864 OFFCURVE",
"456 1806 OFFCURVE",
"456 1734 CURVE SMOOTH",
"456 1662 OFFCURVE",
"514 1604 OFFCURVE",
"584 1604 CURVE SMOOTH"
);
},
{
closed = 1;
nodes = (
"270 1604 OFFCURVE",
"328 1662 OFFCURVE",
"328 1734 CURVE SMOOTH",
"328 1806 OFFCURVE",
"270 1864 OFFCURVE",
"198 1864 CURVE SMOOTH",
"128 1864 OFFCURVE",
"70 1806 OFFCURVE",
"70 1734 CURVE SMOOTH",
"70 1662 OFFCURVE",
"128 1604 OFFCURVE",
"198 1604 CURVE SMOOTH"
);
}
);
width = 760;
}
);
unicode = 00A8;
},
{
glyphname = dotaccent;
lastChange = "2020-09-28 20:42:28 +0000";
layers = (
{
layerId = "9B85AB65-32D7-4FED-B27C-3C7447013A9D";
paths = (
{
closed = 1;
nodes = (
"270 1604 OFFCURVE",
"328 1662 OFFCURVE",
"328 1734 CURVE SMOOTH",
"328 1806 OFFCURVE",
"270 1864 OFFCURVE",
"198 1864 CURVE SMOOTH",
"128 1864 OFFCURVE",
"70 1806 OFFCURVE",
"70 1734 CURVE SMOOTH",
"70 1662 OFFCURVE",
"128 1604 OFFCURVE",
"198 1604 CURVE SMOOTH"
);
}
);
width = 380;
}
);
unicode = 02D9;
},
{
glyphname = grave;
lastChange = "2020-09-28 20:42:28 +0000";
layers = (
{
layerId = "9B85AB65-32D7-4FED-B27C-3C7447013A9D";
paths = (
{
closed = 1;
nodes = (
"418 1596 OFFCURVE",
"434 1602 OFFCURVE",
"442 1614 CURVE SMOOTH",
"468 1652 OFFCURVE",
"356 1806 OFFCURVE",
"292 1848 CURVE SMOOTH",
"218 1896 OFFCURVE",
"136 1898 OFFCURVE",
"70 1860 CURVE SMOOTH",
"-44 1794 OFFCURVE",
"156 1682 OFFCURVE",
"224 1650 CURVE SMOOTH",
"292 1616 OFFCURVE",
"350 1596 OFFCURVE",
"396 1596 CURVE SMOOTH"
);
}
);
width = 470;
}
);
unicode = 0060;
},
{
glyphname = acute;
lastChange = "2020-09-28 20:42:28 +0000";
layers = (
{
layerId = "9B85AB65-32D7-4FED-B27C-3C7447013A9D";
paths = (
{
closed = 1;
nodes = (
"152 1596 OFFCURVE",
"210 1616 OFFCURVE",
"278 1650 CURVE SMOOTH",
"346 1682 OFFCURVE",
"546 1794 OFFCURVE",
"432 1860 CURVE SMOOTH",
"366 1898 OFFCURVE",
"284 1896 OFFCURVE",
"210 1848 CURVE SMOOTH",
"146 1806 OFFCURVE",
"34 1652 OFFCURVE",
"60 1614 CURVE SMOOTH",
"68 1602 OFFCURVE",
"84 1596 OFFCURVE",
"106 1596 CURVE SMOOTH"
);
}
);
width = 476;
}
);
unicode = 00B4;
},
{
glyphname = hungarumlaut;
lastChange = "2020-09-28 20:42:36 +0000";
layers = (
{
layerId = "9B85AB65-32D7-4FED-B27C-3C7447013A9D";
paths = (
{
closed = 1;
nodes = (
"436 1594 OFFCURVE",
"476 1602 OFFCURVE",
"524 1624 CURVE SMOOTH",
"570 1646 OFFCURVE",
"622 1688 OFFCURVE",
"672 1726 CURVE SMOOTH",
"866 1874 OFFCURVE",
"640 1928 OFFCURVE",
"566 1864 CURVE SMOOTH",
"518 1822 OFFCURVE",
"474 1770 OFFCURVE",
"446 1724 CURVE SMOOTH",
"418 1676 OFFCURVE",
"404 1634 OFFCURVE",
"420 1616 CURVE"
);
},
{
closed = 1;
nodes = (
"136 1594 OFFCURVE",
"176 1602 OFFCURVE",
"224 1624 CURVE SMOOTH",
"270 1646 OFFCURVE",
"322 1688 OFFCURVE",
"372 1726 CURVE SMOOTH",
"566 1874 OFFCURVE",
"340 1928 OFFCURVE",
"266 1864 CURVE SMOOTH",
"218 1822 OFFCURVE",
"174 1770 OFFCURVE",
"146 1724 CURVE SMOOTH",
"118 1676 OFFCURVE",
"104 1634 OFFCURVE",
"120 1616 CURVE"
);
}
);
width = 760;
}
);
unicode = 02DD;
},
{
glyphname = circumflex;
lastChange = "2020-09-28 20:42:28 +0000";
layers = (
{
layerId = "9B85AB65-32D7-4FED-B27C-3C7447013A9D";
paths = (
{
closed = 1;
nodes = (
"154 1598 LINE SMOOTH",
"192 1598 OFFCURVE",
"222 1612 OFFCURVE",
"246 1640 CURVE SMOOTH",
"326 1734 LINE",
"404 1640 LINE SMOOTH",
"428 1612 OFFCURVE",
"460 1598 OFFCURVE",
"498 1598 CURVE SMOOTH",
"526 1598 LINE SMOOTH",
"590 1598 OFFCURVE",
"610 1640 OFFCURVE",
"568 1690 CURVE SMOOTH",
"418 1876 LINE SMOOTH",
"396 1904 OFFCURVE",
"366 1918 OFFCURVE",
"328 1918 CURVE SMOOTH",
"324 1918 LINE SMOOTH",
"286 1918 OFFCURVE",
"256 1904 OFFCURVE",
"232 1876 CURVE SMOOTH",
"82 1690 LINE SMOOTH",
"42 1640 OFFCURVE",
"62 1598 OFFCURVE",
"124 1598 CURVE SMOOTH"
);
}
);
width = 644;
}
);
unicode = 02C6;
},
{
glyphname = caron;
lastChange = "2020-09-28 20:42:28 +0000";
layers = (
{
layerId = "9B85AB65-32D7-4FED-B27C-3C7447013A9D";
paths = (
{
closed = 1;
nodes = (
"328 1598 LINE SMOOTH",
"366 1598 OFFCURVE",
"396 1612 OFFCURVE",
"418 1640 CURVE SMOOTH",
"568 1826 LINE SMOOTH",
"610 1876 OFFCURVE",
"590 1918 OFFCURVE",
"526 1918 CURVE SMOOTH",
"498 1918 LINE SMOOTH",
"460 1918 OFFCURVE",
"428 1904 OFFCURVE",
"404 1876 CURVE SMOOTH",
"326 1782 LINE",
"246 1876 LINE SMOOTH",
"222 1904 OFFCURVE",
"192 1918 OFFCURVE",
"154 1918 CURVE SMOOTH",
"124 1918 LINE SMOOTH",
"62 1918 OFFCURVE",
"42 1876 OFFCURVE",
"82 1826 CURVE SMOOTH",
"232 1640 LINE SMOOTH",
"256 1612 OFFCURVE",
"286 1598 OFFCURVE",
"324 1598 CURVE SMOOTH"
);
}
);
width = 630;
}
);
unicode = 02C7;
},
{
glyphname = breve;
lastChange = "2020-09-28 20:42:28 +0000";
layers = (
{
layerId = "9B85AB65-32D7-4FED-B27C-3C7447013A9D";
paths = (
{
closed = 1;
nodes = (
"384 1598 OFFCURVE",
"438 1618 OFFCURVE",
"482 1658 CURVE SMOOTH",
"526 1696 OFFCURVE",
"556 1754 OFFCURVE",
"570 1826 CURVE SMOOTH",
"576 1860 OFFCURVE",
"574 1908 OFFCURVE",
"528 1918 CURVE SMOOTH",
"482 1928 OFFCURVE",
"462 1890 OFFCURVE",
"438 1850 CURVE SMOOTH",
"414 1810 OFFCURVE",
"388 1766 OFFCURVE",
"326 1766 CURVE SMOOTH",
"316 1766 LINE SMOOTH",
"260 1768 OFFCURVE",
"234 1812 OFFCURVE",
"212 1852 CURVE SMOOTH",
"188 1892 OFFCURVE",
"170 1926 OFFCURVE",
"124 1918 CURVE SMOOTH",
"78 1908 OFFCURVE",
"76 1860 OFFCURVE",
"82 1826 CURVE SMOOTH",
"92 1754 OFFCURVE",
"130 1696 OFFCURVE",
"176 1658 CURVE SMOOTH",
"222 1618 OFFCURVE",
"278 1598 OFFCURVE",
"328 1598 CURVE SMOOTH"
);
}
);
width = 580;
}
);
unicode = 02D8;
},
{
glyphname = ring;
lastChange = "2020-09-28 20:42:28 +0000";
layers = (
{
layerId = "9B85AB65-32D7-4FED-B27C-3C7447013A9D";
paths = (
{
closed = 1;
nodes = (
"294 1592 OFFCURVE",
"362 1660 OFFCURVE",
"362 1742 CURVE SMOOTH",
"362 1830 OFFCURVE",
"294 1898 OFFCURVE",
"206 1898 CURVE SMOOTH",
"120 1898 OFFCURVE",
"52 1830 OFFCURVE",
"52 1742 CURVE SMOOTH",
"52 1660 OFFCURVE",
"120 1592 OFFCURVE",
"206 1592 CURVE SMOOTH"
);
},
{
closed = 1;
nodes = (
"174 1682 OFFCURVE",
"144 1710 OFFCURVE",
"144 1742 CURVE SMOOTH",
"144 1776 OFFCURVE",
"174 1804 OFFCURVE",
"206 1804 CURVE SMOOTH",
"240 1804 OFFCURVE",
"268 1776 OFFCURVE",
"268 1742 CURVE SMOOTH",
"268 1710 OFFCURVE",
"240 1682 OFFCURVE",
"206 1682 CURVE SMOOTH"
);
}
);
width = 368;
}
);
unicode = 02DA;
},
{
glyphname = tilde;
lastChange = "2020-09-28 20:42:36 +0000";
layers = (
{
layerId = "9B85AB65-32D7-4FED-B27C-3C7447013A9D";
paths = (
{
closed = 1;
nodes = (
"736 1600 OFFCURVE",
"804 1648 OFFCURVE",
"850 1738 CURVE",
"864 1770 OFFCURVE",
"876 1814 OFFCURVE",
"834 1838 CURVE SMOOTH",
"794 1860 OFFCURVE",
"762 1830 OFFCURVE",
"730 1800 CURVE SMOOTH",
"696 1768 OFFCURVE",
"656 1734 OFFCURVE",
"598 1748 CURVE",
"558 1762 OFFCURVE",
"538 1770 OFFCURVE",
"500 1796 CURVE SMOOTH",
"420 1852 OFFCURVE",
"332 1878 OFFCURVE",
"254 1868 CURVE SMOOTH",
"174 1858 OFFCURVE",
"104 1812 OFFCURVE",
"62 1724 CURVE SMOOTH",
"46 1692 OFFCURVE",
"34 1646 OFFCURVE",
"76 1622 CURVE SMOOTH",
"116 1600 OFFCURVE",
"146 1630 OFFCURVE",
"180 1662 CURVE SMOOTH",
"214 1692 OFFCURVE",
"254 1726 OFFCURVE",
"312 1712 CURVE SMOOTH",
"352 1702 OFFCURVE",
"374 1690 OFFCURVE",
"412 1664 CURVE SMOOTH",
"490 1608 OFFCURVE",
"578 1582 OFFCURVE",
"658 1592 CURVE SMOOTH"
);
}
);
width = 868;
}
);
unicode = 02DC;
},
{
glyphname = macron;
lastChange = "2020-09-28 20:42:28 +0000";
layers = (
{
layerId = "9B85AB65-32D7-4FED-B27C-3C7447013A9D";
paths = (
{
closed = 1;
nodes = (
"734 1614 LINE SMOOTH",
"794 1614 OFFCURVE",
"824 1644 OFFCURVE",
"824 1704 CURVE SMOOTH",
"824 1764 OFFCURVE",
"794 1794 OFFCURVE",
"734 1794 CURVE SMOOTH",
"154 1794 LINE SMOOTH",
"94 1794 OFFCURVE",
"64 1764 OFFCURVE",
"64 1704 CURVE SMOOTH",
"64 1644 OFFCURVE",
"94 1614 OFFCURVE",
"154 1614 CURVE SMOOTH"
);
}
);
width = 860;
}
);
unicode = 00AF;
},
{
glyphname = cedilla;
lastChange = "2020-09-28 20:42:33 +0000";
layers = (
{
layerId = "9B85AB65-32D7-4FED-B27C-3C7447013A9D";
paths = (
{
closed = 1;
nodes = (
"467 -539 OFFCURVE",
"622 -469 OFFCURVE",
"622 -327 CURVE SMOOTH",
"622 -219 OFFCURVE",
"549 -172 OFFCURVE",
"456 -172 CURVE SMOOTH",
"403 -172 OFFCURVE",
"355 -181 OFFCURVE",
"318 -213 CURVE",
"373 -60 LINE SMOOTH",
"376 -50 OFFCURVE",
"378 -37 OFFCURVE",
"378 -28 CURVE SMOOTH",
"378 9 OFFCURVE",
"343 29 OFFCURVE",
"296 29 CURVE SMOOTH",
"239 29 OFFCURVE",
"191 -16 OFFCURVE",
"175 -60 CURVE SMOOTH",
"124 -203 LINE SMOOTH",
"118 -217 OFFCURVE",
"113 -233 OFFCURVE",
"113 -247 CURVE SMOOTH",
"113 -291 OFFCURVE",
"138 -327 OFFCURVE",
"199 -327 CURVE SMOOTH",
"259 -327 OFFCURVE",
"289 -304 OFFCURVE",
"352 -304 CURVE SMOOTH",
"382 -304 OFFCURVE",
"398 -315 OFFCURVE",
"398 -334 CURVE SMOOTH",
"398 -364 OFFCURVE",
"355 -379 OFFCURVE",
"287 -379 CURVE SMOOTH",
"229 -379 OFFCURVE",
"163 -361 OFFCURVE",
"133 -361 CURVE SMOOTH",
"94 -361 OFFCURVE",
"58 -388 OFFCURVE",
"58 -434 CURVE SMOOTH",
"58 -511 OFFCURVE",
"147 -539 OFFCURVE",
"261 -539 CURVE SMOOTH"
);
}
);
width = 612;
}
);
unicode = 00B8;
},
